STARTFONT 2.1
FONT -HP-Sung-Medium-R-Normal--42-420-75-75-C-420-CNS11643.1992-1
SIZE 42 75 75
FONTBOUNDINGBOX 42 42 0 -6

STARTPROPERTIES 23
FONTNAME_REGISTRY ""
FOUNDRY "HP"
FAMILY_NAME "Sung"
WEIGHT_NAME "Medium"
SLANT "R"
SETWIDTH_NAME "Normal"
ADD_STYLE_NAME ""
PIXEL_SIZE 42
POINT_SIZE 420
RESOLUTION_X 75
RESOLUTION_Y 75
SPACING "C"
AVERAGE_WIDTH 420
CHARSET_REGISTRY "CNS11643.1992"
CHARSET_ENCODING "1"
COPYRIGHT "Copyright (c) 1994 Hewlett-Packard Company."
_HP_ASXVERSION "@(#) ASX 3.00 $Revision: 13.9 $ sung42n1"
WEIGHT 10
X_HEIGHT 36
QUAD_WIDTH 42
DEFAULT_CHAR 9039
FONT_DESCENT 6
FONT_ASCENT 36
ENDPROPERTIES

CHARS 6086

STARTCHAR cns1_2121
ENCODING 8481
SWIDTH 960 0
DWIDTH 42 0
BBX 42 42 0 -6
BITMAP
000000000000
000000000000
000000000000
000000000000
000000000000
000000000000
000000000000
000000000000
000000000000
000000000000
000000000000
000000000000
000000000000
000000000000
000000000000
000000000000
000000000000
000000000000
000000000000
000000000000
000000000000
000000000000
000000000000
000000000000
000000000000
000000000000
000000000000
000000000000
000000000000
000000000000
000000000000
000000000000
000000000000
000000000000
000000000000
000000000000
000000000000
000000000000
000000000000
000000000000
000000000000
000000000000
ENDCHAR

STARTCHAR cns1_2122
ENCODING 8482
SWIDTH 960 0
DWIDTH 42 0
BBX 42 42 0 -6
BITMAP
000000000000
000000000000
000000000000
000000000000
000000000000
000000000000
000000000000
000000000000
000000000000
000000000000
000000000000
000000000000
000000000000
000000000000
000000000000
000018000000
00003C000000
00007E000000
00007F000000
00003F000000
000016000000
000006000000
00000E000000
00000C000000
00000C000000
000018000000
000030000000
000000000000
000000000000
000000000000
000000000000
000000000000
000000000000
000000000000
000000000000
000000000000
000000000000
000000000000
000000000000
000000000000
000000000000
000000000000
ENDCHAR

STARTCHAR cns1_2123
ENCODING 8483
SWIDTH 960 0
DWIDTH 42 0
BBX 42 42 0 -6
BITMAP
000000000000
000000000000
000000000000
000000000000
000000000000
000000000000
000000000000
000000000000
000000000000
000000000000
000000000000
000000000000
000000000000
000000000000
000000000000
000000000000
000000000000
0000E0000000
000078000000
00003C000000
00001F000000
00001F800000
00000F800000
000007800000
000007800000
000000000000
000000000000
000000000000
000000000000
000000000000
000000000000
000000000000
000000000000
000000000000
000000000000
000000000000
000000000000
000000000000
000000000000
000000000000
000000000000
000000000000
ENDCHAR

STARTCHAR cns1_2124
ENCODING 8484
SWIDTH 960 0
DWIDTH 42 0
BBX 42 42 0 -6
BITMAP
000000000000
000000000000
000000000000
000000000000
000000000000
000000000000
000000000000
000000000000
000000000000
000000000000
000000000000
000000000000
000000000000
000000000000
000000000000
000000000000
00003F000000
00007F800000
0000C0C00000
0001C0600000
000180600000
000180600000
000180600000
0001C0C00000
0000E3800000
00003F000000
000000000000
000000000000
000000000000
000000000000
000000000000
000000000000
000000000000
000000000000
000000000000
000000000000
000000000000
000000000000
000000000000
000000000000
000000000000
000000000000
ENDCHAR

STARTCHAR cns1_2125
ENCODING 8485
SWIDTH 960 0
DWIDTH 42 0
BBX 42 42 0 -6
BITMAP
000000000000
000000000000
000000000000
000000000000
000000000000
000000000000
000000000000
000000000000
000000000000
000000000000
000000000000
000000000000
000000000000
000000000000
000000000000
000000000000
000000000000
000000000000
000000000000
000000000000
000000000000
000000000000
000000000000
000000000000
000000000000
000000000000
000000000000
000000000000
000000000000
000000000000
01F000000000
03F800000000
03F800000000
03F800000000
01F000000000
00E000000000
000000000000
000000000000
000000000000
000000000000
000000000000
000000000000
ENDCHAR

STARTCHAR cns1_2126
ENCODING 8486
SWIDTH 960 0
DWIDTH 42 0
BBX 42 42 0 -6
BITMAP
000000000000
000000000000
000000000000
000000000000
000000000000
000000000000
000000000000
000000000000
000000000000
000000000000
000000000000
000000000000
000000000000
000000000000
000000000000
000000000000
000000000000
00000C000000
00003F000000
00007F800000
00007F800000
00007F800000
00007F800000
00003F000000
00001E000000
000000000000
000000000000
000000000000
000000000000
000000000000
000000000000
000000000000
000000000000
000000000000
000000000000
000000000000
000000000000
000000000000
000000000000
000000000000
000000000000
000000000000
ENDCHAR

STARTCHAR cns1_2127
ENCODING 8487
SWIDTH 960 0
DWIDTH 42 0
BBX 42 42 0 -6
BITMAP
000000000000
000000000000
000000000000
000000000000
000000000000
000000000000
000000000000
000000000000
00001C000000
00003E000000
00007E000000
00007E000000
00007E000000
00003C000000
000000000000
000000000000
000000000000
000000000000
000000000000
000000000000
000000000000
000000000000
000000000000
000018000000
00003E000000
00007F000000
00007F000000
00003F000000
000036000000
000006000000
00000E000000
00000C000000
00001C000000
000010000000
000020000000
000000000000
000000000000
000000000000
000000000000
000000000000
000000000000
000000000000
ENDCHAR

STARTCHAR cns1_2128
ENCODING 8488
SWIDTH 960 0
DWIDTH 42 0
BBX 42 42 0 -6
BITMAP
000000000000
000000000000
000000000000
000000000000
000000000000
000000000000
000000000000
000000000000
000000000000
000000000000
000000000000
00001E000000
00003F000000
00003F000000
00003F000000
00003F000000
00001F000000
000000000000
000000000000
000000000000
000000000000
000000000000
000000000000
000000000000
000000000000
00001E000000
00003F000000
00003F000000
00003F000000
00003F000000
00001E000000
000000000000
000000000000
000000000000
000000000000
000000000000
000000000000
000000000000
000000000000
000000000000
000000000000
000000000000
ENDCHAR

STARTCHAR cns1_2129
ENCODING 8489
SWIDTH 960 0
DWIDTH 42 0
BBX 42 42 0 -6
BITMAP
000000000000
000000000000
000000000000
000000000000
000000000000
000000000000
00003F000000
0000FFC00000
0001C1C00000
000180E00000
000380E00000
0003C0F00000
0003C0F00000
0003E0F00000
0003E0E00000
0001C1E00000
000003C00000
000007C00000
000007800000
00000F000000
00000E000000
00000E000000
00000C000000
00001C000000
000018000000
000018000000
000018000000
000018000000
000000000000
000000000000
000000000000
000018000000
00003C000000
00003E000000
00003E000000
00003C000000
000000000000
000000000000
000000000000
000000000000
000000000000
000000000000
ENDCHAR

STARTCHAR cns1_212A
ENCODING 8490
SWIDTH 960 0
DWIDTH 42 0
BBX 42 42 0 -6
BITMAP
000000000000
000000000000
000000000000
000000000000
000000000000
00003C000000
00003C000000
00003C000000
00003E000000
00007E000000
00003C000000
00003C000000
00003C000000
00003C000000
00003C000000
00003C000000
00003C000000
00003C000000
00001C000000
00001C000000
000018000000
000018000000
000018000000
000018000000
000018000000
000018000000
000008000000
000008000000
000000000000
000000000000
000000000000
000000000000
00001C000000
00003E000000
00003E000000
00007E000000
00003E000000
000000000000
000000000000
000000000000
000000000000
000000000000
ENDCHAR

STARTCHAR cns1_212B
ENCODING 8491
SWIDTH 960 0
DWIDTH 42 0
BBX 42 42 0 -6
BITMAP
000000000000
000000000000
000000000000
000000000000
000000000000
000000000000
000000000000
000000000000
000000000000
000000000000
00003C000000
00007F000000
0000FF000000
0000FF000000
0000FF000000
00007F000000
00007E000000
00003C000000
000000000000
000000000000
000000000000
000000000000
000000000000
000000000000
00007E000000
00007F000000
0000FF000000
0000FF000000
0000FF000000
00007F000000
00007E000000
000008000000
000000000000
000000000000
000000000000
000000000000
000000000000
000000000000
000000000000
000000000000
000000000000
000000000000
ENDCHAR

STARTCHAR cns1_212C
ENCODING 8492
SWIDTH 960 0
DWIDTH 42 0
BBX 42 42 0 -6
BITMAP
000000000000
000000000000
000000000000
000000000000
000000000000
000000000000
000000000000
000000000000
000000000000
000000000000
000000000000
000000000000
000000000000
000000000000
000000000000
000000000000
000000000000
000000000000
07801F007800
0FC03F00FC00
0FC03F01FC00
0FC03F81FC00
0FC03F00FC00
07C01F00F800
01000C002000
000000000000
000000000000
000000000000
000000000000
000000000000
000000000000
000000000000
000000000000
000000000000
000000000000
000000000000
000000000000
000000000000
000000000000
000000000000
000000000000
000000000000
ENDCHAR

STARTCHAR cns1_212D
ENCODING 8493
SWIDTH 960 0
DWIDTH 42 0
BBX 42 42 0 -6
BITMAP
000000000000
000000000000
000000000000
000000000000
000000000000
000000000000
000000000000
000000000000
000000000000
000000000000
000000000000
000000000000
000000000000
000000000000
000000000000
000000000000
000000000000
000000000000
001F003C0000
001F003E0000
003F807F0000
003F807F0000
001F003E0000
001F003E0000
000000000000
000000000000
000000000000
000000000000
000000000000
000000000000
000000000000
000000000000
000000000000
000000000000
000000000000
000000000000
000000000000
000000000000
000000000000
000000000000
000000000000
000000000000
ENDCHAR

STARTCHAR cns1_212E
ENCODING 8494
SWIDTH 960 0
DWIDTH 42 0
BBX 42 42 0 -6
BITMAP
000000000000
000000000000
000000000000
000000000000
000000000000
000000000000
000000000000
000000000000
000000000000
000000000000
000000000000
000000000000
000000000000
000000000000
000000000000
000000000000
000000000000
000000000000
000000000000
000000000000
000000000000
000000000000
000000000000
000000000000
000000000000
000000000000
000000000000
000000000000
000000000000
03C000000000
07E000000000
07E000000000
0FF000000000
0FF000000000
05E000000000
01E000000000
01C000000000
038000000000
060000000000
1C0000000000
000000000000
000000000000
ENDCHAR

STARTCHAR cns1_212F
ENCODING 8495
SWIDTH 960 0
DWIDTH 42 0
BBX 42 42 0 -6
BITMAP
000000000000
000000000000
000000000000
000000000000
000000000000
000000000000
000000000000
000000000000
000000000000
000000000000
000000000000
000000000000
000000000000
000000000000
000000000000
000000000000
000000000000
000000000000
000000000000
000000000000
000000000000
000000000000
000000000000
000000000000
000000000000
000000000000
000000000000
000000000000
000000000000
000000000000
030000000000
03C000000000
01E000000000
00F000000000
007800000000
007C00000000
007C00000000
007C00000000
003C00000000
001800000000
000000000000
000000000000
ENDCHAR

STARTCHAR cns1_2130
ENCODING 8496
SWIDTH 960 0
DWIDTH 42 0
BBX 42 42 0 -6
BITMAP
000000000000
000000000000
000000000000
000000000000
000000000000
000000000000
000000000000
000000000000
000000000000
000000000000
000000000000
000000000000
000000000000
000000000000
000000000000
000000000000
000000000000
000000000000
000000000000
000000000000
000000000000
000000000000
000000000000
000000000000
000000000000
000000000000
000000000000
000000000000
000000000000
000000000000
000000000000
00F800000000
01FC00000000
01FC00000000
03FC00000000
01FC00000000
00F800000000
000000000000
000000000000
000000000000
000000000000
000000000000
ENDCHAR

STARTCHAR cns1_2131
ENCODING 8497
SWIDTH 960 0
DWIDTH 42 0
BBX 42 42 0 -6
BITMAP
000000000000
000000000000
000000000000
000000000000
000000000000
000000000000
000000000000
000000000000
000000000000
000000000000
000000000000
000000000000
000000000000
000000000000
000000000000
000000000000
030000000000
07C000000000
07E000000000
07E000000000
0FE000000000
07E000000000
07C000000000
000000000000
000000000000
000000000000
000000000000
000000000000
000000000000
000000000000
000000000000
000000000000
000000000000
000000000000
000000000000
000000000000
000000000000
000000000000
000000000000
000000000000
000000000000
000000000000
ENDCHAR

STARTCHAR cns1_2132
ENCODING 8498
SWIDTH 960 0
DWIDTH 42 0
BBX 42 42 0 -6
BITMAP
000000000000
000000000000
000000000000
000000000000
000000000000
000000000000
000000000000
000000000000
000000000000
000000000000
000000000000
000038000000
0000FC000000
0000FE000000
0000FE000000
0000FE000000
0000FC000000
000078000000
000000000000
000000000000
000000000000
000000000000
000000000000
000000000000
00003E000000
00007E000000
0000FF000000
0000FF000000
0000FF000000
00007E000000
00003E000000
00003E000000
00003C000000
000078000000
000070000000
0000E0000000
0001C0000000
000000000000
000000000000
000000000000
000000000000
000000000000
ENDCHAR

STARTCHAR cns1_2133
ENCODING 8499
SWIDTH 960 0
DWIDTH 42 0
BBX 42 42 0 -6
BITMAP
000000000000
000000000000
000000000000
000000000000
000000000000
000000000000
000000000000
000000000000
000000000000
000000000000
000000000000
00003E000000
00007F000000
00007F000000
00007F000000
00007F000000
00003E000000
000000000000
000000000000
000000000000
000000000000
000000000000
000000000000
000000000000
00003C000000
00007E000000
0000FF000000
0000FF000000
0000FF000000
00007E000000
00003C000000
000000000000
000000000000
000000000000
000000000000
000000000000
000000000000
000000000000
000000000000
000000000000
000000000000
000000000000
ENDCHAR

STARTCHAR cns1_2134
ENCODING 8500
SWIDTH 960 0
DWIDTH 42 0
BBX 42 42 0 -6
BITMAP
000000000000
000000000000
000000000000
000000000000
000000000000
00001C000000
00007F800000
0000FFC00000
0001FFE00000
0003E1E00000
0003C0E00000
0003C0E00000
0003C0E00000
0003C1E00000
0003E1C00000
0003E3C00000
0000C7800000
000007000000
000007000000
00000E000000
00000E000000
00000E000000
00000E000000
00000E000000
00000E000000
00000E000000
000002000000
000000000000
000000000000
00000C000000
00001E000000
00003F000000
00001F000000
00001E000000
00000C000000
000000000000
000000000000
000000000000
000000000000
000000000000
000000000000
000000000000
ENDCHAR

STARTCHAR cns1_2135
ENCODING 8501
SWIDTH 960 0
DWIDTH 42 0
BBX 42 42 0 -6
BITMAP
000000000000
000000000000
000000000000
000000000000
000000000000
00003E000000
00003F000000
00003E000000
00003E000000
00003E000000
00003E000000
00003E000000
00003E000000
00001E000000
00001E000000
00001E000000
00001E000000
00001E000000
00001E000000
00001E000000
00001E000000
00001E000000
00001E000000
00001C000000
00001C000000
00001C000000
00001C000000
00001C000000
000000000000
000000000000
000000000000
00001C000000
00003F000000
00007F000000
00007F000000
00007F000000
00003E000000
000000000000
000000000000
000000000000
000000000000
000000000000
ENDCHAR

STARTCHAR cns1_2136
ENCODING 8502
SWIDTH 960 0
DWIDTH 42 0
BBX 42 42 0 -6
BITMAP
000000000000
00001E000000
00001E000000
00001E000000
00001E000000
00001E000000
00001E000000
00001E000000
00001E000000
00001E000000
00001E000000
00001E000000
00001E000000
00001E000000
00001E000000
00001E000000
00001E000000
00001E000000
00001E000000
00001E000000
00001E000000
00001E000000
00001E000000
00001E000000
00001E000000
00001E000000
00001E000000
00001E000000
00001E000000
00001E000000
00001E000000
00001E000000
00001E000000
00001E000000
00001E000000
00001E000000
00001E000000
00001E000000
00001E000000
00001E000000
000000000000
000000000000
ENDCHAR

STARTCHAR cns1_2137
ENCODING 8503
SWIDTH 960 0
DWIDTH 42 0
BBX 42 42 0 -6
BITMAP
000000000000
000000000000
000000000000
000000000000
000000000000
000000000000
000000000000
000000000000
000000000000
000000000000
000000000000
000000000000
000000000000
000000000000
000000000000
000000000000
000000000000
000000000000
000000000000
01FFFFFFC000
01FFFFFFC000
01FFFFFFC000
000000000000
000000000000
000000000000
000000000000
000000000000
000000000000
000000000000
000000000000
000000000000
000000000000
000000000000
000000000000
000000000000
000000000000
000000000000
000000000000
000000000000
000000000000
000000000000
000000000000
ENDCHAR

STARTCHAR cns1_2138
ENCODING 8504
SWIDTH 960 0
DWIDTH 42 0
BBX 42 42 0 -6
BITMAP
000000000000
00001C000000
00001C000000
00001C000000
00001C000000
00001C000000
00001C000000
00001C000000
00001C000000
00001C000000
00001C000000
00001C000000
00001C000000
00001C000000
00001C000000
00001C000000
00001C000000
00001C000000
00001C000000
00001C000000
00001C000000
00001C000000
00001C000000
00001C000000
00001C000000
00001C000000
00001C000000
00001C000000
00001C000000
00001C000000
00001C000000
00001C000000
00001C000000
00001C000000
00001C000000
00001C000000
00001C000000
00001C000000
00001C000000
00001C000000
000000000000
000000000000
ENDCHAR

STARTCHAR cns1_2139
ENCODING 8505
SWIDTH 960 0
DWIDTH 42 0
BBX 42 42 0 -6
BITMAP
000000000000
000000000000
000000000000
000000000000
000000000000
000000000000
000000000000
000000000000
000000000000
000000000000
000000000000
000000000000
000000000000
000000000000
000000000000
000000000000
000000000000
000000000000
000000000000
000000000000
01FFFFFFE000
01FFFFFFE000
000000000000
000000000000
000000000000
000000000000
000000000000
000000000000
000000000000
000000000000
000000000000
000000000000
000000000000
000000000000
000000000000
000000000000
000000000000
000000000000
000000000000
000000000000
000000000000
000000000000
ENDCHAR

STARTCHAR cns1_213A
ENCODING 8506
SWIDTH 960 0
DWIDTH 42 0
BBX 42 42 0 -6
BITMAP
000000000000
000000000F00
000000000F00
000000000F00
000000000F00
000000000F00
000000000F00
000000000F00
000000000F00
000000000F00
000000000F00
000000000F00
000000000F00
000000000F00
000000000F00
000000000F00
000000000F00
000000000F00
000000000F00
000000000F00
000000000F00
000000000F00
000000000F00
000000000F00
000000000F00
000000000F00
000000000F00
000000000F00
000000000F00
000000000F00
000000000F00
000000000F00
000000000F00
000000000F00
000000000F00
000000000F00
000000000F00
000000000F00
000000000F00
000000000F00
000000000F00
000000000000
ENDCHAR

STARTCHAR cns1_213B
ENCODING 8507
SWIDTH 960 0
DWIDTH 42 0
BBX 42 42 0 -6
BITMAP
000000000000
000000000000
7FFFFFFFFF00
7FFFFFFFFF00
000000000000
000000000000
000000000000
000000000000
000000000000
000000000000
000000000000
000000000000
000000000000
000000000000
000000000000
000000000000
000000000000
000000000000
000000000000
000000000000
000000000000
000000000000
000000000000
000000000000
000000000000
000000000000
000000000000
000000000000
000000000000
000000000000
000000000000
000000000000
000000000000
000000000000
000000000000
000000000000
000000000000
000000000000
000000000000
000000000000
000000000000
000000000000
ENDCHAR

STARTCHAR cns1_213C
ENCODING 8508
SWIDTH 960 0
DWIDTH 42 0
BBX 42 42 0 -6
BITMAP
000000000000
00000003E000
00000001F000
00000000F800
000000007C00
000000001E00
000000001F00
000000001F00
000000003E00
000000007C00
00000000F800
00000001F000
00000003C000
00000003C000
00000007C000
00000003E000
00000001F000
00000000F800
000000003C00
000000000E00
000000000F00
000000001F00
000000003E00
000000007C00
000000007800
00000000F000
00000001C000
00000003C000
00000003E000
00000001F000
00000000F800
000000007C00
000000003E00
000000000F00
000000000F00
000000001E00
000000003C00
000000007C00
00000000F800
00000001F000
00000003E000
000000000000
ENDCHAR

STARTCHAR cns1_213D
ENCODING 8509
SWIDTH 960 0
DWIDTH 42 0
BBX 42 42 0 -6
BITMAP
000000000000
000000000000
03001800C000
07803C01E000
0FC07E03F000
1FE0FF07F800
38F1C78E3E00
7873C39E1F00
703F81FC0F00
601F00F80700
400E00700100
000400200000
000000000000
000000000000
000000000000
000000000000
000000000000
000000000000
000000000000
000000000000
000000000000
000000000000
000000000000
000000000000
000000000000
000000000000
000000000000
000000000000
000000000000
000000000000
000000000000
000000000000
000000000000
000000000000
000000000000
000000000000
000000000000
000000000000
000000000000
000000000000
000000000000
000000000000
ENDCHAR

STARTCHAR cns1_213E
ENCODING 8510
SWIDTH 960 0
DWIDTH 42 0
BBX 42 42 0 -6
BITMAP
000000000000
000000000000
000000000000
000000080000
000000300000
000000600000
000000E00000
000001C00000
000003800000
000003800000
000007000000
000007000000
00000E000000
00000E000000
00001E000000
00001C000000
00001C000000
00001C000000
00003C000000
00003C000000
00003C000000
00003C000000
00003C000000
00003C000000
00003C000000
00001C000000
00001E000000
00001E000000
00000E000000
00000E000000
00000F000000
000007000000
000003800000
000003800000
000001800000
000000C00000
000000600000
000000300000
000000180000
000000080000
000000000000
000000000000
ENDCHAR

STARTCHAR cns1_213F
ENCODING 8511
SWIDTH 960 0
DWIDTH 42 0
BBX 42 42 0 -6
BITMAP
000000000000
000000000000
000400000000
000C00000000
000300000000
000300000000
0001C0000000
0001E0000000
0000F0000000
000070000000
000078000000
000038000000
00003C000000
00001C000000
00001E000000
00001E000000
00001E000000
00001E000000
00001F000000
00000F000000
00000F000000
00000F000000
00000F000000
00000F000000
00001F000000
00001E000000
00001E000000
00001E000000
00001C000000
00001C000000
00003C000000
000038000000
000078000000
000070000000
0000E0000000
0001E0000000
0001C0000000
000380000000
000700000000
000400000000
000000000000
000000000000
ENDCHAR

STARTCHAR cns1_2140
ENCODING 8512
SWIDTH 960 0
DWIDTH 42 0
BBX 42 42 0 -6
BITMAP
000000000000
000000000000
000000000000
000000000000
000000000000
000000000000
000000000000
000000000000
000000000000
000000000000
000000000000
000000000000
000000000000
000000000000
000000000000
000000000000
000000000000
000000000000
000000000000
000000000000
000000000000
000000000000
0001FFC00000
0007FFF00000
003FFFFC0000
007FFFFE0000
00FC003F8000
01E00007C000
03C00001E000
070000007000
0E0000003800
080000001800
000000000400
000000000000
000000000000
000000000000
000000000000
000000000000
000000000000
000000000000
000000000000
000000000000
ENDCHAR

STARTCHAR cns1_2141
ENCODING 8513
SWIDTH 960 0
DWIDTH 42 0
BBX 42 42 0 -6
BITMAP
000000000000
000000000000
000000000000
000000000000
000000000000
000000000000
000000000000
000000000000
100000000200
180000000600
0C0000000C00
060000003800
038000007000
01E00001E000
00F80007C000
007F807F8000
003FFFFF0000
001FFFFC0000
0003FFF00000
00003E000000
000000000000
000000000000
000000000000
000000000000
000000000000
000000000000
000000000000
000000000000
000000000000
000000000000
000000000000
000000000000
000000000000
000000000000
000000000000
000000000000
000000000000
000000000000
000000000000
000000000000
000000000000
000000000000
ENDCHAR

STARTCHAR cns1_2142
ENCODING 8514
SWIDTH 960 0
DWIDTH 42 0
BBX 42 42 0 -6
BITMAP
000000000000
000000030000
0000003F0000
000000780000
000000F00000
000001E00000
000001E00000
000001E00000
000001E00000
000001E00000
000001E00000
000001E00000
000001E00000
000001E00000
000001E00000
000003E00000
000003C00000
000007C00000
00000F800000
00001F000000
00003F000000
00003F000000
00001F800000
00000FC00000
000007C00000
000007E00000
000003E00000
000003E00000
000003E00000
000003E00000
000003E00000
000003E00000
000003E00000
000003E00000
000003E00000
000003E00000
000003E00000
000001F00000
000000F80000
0000007F0000
000000038000
000000000000
ENDCHAR

STARTCHAR cns1_2143
ENCODING 8515
SWIDTH 960 0
DWIDTH 42 0
BBX 42 42 0 -6
BITMAP
000000000000
001800000000
001F00000000
000380000000
0001C0000000
0000E0000000
0000E0000000
0000E0000000
0000E0000000
0000E0000000
0000E0000000
0000E0000000
0000E0000000
0000E0000000
0000E0000000
0000F0000000
0000F0000000
000078000000
00007C000000
00003E000000
00003F000000
00003F000000
00003E000000
00007C000000
0000F8000000
0000F0000000
0000F0000000
0000F0000000
0000F0000000
0000F0000000
0000F0000000
0000F0000000
0000F0000000
0000F0000000
0000F0000000
0000F0000000
0000F0000000
0001E0000000
0003C0000000
001F80000000
003800000000
000000000000
ENDCHAR

STARTCHAR cns1_2144
ENCODING 8516
SWIDTH 960 0
DWIDTH 42 0
BBX 42 42 0 -6
BITMAP
000000000000
000000000000
000000000000
000000000000
000000000000
000000000000
000000000000
000000000000
000000000000
000000000000
000000000000
000000000000
000000000000
000000000000
000000000000
000000000000
000000000000
000000000000
00001C000000
00003C000000
00003E000000
00007F000000
03FFFFFFE000
0FFFE7FFF800
1FFFE3FFFC00
1FFFC1FFFE00
3C0000001E00
380000000F00
700000000700
400000000300
400000000100
200000000080
000000000000
000000000000
000000000000
000000000000
000000000000
000000000000
000000000000
000000000000
000000000000
000000000000
ENDCHAR

STARTCHAR cns1_2145
ENCODING 8517
SWIDTH 960 0
DWIDTH 42 0
BBX 42 42 0 -6
BITMAP
000000000000
000000000000
000000000000
000000000000
000000000000
000000000000
000000000000
000000000000
000000000000
000000000000
200000000080
400000000100
600000000300
600000000700
300000000E00
3C0000001E00
1FFFC1FFFC00
0FFFE3FFF800
07FFFFFFF000
00007F000000
00007E000000
00003C000000
00001C000000
000000000000
000000000000
000000000000
000000000000
000000000000
000000000000
000000000000
000000000000
000000000000
000000000000
000000000000
000000000000
000000000000
000000000000
000000000000
000000000000
000000000000
000000000000
000000000000
ENDCHAR

STARTCHAR cns1_2146
ENCODING 8518
SWIDTH 960 0
DWIDTH 42 0
BBX 42 42 0 -6
BITMAP
000000000000
000000000000
000000070000
0000001F0000
0000007E0000
000000F80000
000003E00000
000007C00000
000007000000
000007000000
000007000000
000007000000
000007000000
000007000000
000007000000
000007000000
000007000000
000007000000
000007000000
000007000000
000007000000
000007000000
000007000000
000007000000
000007000000
000007000000
000007000000
000007000000
000007000000
000007000000
000007000000
000007000000
000007000000
000007000000
000007800000
000007E00000
000001F80000
0000007C0000
0000001F0000
000000070000
000000000000
000000000000
ENDCHAR

STARTCHAR cns1_2147
ENCODING 8519
SWIDTH 960 0
DWIDTH 42 0
BBX 42 42 0 -6
BITMAP
000000000000
000000000000
003800000000
003E00000000
001F80000000
0007C0000000
0001F0000000
0000F8000000
000038000000
000038000000
000038000000
000038000000
000038000000
000038000000
000038000000
000038000000
000038000000
000038000000
000038000000
000038000000
000038000000
000038000000
000038000000
000038000000
000038000000
000038000000
000038000000
000038000000
000038000000
000038000000
000038000000
000038000000
000038000000
000038000000
000078000000
0001F8000000
0007E0000000
000F80000000
001E00000000
003800000000
000000000000
000000000000
ENDCHAR

STARTCHAR cns1_2148
ENCODING 8520
SWIDTH 960 0
DWIDTH 42 0
BBX 42 42 0 -6
BITMAP
000000000000
000000000000
000000000000
000000000000
000000000000
000000000000
000000000000
000000000000
000000000000
000000000000
000000000000
000000000000
000000000000
000000000000
000000000000
000000000000
000000000000
000000000000
000000000000
000000000000
000000000000
000000000000
000000000000
03FFFFFFC000
07FFFFFFE000
070000006000
0E0000007000
0E0000003000
1C0000003800
1C0000001800
380000001C00
380000000E00
700000000E00
200000000400
000000000000
000000000000
000000000000
000000000000
000000000000
000000000000
000000000000
000000000000
ENDCHAR

STARTCHAR cns1_2149
ENCODING 8521
SWIDTH 960 0
DWIDTH 42 0
BBX 42 42 0 -6
BITMAP
000000000000
000000000000
000000000000
000000000000
000000000000
000000000000
000000000000
380000000600
180000000F00
1C0000000E00
0C0000001C00
0E0000001C00
070000001800
070000003800
038000003000
03FFFFFFF000
01FFFFFFF000
01FFFFFFE000
000000000000
000000000000
000000000000
000000000000
000000000000
000000000000
000000000000
000000000000
000000000000
000000000000
000000000000
000000000000
000000000000
000000000000
000000000000
000000000000
000000000000
000000000000
000000000000
000000000000
000000000000
000000000000
000000000000
000000000000
ENDCHAR

STARTCHAR cns1_214A
ENCODING 8522
SWIDTH 960 0
DWIDTH 42 0
BBX 42 42 0 -6
BITMAP
000000000000
000000000000
000003FF0000
000003FE0000
000003FE0000
000003FC0000
000003FC0000
000003F80000
000003F80000
000003F00000
000003F00000
000003F00000
000003E00000
000003E00000
000003E00000
000003E00000
000003E00000
000003E00000
000003C00000
000003C00000
000003C00000
000003C00000
000003C00000
000003C00000
000003C00000
000003C00000
000003E00000
000003E00000
000003E00000
000003E00000
000003E00000
000003F00000
000003F00000
000003F00000
000003F80000
000003F80000
000003FC0000
000003FC0000
000003FE0000
000003FE0000
000000000000
000000000000
ENDCHAR

STARTCHAR cns1_214B
ENCODING 8523
SWIDTH 960 0
DWIDTH 42 0
BBX 42 42 0 -6
BITMAP
000000000000
003FF8000000
001FF8000000
000FF8000000
000FF8000000
0007F8000000
0007F8000000
0003F8000000
0003F8000000
0001F8000000
0001F8000000
0001F8000000
0000F8000000
0000F8000000
0000F8000000
0000F8000000
0000F8000000
0000F8000000
000078000000
000078000000
000078000000
000078000000
000078000000
000078000000
000078000000
0000F8000000
0000F8000000
0000F8000000
0000F8000000
0000F8000000
0000F8000000
0000F8000000
0001F8000000
0001F8000000
0003F8000000
0003F8000000
0007F8000000
0007F8000000
000FF8000000
001FF8000000
001000000000
000000000000
ENDCHAR

STARTCHAR cns1_214C
ENCODING 8524
SWIDTH 960 0
DWIDTH 42 0
BBX 42 42 0 -6
BITMAP
000000000000
000000000000
000000000000
000000000000
000000000000
000000000000
000000000000
000000000000
000000000000
000000000000
000000000000
000000000000
000000000000
000000000000
000000000000
000000000000
000000000000
000000000000
000000000000
3FFFFFFFFF00
3FFFFFFFFF00
3FFFFFFFFF00
3FFFFFFFFF00
3FFFE3FFFF00
3FFE001FFF00
3FC00000FF00
3F0000003F00
3E0000000F00
380000000300
200000000100
000000000000
000000000000
000000000000
000000000000
000000000000
000000000000
000000000000
000000000000
000000000000
000000000000
000000000000
000000000000
ENDCHAR

STARTCHAR cns1_214D
ENCODING 8525
SWIDTH 960 0
DWIDTH 42 0
BBX 42 42 0 -6
BITMAP
000000000000
000000000000
000000000000
000000000000
000000000000
000000000000
000000000000
000000000000
000000000000
000000000000
000000000000
000000000000
200000000100
300000000700
3C0000001F00
3F0000007F00
3FE00001FF00
3FFE001FFF00
3FFFFFFFFF00
3FFFFFFFFF00
3FFFFFFFFF00
3FFFFFFFFF00
000000000000
000000000000
000000000000
000000000000
000000000000
000000000000
000000000000
000000000000
000000000000
000000000000
000000000000
000000000000
000000000000
000000000000
000000000000
000000000000
000000000000
000000000000
000000000000
000000000000
ENDCHAR

STARTCHAR cns1_214E
ENCODING 8526
SWIDTH 960 0
DWIDTH 42 0
BBX 42 42 0 -6
BITMAP
000000000000
000000000000
000000046000
000000046000
00000008C000
00000008C000
000000118000
000000118000
000000230000
000000230000
000000460000
000000460000
0000008C0000
0000008C0000
000001180000
000001180000
000002300000
000002300000
000004600000
000004400000
000008C00000
000008C00000
00000C600000
000004600000
000002300000
000002380000
000001180000
0000011C0000
0000008C0000
000000C60000
000000460000
000000230000
000000230000
000000118000
00000011C000
00000008C000
0000000CE000
000000046000
000000063000
000000023000
000000000000
000000000000
ENDCHAR

STARTCHAR cns1_214F
ENCODING 8527
SWIDTH 960 0
DWIDTH 42 0
BBX 42 42 0 -6
BITMAP
000000000000
000000000000
023000000000
011000000000
011800000000
008800000000
008C00000000
004400000000
004600000000
002200000000
002300000000
001180000000
001180000000
0008C0000000
0008C0000000
000460000000
000460000000
000230000000
000338000000
000118000000
000118000000
000118000000
000230000000
000230000000
000460000000
000460000000
0008C0000000
0008C0000000
001180000000
001180000000
002300000000
002300000000
004600000000
004600000000
008C00000000
008C00000000
011800000000
011800000000
023000000000
023000000000
000000000000
000000000000
ENDCHAR

STARTCHAR cns1_2150
ENCODING 8528
SWIDTH 960 0
DWIDTH 42 0
BBX 42 42 0 -6
BITMAP
000000000000
000000000000
000000000000
000000000000
000000000000
000000000000
000000000000
000000000000
000000000000
000000000000
000000000000
000000000000
000000000000
000000000000
000000000000
000000000000
000000000000
00001C000000
000023000000
0000C0C00000
000100600000
00061C180000
00083F0C0000
0030E1830000
004180E0C000
018700306000
020C001C1800
0C3800070600
106000018200
01C00000E000
030000003800
0E0000000C00
180000000600
100000000000
000000000000
000000000000
000000000000
000000000000
000000000000
000000000000
000000000000
000000000000
ENDCHAR

STARTCHAR cns1_2151
ENCODING 8529
SWIDTH 960 0
DWIDTH 42 0
BBX 42 42 0 -6
BITMAP
000000000000
000000000000
000000000000
000000000000
000000000000
000000000000
000000000000
000000000000
000000000000
000000000600
380000001800
060000002000
01000000C000
00C000010600
383000061C00
0E0C00083800
03020010E000
01C18061C000
007060870000
001C030E0000
000E0C380000
000380600000
0000E1C00000
000033000000
00001E000000
000000000000
000000000000
000000000000
000000000000
000000000000
000000000000
000000000000
000000000000
000000000000
000000000000
000000000000
000000000000
000000000000
000000000000
000000000000
000000000000
000000000000
ENDCHAR

STARTCHAR cns1_2152
ENCODING 8530
SWIDTH 960 0
DWIDTH 42 0
BBX 42 42 0 -6
BITMAP
000000000000
000000000000
0000001C0000
0000003C0000
000000380000
000000780000
000000700000
000000F00000
000000E00000
000001E00000
000001E00000
000001C00000
000003C00000
000003800000
000007800000
000007000000
00000F000000
00000E000000
00000E000000
00001E000000
00001E000000
00001F000000
00000F000000
000007000000
000007800000
000007800000
000003C00000
000003C00000
000001E00000
000001E00000
000000E00000
000000F00000
000000700000
000000780000
000000780000
0000003C0000
0000003C0000
0000001E0000
0000001E0000
0000000E0000
0000000C0000
000000000000
ENDCHAR

STARTCHAR cns1_2153
ENCODING 8531
SWIDTH 960 0
DWIDTH 42 0
BBX 42 42 0 -6
BITMAP
000000000000
000000000000
000600000000
001F00000000
000700000000
000780000000
000380000000
0003C0000000
0001C0000000
0001E0000000
0001E0000000
0000E0000000
0000F0000000
000070000000
000078000000
000038000000
00003C000000
00003C000000
00001C000000
00001E000000
00001E000000
00001E000000
00003C000000
00003C000000
000078000000
000078000000
0000F0000000
0000F0000000
0000E0000000
0001E0000000
0001C0000000
0003C0000000
000380000000
000780000000
000700000000
000700000000
000E00000000
000E00000000
001C00000000
000C00000000
000000000000
000000000000
ENDCHAR

STARTCHAR cns1_2154
ENCODING 8532
SWIDTH 960 0
DWIDTH 42 0
BBX 42 42 0 -6
BITMAP
000000000000
000000000000
000000000000
000000000000
000000000000
000000000000
000000000000
000000000000
000000000000
000000000000
000000000000
000000000000
000000000000
000000000000
000000000000
000000000000
000000000000
000000000000
000000000000
000000000000
00003C000000
00007E000000
0001FF800000
0003C7E00000
000FC3F00000
001F00F80000
007E003F0000
01F8001FC000
07E0000FF000
1F800001FC00
3F0000007F00
3C0000001F00
300000000200
000000000000
000000000000
000000000000
000000000000
000000000000
000000000000
000000000000
000000000000
000000000000
ENDCHAR

STARTCHAR cns1_2155
ENCODING 8533
SWIDTH 960 0
DWIDTH 42 0
BBX 42 42 0 -6
BITMAP
000000000000
000000000000
000000000000
000000000000
000000000000
000000000000
000000000000
000000000000
000000000000
000000000000
000000000000
3C0000000F00
3F0000003F00
1F800000FE00
07E00003F800
01F80007E000
007E001F8000
003F007E0000
000FC1F80000
0003E3F00000
0000FFC00000
00007F000000
00003E000000
000004000000
000000000000
000000000000
000000000000
000000000000
000000000000
000000000000
000000000000
000000000000
000000000000
000000000000
000000000000
000000000000
000000000000
000000000000
000000000000
000000000000
000000000000
000000000000
ENDCHAR

STARTCHAR cns1_2156
ENCODING 8534
SWIDTH 960 0
DWIDTH 42 0
BBX 42 42 0 -6
BITMAP
000000000000
000007FF8000
000007FFC000
000007FF8000
000007000000
000007000000
000007000000
000007000000
000007000000
000007000000
000007000000
000007000000
000007000000
000007000000
000007000000
000007000000
000007000000
000007000000
000007000000
000007000000
000007000000
000007000000
000000000000
000000000000
000000000000
000000000000
000000000000
000000000000
000000000000
000000000000
000000000000
000000000000
000000000000
000000000000
000000000000
000000000000
000000000000
000000000000
000000000000
000000000000
000000000000
000000000000
ENDCHAR

STARTCHAR cns1_2157
ENCODING 8535
SWIDTH 960 0
DWIDTH 42 0
BBX 42 42 0 -6
BITMAP
000000000000
000000000000
000000000000
000000000000
000000000000
000000000000
000000000000
000000000000
000000000000
000000000000
000000000000
000000000000
000000000000
000000000000
000000000000
000000000000
000000000000
000000000000
000000000000
000000000000
000038000000
000038000000
000038000000
000038000000
000038000000
000038000000
000038000000
000038000000
000038000000
000038000000
000038000000
000038000000
000038000000
000038000000
000038000000
000038000000
000038000000
000038000000
007FF8000000
00FFF8000000
007FF8000000
000000000000
ENDCHAR

STARTCHAR cns1_2158
ENCODING 8536
SWIDTH 960 0
DWIDTH 42 0
BBX 42 42 0 -6
BITMAP
000000000000
000000000000
000000000000
000000000000
000000000000
000000000000
000000000000
000000000000
000000000000
000000000000
000000000000
000000000000
000000000000
000000000000
000000000000
000000000000
000000000000
0FFFFFFFFE00
0FFFFFFFFE00
0FFFFFFFFE00
000000000E00
000000000E00
000000000E00
000000000E00
000000000E00
000000000E00
000000000E00
000000000E00
000000000E00
000000000E00
000000000E00
000000000000
000000000000
000000000000
000000000000
000000000000
000000000000
000000000000
000000000000
000000000000
000000000000
000000000000
ENDCHAR

STARTCHAR cns1_2159
ENCODING 8537
SWIDTH 960 0
DWIDTH 42 0
BBX 42 42 0 -6
BITMAP
000000000000
000000000000
000000000000
000000000000
000000000000
000000000000
000000000000
000000000000
000000000000
000000000000
000000000000
1C0000000000
1C0000000000
1C0000000000
1C0000000000
1C0000000000
1C0000000000
1C0000000000
1C0000000000
1C0000000000
1C0000000000
1C0000000000
1FFFFFFFFC00
1FFFFFFFFC00
1FFFFFFFFC00
000000000000
000000000000
000000000000
000000000000
000000000000
000000000000
000000000000
000000000000
000000000000
000000000000
000000000000
000000000000
000000000000
000000000000
000000000000
000000000000
000000000000
ENDCHAR

STARTCHAR cns1_215A
ENCODING 8538
SWIDTH 960 0
DWIDTH 42 0
BBX 42 42 0 -6
BITMAP
000000000000
000000000000
00000FFF0000
000008030000
000008030000
000008030000
000009FF0000
000009800000
000009800000
000009800000
000009800000
000009800000
000009800000
000009800000
000009800000
000009800000
000009800000
000009800000
000009800000
000009800000
000009800000
000009800000
000009800000
000009800000
000009800000
000009800000
000009800000
000009800000
000009800000
000009800000
000009800000
000009800000
000009800000
000009800000
000009800000
000009800000
000009800000
00000F800000
00000F800000
000000000000
000000000000
000000000000
ENDCHAR

STARTCHAR cns1_215B
ENCODING 8539
SWIDTH 960 0
DWIDTH 42 0
BBX 42 42 0 -6
BITMAP
000000000000
000000000000
000000000000
000000000000
00007C000000
00004C000000
00004C000000
00004C000000
00004C000000
00004C000000
00004C000000
00004C000000
00004C000000
00004C000000
00004C000000
00004C000000
00004C000000
00004C000000
00004C000000
00004C000000
00004C000000
00004C000000
00004C000000
00004C000000
00004C000000
00004C000000
00004C000000
00004C000000
00004C000000
00004C000000
00004C000000
00004C000000
00004C000000
00004C000000
00004C000000
003F8C000000
00300C000000
00300C000000
00300C000000
003FFC000000
000000000000
000000000000
ENDCHAR

STARTCHAR cns1_215C
ENCODING 8540
SWIDTH 960 0
DWIDTH 42 0
BBX 42 42 0 -6
BITMAP
000000000000
000000000000
000000000000
000000000000
000000000000
000000000000
000000000000
000000000000
000000000000
000000000000
000000000000
000000000000
000000000000
000000000000
000000000000
000000000000
000000000000
000000000000
000000000000
000000000000
0FFFFFFFFF00
0C0000000300
0C0000000300
0C0000000300
0FFFFFFFE300
000000001300
000000001300
000000001300
000000001300
000000001300
000000001300
000000001F00
000000000000
000000000000
000000000000
000000000000
000000000000
000000000000
000000000000
000000000000
000000000000
000000000000
ENDCHAR

STARTCHAR cns1_215D
ENCODING 8541
SWIDTH 960 0
DWIDTH 42 0
BBX 42 42 0 -6
BITMAP
000000000000
000000000000
000000000000
000000000000
000000000000
000000000000
000000000000
000000000000
000000000000
000000000000
000000000000
3C0000000000
240000000000
240000000000
240000000000
240000000000
240000000000
240000000000
240000000000
23FFFFFFF800
200000000800
200000000800
3FFFFFFFF800
000000000000
000000000000
000000000000
000000000000
000000000000
000000000000
000000000000
000000000000
000000000000
000000000000
000000000000
000000000000
000000000000
000000000000
000000000000
000000000000
000000000000
000000000000
000000000000
ENDCHAR

STARTCHAR cns1_215E
ENCODING 8542
SWIDTH 960 0
DWIDTH 42 0
BBX 42 42 0 -6
BITMAP
000000000000
000000000000
000000000000
000000000000
000000000000
000000000000
000000000000
000000000000
000000000000
0000001C0000
0000003C0000
000000780000
000000F00000
000001E00000
000001E00000
000003C00000
000003C00000
000003800000
000007800000
000007800000
000007800000
000007800000
000007800000
000007800000
000007800000
000003800000
000003C00000
000003C00000
000001C00000
000001E00000
000000F00000
000000780000
0000003C0000
000000180000
000000000000
000000000000
000000000000
000000000000
000000000000
000000000000
000000000000
000000000000
ENDCHAR

STARTCHAR cns1_215F
ENCODING 8543
SWIDTH 960 0
DWIDTH 42 0
BBX 42 42 0 -6
BITMAP
000000000000
000000000000
000000000000
000000000000
000000000000
000000000000
000000000000
000000000000
000000000000
000E00000000
000F00000000
000780000000
000380000000
0001C0000000
0001E0000000
0000F0000000
0000F0000000
000070000000
000078000000
000078000000
000078000000
000078000000
000078000000
000078000000
000078000000
000070000000
0000F0000000
0000F0000000
0001E0000000
0001C0000000
0003C0000000
000780000000
000F00000000
000600000000
000000000000
000000000000
000000000000
000000000000
000000000000
000000000000
000000000000
000000000000
ENDCHAR

STARTCHAR cns1_2160
ENCODING 8544
SWIDTH 960 0
DWIDTH 42 0
BBX 42 42 0 -6
BITMAP
000000000000
000000000000
000000000000
000000000000
000000000000
000000000000
000000000000
000000000000
0000007C0000
000000E00000
000000E00000
000000E00000
000000E00000
000000E00000
000000E00000
000000E00000
000000E00000
000000E00000
000000E00000
000001C00000
000003C00000
000003C00000
000001E00000
000000E00000
000000E00000
000000E00000
000000E00000
000000E00000
000000E00000
000000E00000
000000E00000
000000E00000
000000E00000
0000007E0000
000000000000
000000000000
000000000000
000000000000
000000000000
000000000000
000000000000
000000000000
ENDCHAR

STARTCHAR cns1_2161
ENCODING 8545
SWIDTH 960 0
DWIDTH 42 0
BBX 42 42 0 -6
BITMAP
000000000000
000000000000
000000000000
000000000000
000000000000
000000000000
000000000000
000000000000
000F80000000
0001E0000000
0001E0000000
0001E0000000
0001E0000000
0001E0000000
0001E0000000
0001E0000000
0001E0000000
0001E0000000
0001E0000000
000070000000
000078000000
0000F8000000
0001F0000000
0001E0000000
0001E0000000
0001E0000000
0001E0000000
0001E0000000
0001E0000000
0001E0000000
0001E0000000
0001E0000000
0001E0000000
001FC0000000
000000000000
000000000000
000000000000
000000000000
000000000000
000000000000
000000000000
000000000000
ENDCHAR

STARTCHAR cns1_2162
ENCODING 8546
SWIDTH 960 0
DWIDTH 42 0
BBX 42 42 0 -6
BITMAP
000000000000
000000000000
000000000000
000000000000
000000000000
000000000000
000000000000
000000380000
000000780000
000000F00000
000001E00000
000003C00000
000003C00000
000003C00000
000003C00000
000003C00000
000003C00000
000003C00000
000003C00000
000003C00000
000003C00000
000003C00000
000003C00000
000003C00000
000003C00000
000003C00000
000003C00000
000003C00000
000003C00000
000003C00000
000003E00000
000001E00000
000000F00000
000000780000
000000300000
000000000000
000000000000
000000000000
000000000000
000000000000
000000000000
000000000000
ENDCHAR

STARTCHAR cns1_2163
ENCODING 8547
SWIDTH 960 0
DWIDTH 42 0
BBX 42 42 0 -6
BITMAP
000000000000
000000000000
000000000000
000000000000
000000000000
000000000000
000000000000
000700000000
000780000000
0003C0000000
0001E0000000
0000F0000000
0000F0000000
0000F0000000
0000F0000000
0000F0000000
0000F0000000
0000F0000000
0000F0000000
0000F0000000
0000F0000000
0000F0000000
0000F0000000
0000F0000000
0000F0000000
0000F0000000
0000F0000000
0000F0000000
0000F0000000
0000F0000000
0001F0000000
0001E0000000
0003C0000000
000780000000
000300000000
000000000000
000000000000
000000000000
000000000000
000000000000
000000000000
000000000000
ENDCHAR

STARTCHAR cns1_2164
ENCODING 8548
SWIDTH 960 0
DWIDTH 42 0
BBX 42 42 0 -6
BITMAP
000000000000
000000000000
000000000000
000000000000
000000E00000
000001800000
000003000000
000003000000
000007C00000
000007E00000
000007E00000
000007E00000
000003E00000
000000000000
000000000000
000000000000
000000000000
000000000000
000000000000
000000000000
000000000000
000000000000
000000000000
000000000000
000000000000
000000000000
000000000000
000000000000
000000000000
000000000000
000000000000
000000000000
000000000000
000000000000
000000000000
000000000000
000000000000
000000000000
000000000000
000000000000
000000000000
000000000000
ENDCHAR

STARTCHAR cns1_2165
ENCODING 8549
SWIDTH 960 0
DWIDTH 42 0
BBX 42 42 0 -6
BITMAP
000000000000
000000000000
000000000000
000000000000
0001F0000000
0003F0000000
0001F8000000
0001F8000000
000038000000
000030000000
000070000000
0000E0000000
0001C0000000
000000000000
000000000000
000000000000
000000000000
000000000000
000000000000
000000000000
000000000000
000000000000
000000000000
000000000000
000000000000
000000000000
000000000000
000000000000
000000000000
000000000000
000000000000
000000000000
000000000000
000000000000
000000000000
000000000000
000000000000
000000000000
000000000000
000000000000
000000000000
000000000000
ENDCHAR

STARTCHAR cns1_2166
ENCODING 8550
SWIDTH 960 0
DWIDTH 42 0
BBX 42 42 0 -6
BITMAP
000000000000
000000000000
000000000000
000003860000
000007180000
00000C180000
00001C380000
00001E3C0000
00001F3F0000
00001F3F0000
00001F3F0000
00001F1E0000
000007000000
000000000000
000000000000
000000000000
000000000000
000000000000
000000000000
000000000000
000000000000
000000000000
000000000000
000000000000
000000000000
000000000000
000000000000
000000000000
000000000000
000000000000
000000000000
000000000000
000000000000
000000000000
000000000000
000000000000
000000000000
000000000000
000000000000
000000000000
000000000000
000000000000
ENDCHAR

STARTCHAR cns1_2167
ENCODING 8551
SWIDTH 960 0
DWIDTH 42 0
BBX 42 42 0 -6
BITMAP
000000000000
000000000000
030F00000000
079F80000000
0F9F80000000
0F9F80000000
078B80000000
01C380000000
01C380000000
018700000000
038E00000000
061800000000
000000000000
000000000000
000000000000
000000000000
000000000000
000000000000
000000000000
000000000000
000000000000
000000000000
000000000000
000000000000
000000000000
000000000000
000000000000
000000000000
000000000000
000000000000
000000000000
000000000000
000000000000
000000000000
000000000000
000000000000
000000000000
000000000000
000000000000
000000000000
000000000000
000000000000
ENDCHAR

STARTCHAR cns1_2168
ENCODING 8552
SWIDTH 960 0
DWIDTH 42 0
BBX 42 42 0 -6
BITMAP
000000000000
000000000000
000000600000
000010F00000
000031F00000
00007C780000
00003C780000
00001E3C0000
00000E1C0000
00000F1E0000
0000070E0000
000003870000
000001830000
000000C18000
000000408000
000000600000
000000200000
000000000000
000000000000
000000000000
000000000000
000000000000
000000000000
000000000000
000000000000
000000000000
000000000000
000000000000
000000000000
000000000000
000000000000
000000000000
000000000000
000000000000
000000000000
000000000000
000000000000
000000000000
000000000000
000000000000
000000000000
000000000000
ENDCHAR

STARTCHAR cns1_2169
ENCODING 8553
SWIDTH 960 0
DWIDTH 42 0
BBX 42 42 0 -6
BITMAP
000000000000
000000000000
000080000000
0001E0000000
0003C7800000
0003C7800000
00078F000000
00070E000000
000E1E000000
000E1C000000
001C38000000
001830000000
003060000000
002060000000
0060C0000000
002080000000
000100000000
000000000000
000000000000
000000000000
000000000000
000000000000
000000000000
000000000000
000000000000
000000000000
000000000000
000000000000
000000000000
000000000000
000000000000
000000000000
000000000000
000000000000
000000000000
000000000000
000000000000
000000000000
000000000000
000000000000
000000000000
000000000000
ENDCHAR

STARTCHAR cns1_216A
ENCODING 8554
SWIDTH 960 0
DWIDTH 42 0
BBX 42 42 0 -6
BITMAP
000000000000
000000200000
000000F00000
000001F80000
000000FC0000
0000007E0000
0000001F8000
00000007E000
00000001F000
000000006000
000000000000
000000000000
000000000000
000000000000
000000000000
000000000000
000000000000
000000000000
000000000000
000000000000
000000000000
000000000000
000000000000
000000000000
000000000000
000000000000
000000000000
000000000000
000000000000
000000000000
000000000000
000000000000
000000000000
000000000000
000000000000
000000000000
000000000000
000000000000
000000000000
000000000000
000000000000
000000000000
ENDCHAR

STARTCHAR cns1_216B
ENCODING 8555
SWIDTH 960 0
DWIDTH 42 0
BBX 42 42 0 -6
BITMAP
000000000000
000100000000
0003C0000000
0007E0000000
000FE0000000
003F80000000
007C00000000
01F000000000
03C000000000
030000000000
000000000000
000000000000
000000000000
000000000000
000000000000
000000000000
000000000000
000000000000
000000000000
000000000000
000000000000
000000000000
000000000000
000000000000
000000000000
000000000000
000000000000
000000000000
000000000000
000000000000
000000000000
000000000000
000000000000
000000000000
000000000000
000000000000
000000000000
000000000000
000000000000
000000000000
000000000000
000000000000
ENDCHAR

STARTCHAR cns1_216C
ENCODING 8556
SWIDTH 960 0
DWIDTH 42 0
BBX 42 42 0 -6
BITMAP
000000000000
00003C01E000
00003803E000
00003803C000
00007803C000
00007803C000
000070078000
0000F0078000
0000F0078000
0000E0070000
0001E00F0000
0001E00F0000
0001C00E0000
0003C00E0000
0003C01E0000
3FFFFFFFFE00
3FF7FFFFFE00
0007003C0000
000700380000
000F00380000
000E00380000
000E00700000
001C00700000
001C00700000
3FFFFFFFFE00
3FBFFDFFFE00
003801E00000
007801C00000
007803C00000
007003C00000
00F003800000
00F003800000
01E007800000
01E007000000
01C007000000
03C00F000000
03C00E000000
03800E000000
07801E000000
07801E000000
000000000000
000000000000
ENDCHAR

STARTCHAR cns1_216D
ENCODING 8557
SWIDTH 960 0
DWIDTH 42 0
BBX 42 42 0 -6
BITMAP
000000000000
000000000000
000000000000
000000000000
000000000000
000000000000
0000FC000000
000187000000
000303800000
000703800000
000601800000
000E01800000
000E01800000
000E03800000
000F03000000
00070E000000
000318000000
0003E0000000
0003C07FE000
000FE01F8000
0011E00E0000
0030F0060000
0060F0060000
00E070040000
00C078040000
01C03C0C0000
01C03E080000
01C01E080000
01C00F100000
01C007100000
01E007E00000
01E001E00000
00F001E02000
007801F8C000
003E063F8000
000FF81E0000
000000000000
000000000000
000000000000
000000000000
000000000000
000000000000
ENDCHAR

STARTCHAR cns1_216E
ENCODING 8558
SWIDTH 960 0
DWIDTH 42 0
BBX 42 42 0 -6
BITMAP
000000000000
000000000000
000000000000
000000000000
000000000000
000000000000
000000000000
000000000000
000000000000
000000000000
000000000000
00001E000000
00001E000000
00001C000000
00000C000000
000F0C380000
000F0C7C0000
000F88FC0000
000F89F80000
00010A000000
00001C000000
00000C000000
0000FFC00000
0007C9F80000
000F88FC0000
000F8C7C0000
000F0C3C0000
00001C000000
00001E000000
00001E000000
00001E000000
000008000000
000000000000
000000000000
000000000000
000000000000
000000000000
000000000000
000000000000
000000000000
000000000000
000000000000
ENDCHAR

STARTCHAR cns1_216F
ENCODING 8559
SWIDTH 960 0
DWIDTH 42 0
BBX 42 42 0 -6
BITMAP
000000000000
000000000000
000000000000
000000000000
000000000000
030008007000
0F803E00F800
03C03F01F000
01E07F03E000
00F07F07C000
00787F0F8000
003C3F1F0000
001E1C3E0000
000F003C0000
000780780000
0003C0F00000
0003E1E00000
00C1E3C18000
03F0FF83E000
03F03E07F000
03F83E07F000
07F87F07F000
03F0FF87F000
03F0E3C3E000
00C1E1E08000
0003C0F00000
000780F80000
000F007C0000
001E003E0000
003C1E1F0000
00783F0F8000
00F03F07C000
01E07F03C000
03C07F01E000
07803F00F000
0F801E007800
030000003000
000000000000
000000000000
000000000000
000000000000
000000000000
ENDCHAR

STARTCHAR cns1_2170
ENCODING 8560
SWIDTH 960 0
DWIDTH 42 0
BBX 42 42 0 -6
BITMAP
000000000000
000000000000
00007F800000
0000FFC00000
0001E1E00000
0003C0E00000
000780F00000
000781E00000
000783E00000
000783E00000
000783C00000
0007C0000000
0003E0000000
0000F0000000
0000FC000000
0001FF000000
00071FC00000
000F03E00000
001E00F80000
001E007C0000
001E003C0000
001F003C0000
000F803C0000
0007E03C0000
0003F0780000
0000FFF00000
00003FC00000
00001FC00000
000007E00000
000001F00000
000000F00000
000000F00000
0001E0780000
0003E0780000
0003E0780000
0003E0780000
0003E0700000
0001E0E00000
0001E3C00000
00007F800000
00001E000000
000000000000
ENDCHAR

STARTCHAR cns1_2171
ENCODING 8561
SWIDTH 960 0
DWIDTH 42 0
BBX 42 42 0 -6
BITMAP
000000000000
000000000000
000000000000
000000000000
000000000000
000000000000
000000000000
000000000000
000000000000
000000000000
000000000000
000000000000
000000000000
000000000000
000000000000
000000000000
000000000000
0001F81F8000
0001FC1F8000
0001FC1F8000
0001FC1F8000
0001F81F8000
0001F83F8000
0003F83F0000
0003F03F0000
0003F03F0000
0007E07E0000
0007E07E0000
0007C07C0000
000FC0FC0000
000F80F80000
001F01F00000
003E01E00000
007C03C00000
00F803800000
00F007000000
00C002000000
000000000000
000000000000
000000000000
000000000000
000000000000
ENDCHAR

STARTCHAR cns1_2172
ENCODING 8562
SWIDTH 960 0
DWIDTH 42 0
BBX 42 42 0 -6
BITMAP
000000000000
000000000000
000000000000
000000000000
000000000000
0000FF800000
0003FFF00000
000F803C0000
001E001E0000
003800070000
007000038000
00E000018000
00C00000C000
01800000E000
018000006000
030000006000
030000003000
030000003000
060000003000
060000003800
060000003800
060000003800
060000003000
060000003000
030000003000
030000003000
030000003000
030000006000
018000006000
01C00000C000
00E00001C000
006000038000
003000070000
003C000E0000
000F003C0000
0007FFF80000
0001FFE00000
00003E000000
000000000000
000000000000
000000000000
000000000000
ENDCHAR

STARTCHAR cns1_2173
ENCODING 8563
SWIDTH 960 0
DWIDTH 42 0
BBX 42 42 0 -6
BITMAP
000000000000
000000000000
000000000000
00007E000000
0003FFC00000
001FFFF00000
003FFFFC0000
007FFFFE0000
00FFFFFE0000
01FFFFFF0000
03FFFFFF8000
03FFFFFFC000
07FFFFFFC000
07FFFFFFE000
0FFFFFFFE000
0FFFFFFFF000
0FFFFFFFF000
1FFFFFFFF000
1FFFFFFFF000
1FFFFFFFF000
1FFFFFFFF000
1FFFFFFFF000
1FFFFFFFF000
1FFFFFFFF000
1FFFFFFFF000
0FFFFFFFF000
0FFFFFFFF000
0FFFFFFFE000
07FFFFFFE000
07FFFFFFC000
07FFFFFFC000
03FFFFFF8000
01FFFFFF0000
00FFFFFF0000
007FFFFE0000
003FFFF80000
001FFFF00000
0007FFC00000
00007E000000
000000000000
000000000000
000000000000
ENDCHAR

STARTCHAR cns1_2174
ENCODING 8564
SWIDTH 960 0
DWIDTH 42 0
BBX 42 42 0 -6
BITMAP
000000000000
000000000000
000000000000
000000000000
00001F800000
00003F800000
00003F800000
00007FC00000
00007FC00000
0000FFE00000
0000C1E00000
0001C0F00000
000180F00000
000380780000
000300780000
000700780000
0007003C0000
000E003C0000
000E001E0000
001C001E0000
001C000F0000
0038000F0000
003800070000
007800078000
007000078000
00F00003C000
00E00003C000
01E00001E000
01C00001E000
03C00000F000
03800000F000
07800000F000
078000007800
0F0000003800
0E0000003C00
1E0000003C00
1FFFFFFFFC00
1FFFFFFFFC00
000000000000
000000000000
000000000000
000000000000
ENDCHAR

STARTCHAR cns1_2175
ENCODING 8565
SWIDTH 960 0
DWIDTH 42 0
BBX 42 42 0 -6
BITMAP
000000000000
000000000000
000000000000
000038000000
000038000000
00003C000000
00007C000000
00007E000000
0000FE000000
0000FF000000
0001FF000000
0001FF800000
0003FF800000
0003FFC00000
0003FFC00000
0007FFE00000
0007FFE00000
000FFFF00000
000FFFF00000
001FFFF80000
001FFFF80000
001FFFFC0000
003FFFFC0000
003FFFFE0000
007FFFFE0000
007FFFFF0000
00FFFFFF0000
00FFFFFF8000
01FFFFFF8000
01FFFFFFC000
01FFFFFFC000
03FFFFFFE000
03FFFFFFE000
07FFFFFFF000
07FFFFFFF000
0FFFFFFFF800
0FFFFFFFF800
0FFFFFFFFC00
1FFFFFFFFC00
000000000200
000000000000
000000000000
ENDCHAR

STARTCHAR cns1_2176
ENCODING 8566
SWIDTH 960 0
DWIDTH 42 0
BBX 42 42 0 -6
BITMAP
000000000000
000000000000
000000000000
000000000000
00007F800000
000380F00000
000C000C0000
001000060000
006000018000
00C01E00C000
0180E1C04000
010300302000
020600183000
020800041000
041000020800
041000020800
082000010C00
082000010400
084000018400
084000008400
084000008400
084000008400
084000008400
084000008400
086000010400
082000010400
082000010C00
041000020800
041000060800
060800041800
020400181000
030300302000
0180C0C06000
00C03F00C000
006000018000
003000030000
000C000C0000
000300700000
0000FFC00000
000000000000
000000000000
000000000000
ENDCHAR

STARTCHAR cns1_2177
ENCODING 8567
SWIDTH 960 0
DWIDTH 42 0
BBX 42 42 0 -6
BITMAP
000000000000
000000000000
000018000000
00003C000000
00003C000000
00007C000000
00007E000000
00007E000000
0000FF000000
0000CF000000
0001C7000000
0001C7800000
0001C3800000
0003C3800000
000383C00000
000381C00000
1FFF81FFFE00
3E7F01FE7E00
1E0000007800
07000000F000
03800001C000
01E000078000
00F0001E0000
007C003C0000
001E00F00000
001E00700000
001C00700000
003C18780000
003C3C380000
00387E380000
0038FF1C0000
0071C71C0000
0073C39C0000
007F81FE0000
007F00FE0000
00FC003F0000
00F8001F0000
00F0000F0000
00E000078000
01C000030000
000000000000
000000000000
ENDCHAR

STARTCHAR cns1_2178
ENCODING 8568
SWIDTH 960 0
DWIDTH 42 0
BBX 42 42 0 -6
BITMAP
000000000000
000000000000
000018000000
00003C000000
00003C000000
00007C000000
00007E000000
00007E000000
0000FF000000
0000FF000000
0001FF000000
0001FF800000
0001FF800000
0003FF800000
0003FFC00000
0003FFC00000
1FFFFFFFFE00
3FFFFFFFFC00
0FFFFFFFF800
07FFFFFFE000
03FFFFFFC000
01FFFFFF0000
00FFFFFE0000
003FFFFC0000
001FFFF00000
001FFFF00000
001FFFF00000
003FFFF80000
003FFFF80000
003FFFF80000
003FFFFC0000
007FC7FC0000
007FC3FC0000
007F81FE0000
007E007E0000
00FC003F0000
00F8001F0000
00F0000F0000
00E000078000
01C000030000
000000000000
000000000000
ENDCHAR

STARTCHAR cns1_2179
ENCODING 8569
SWIDTH 960 0
DWIDTH 42 0
BBX 42 42 0 -6
BITMAP
000000000000
000000000000
00001C000000
00001E000000
00003F000000
00007F800000
0000E3C00000
0001E1E00000
0003C0F00000
000780780000
000F003C0000
001E001E0000
003C000F0000
007800078000
00F00003C000
01E00001E000
03C00000F000
078000007800
0F0000001C00
0C0000000E00
1C0000000F00
1C0000003C00
0E0000007800
07000000F000
03800001E000
01C00003C000
00E00003C000
007000078000
0038000F0000
001C001E0000
000E003C0000
000700780000
000380F00000
0001C1E00000
0000E3C00000
000067800000
00003F000000
00003E000000
00001C000000
000008000000
000000000000
000000000000
ENDCHAR

STARTCHAR cns1_217A
ENCODING 8570
SWIDTH 960 0
DWIDTH 42 0
BBX 42 42 0 -6
BITMAP
000000000000
000000000000
00001C000000
00003E000000
00007F000000
0000FF800000
0001FFC00000
0003FFE00000
0007FFF00000
0007FFF80000
000FFFFC0000
001FFFFE0000
003FFFFF0000
007FFFFF8000
00FFFFFFC000
01FFFFFFE000
03FFFFFFF000
07FFFFFFF000
0FFFFFFFF800
1FFFFFFFFC00
3FFFFFFFFE00
1FFFFFFFFE00
0FFFFFFFFC00
07FFFFFFF800
03FFFFFFF000
01FFFFFFE000
00FFFFFFC000
007FFFFF8000
007FFFFF0000
003FFFFE0000
001FFFFC0000
000FFFF80000
0007FFF00000
0003FFE00000
0001FFC00000
0000FF800000
00007F000000
00003F000000
00001E000000
00000C000000
000000000000
000000000000
ENDCHAR

STARTCHAR cns1_217B
ENCODING 8571
SWIDTH 960 0
DWIDTH 42 0
BBX 42 42 0 -6
BITMAP
000000000000
000000000000
000000000000
000000000000
0FFFFFFFFC00
0FFFFFFFFC00
0E0000001C00
0E0000001C00
0E0000001C00
0E0000001C00
0E0000001C00
0E0000001C00
0E0000001C00
0E0000001C00
0E0000001C00
0E0000001C00
0E0000001C00
0E0000001C00
0E0000001C00
0E0000001C00
0E0000001C00
0E0000001C00
0E0000001C00
0E0000001C00
0E0000001C00
0E0000001C00
0E0000001C00
0E0000001C00
0E0000001C00
0E0000001C00
0E0000001C00
0E0000001C00
0E0000001C00
0E0000001C00
0E0000001C00
0E0000001C00
0FFFFFFFFC00
0FFFFFFFFC00
000000000000
000000000000
000000000000
000000000000
ENDCHAR

STARTCHAR cns1_217C
ENCODING 8572
SWIDTH 960 0
DWIDTH 42 0
BBX 42 42 0 -6
BITMAP
000000000000
000000000000
000000000000
000000000000
0FFFFFFFFC00
0FFFFFFFFC00
0FFFFFFFFC00
0FFFFFFFFC00
0FFFFFFFFC00
0FFFFFFFFC00
0FFFFFFFFC00
0FFFFFFFFC00
0FFFFFFFFC00
0FFFFFFFFC00
0FFFFFFFFC00
0FFFFFFFFC00
0FFFFFFFFC00
0FFFFFFFFC00
0FFFFFFFFC00
0FFFFFFFFC00
0FFFFFFFFC00
0FFFFFFFFC00
0FFFFFFFFC00
0FFFFFFFFC00
0FFFFFFFFC00
0FFFFFFFFC00
0FFFFFFFFC00
0FFFFFFFFC00
0FFFFFFFFC00
0FFFFFFFFC00
0FFFFFFFFC00
0FFFFFFFFC00
0FFFFFFFFC00
0FFFFFFFFC00
0FFFFFFFFC00
0FFFFFFFFC00
0FFFFFFFFC00
0FFFFFFFFC00
000000000000
000000000000
000000000000
000000000000
ENDCHAR

STARTCHAR cns1_217D
ENCODING 8573
SWIDTH 960 0
DWIDTH 42 0
BBX 42 42 0 -6
BITMAP
000000000000
000000000000
000000000000
1FFFFFFFFC00
1FFFFFFFFC00
1FFFFFFF7E00
1F8000007C00
0F8000007C00
0F800000F800
07C00000F800
07C00001F000
03E00001F000
03E00001E000
01F00003E000
01F00003C000
00F00007C000
00F800078000
0078000F8000
007C000F0000
003C001F0000
003E001E0000
001E001E0000
001F003C0000
000F003C0000
000F00780000
000780780000
000780F00000
0003C0F00000
0003C0E00000
0001E1E00000
0001E1C00000
0000E3C00000
0000FF800000
00007F800000
00007F000000
00003F000000
00003E000000
00001E000000
000000000000
000000000000
000000000000
000000000000
ENDCHAR

STARTCHAR cns1_217E
ENCODING 8574
SWIDTH 960 0
DWIDTH 42 0
BBX 42 42 0 -6
BITMAP
000000000000
000000000000
000000000000
07FFFFFFFE00
07FFFFFFFC00
03FFFFFFF800
03FFFFFFF800
01FFFFFFF000
01FFFFFFF000
00FFFFFFE000
00FFFFFFE000
00FFFFFFC000
007FFFFFC000
007FFFFF8000
003FFFFF8000
003FFFFF0000
001FFFFF0000
001FFFFE0000
000FFFFE0000
000FFFFC0000
000FFFFC0000
0007FFF80000
0007FFF80000
0003FFF00000
0003FFF00000
0001FFE00000
0001FFE00000
0001FFC00000
0000FFC00000
0000FF800000
00007F800000
00007F000000
00003F000000
00003E000000
00001E000000
00001C000000
00001C000000
000008000000
000008000000
000000000000
000000000000
000000000000
ENDCHAR

STARTCHAR cns1_2221
ENCODING 8737
SWIDTH 960 0
DWIDTH 42 0
BBX 42 42 0 -6
BITMAP
000000000000
000000000000
000000000000
000000000000
0001FFE00000
0007FFF80000
001FFFFE0000
003FC0FF0000
00FC001FC000
00F00003E000
01E00003E000
03C00001F000
078FFFF8F800
07800E007800
0F000E003C00
0F000E003C00
0E000E003C00
1E000E001E00
1E060E001E00
1C060E001E00
1C060E001E00
1C060FF81E00
1C060E001E00
1E060E001E00
1E060E001E00
1E060E001C00
0F060E003C00
0F060E003C00
063FFFFFF800
07800000F800
03C00001F000
03E00003E000
01F00007E000
00FC000FC000
007F807F8000
003FFFFE0000
000FFFFC0000
0003FFF00000
00007F800000
000000000000
000000000000
000000000000
ENDCHAR

STARTCHAR cns1_2222
ENCODING 8738
SWIDTH 960 0
DWIDTH 42 0
BBX 42 42 0 -6
BITMAP
000000000000
000000000000
000000001E00
001F80003C00
01FFE0007800
0383E000F000
0700E000F000
0E002001E000
1C000003C000
1C0000078000
3800000F0000
3800001E0000
3800003C0000
700000780000
700000F00000
700001E00000
700003C00000
700207800000
30070F000000
380F1E000000
1E3E3C038000
0FFC781FF000
07F07838F800
0000F0703C00
0001E0E03C00
0003C1C01C00
000783C01E00
000F03C01E00
001E03801E00
003C07801E00
007807801E00
00F007801E00
01E007803C00
03C007803C00
078007807800
0F0003C07800
1E0003E0F000
3C0001E3E000
7C0000FF8000
1800003E0000
000000000000
000000000000
ENDCHAR

STARTCHAR cns1_2223
ENCODING 8739
SWIDTH 960 0
DWIDTH 42 0
BBX 42 42 0 -6
BITMAP
000000000000
000000000000
1FFFFFFFFC00
000000000000
000000000000
000000000000
000000000000
000000000000
000000000000
000000000000
000000000000
000000000000
000000000000
000000000000
000000000000
000000000000
000000000000
000000000000
000000000000
000000000000
000000000000
000000000000
000000000000
000000000000
000000000000
000000000000
000000000000
000000000000
000000000000
000000000000
000000000000
000000000000
000000000000
000000000000
000000000000
000000000000
000000000000
000000000000
000000000000
000000000000
000000000000
000000000000
ENDCHAR

STARTCHAR cns1_2224
ENCODING 8740
SWIDTH 960 0
DWIDTH 42 0
BBX 42 42 0 -6
BITMAP
000000000000
000000000000
7FFFFFFFFF00
7FFFFFFFFF00
7FFFFFFFFF00
000000000000
000000000000
000000000000
000000000000
000000000000
000000000000
000000000000
000000000000
000000000000
000000000000
000000000000
000000000000
000000000000
000000000000
000000000000
000000000000
000000000000
000000000000
000000000000
000000000000
000000000000
000000000000
000000000000
000000000000
000000000000
000000000000
000000000000
000000000000
000000000000
000000000000
000000000000
000000000000
000000000000
000000000000
000000000000
000000000000
000000000000
ENDCHAR

STARTCHAR cns1_2225
ENCODING 8741
SWIDTH 960 0
DWIDTH 42 0
BBX 42 42 0 -6
BITMAP
000000000000
000000000000
000000000000
000000000000
000000000000
000000000000
000000000000
000000000000
000000000000
000000000000
000000000000
000000000000
000000000000
000000000000
000000000000
000000000000
000000000000
000000000000
000000000000
000000000000
000000000000
000000000000
000000000000
000000000000
000000000000
000000000000
000000000000
000000000000
000000000000
000000000000
000000000000
000000000000
000000000000
000000000000
000000000000
000000000000
000000000000
000000000000
000000000000
7FFFFFFFFF00
7FFFFFFFFF00
000000000000
ENDCHAR

STARTCHAR cns1_2226
ENCODING 8742
SWIDTH 960 0
DWIDTH 42 0
BBX 42 42 0 -6
BITMAP
000000000000
000000000000
000000000000
000000000000
000000000000
000000000000
000000000000
000000000000
000000000000
000000000000
000000000000
000000000000
000000000000
000000000000
000000000000
000000000000
000000000000
000000000000
000000000000
000000000000
000000000000
000000000000
000000000000
000000000000
000000000000
000000000000
000000000000
000000000000
000000000000
000000000000
000000000000
000000000000
000000000000
000000000000
000000000000
000000000000
000000000000
000000000000
7FFFFFFFFF00
7FFFFFFFFF00
000000000000
000000000000
ENDCHAR

STARTCHAR cns1_2227
ENCODING 8743
SWIDTH 960 0
DWIDTH 42 0
BBX 42 42 0 -6
BITMAP
000000000000
07E07F03F000
07E07F03F000
000000000000
000000000000
000000000000
000000000000
000000000000
000000000000
000000000000
000000000000
000000000000
000000000000
000000000000
000000000000
000000000000
000000000000
000000000000
000000000000
000000000000
000000000000
000000000000
000000000000
000000000000
000000000000
000000000000
000000000000
000000000000
000000000000
000000000000
000000000000
000000000000
000000000000
000000000000
000000000000
000000000000
000000000000
000000000000
000000000000
000000000000
000000000000
000000000000
ENDCHAR

STARTCHAR cns1_2228
ENCODING 8744
SWIDTH 960 0
DWIDTH 42 0
BBX 42 42 0 -6
BITMAP
000000000000
0FFE083FFC00
0FFE1C3FFC00
0FFE1C3FFC00
000000000000
000000000000
000000000000
000000000000
000000000000
000000000000
000000000000
000000000000
000000000000
000000000000
000000000000
000000000000
000000000000
000000000000
000000000000
000000000000
000000000000
000000000000
000000000000
000000000000
000000000000
000000000000
000000000000
000000000000
000000000000
000000000000
000000000000
000000000000
000000000000
000000000000
000000000000
000000000000
000000000000
000000000000
000000000000
000000000000
000000000000
000000000000
ENDCHAR

STARTCHAR cns1_2229
ENCODING 8745
SWIDTH 960 0
DWIDTH 42 0
BBX 42 42 0 -6
BITMAP
000000000000
000000000000
000000000000
000000000000
000000000000
000000000000
000000000000
000000000000
000000000000
000000000000
000000000000
000000000000
000000000000
000000000000
000000000000
000000000000
000000000000
000000000000
000000000000
000000000000
000000000000
000000000000
000000000000
000000000000
000000000000
000000000000
000000000000
000000000000
000000000000
000000000000
000000000000
000000000000
000000000000
000000000000
000000000000
000000000000
000000000000
000000000000
07F87F87FC00
07F87F87FC00
000000000000
000000000000
ENDCHAR

STARTCHAR cns1_222A
ENCODING 8746
SWIDTH 960 0
DWIDTH 42 0
BBX 42 42 0 -6
BITMAP
000000000000
000000000000
000000000000
000000000000
000000000000
000000000000
000000000000
000000000000
000000000000
000000000000
000000000000
000000000000
000000000000
000000000000
000000000000
000000000000
000000000000
000000000000
000000000000
000000000000
000000000000
000000000000
000000000000
000000000000
000000000000
000000000000
000000000000
000000000000
000000000000
000000000000
000000000000
000000000000
000000000000
000000000000
000000000000
000000000000
000000000000
0FFE1C3FFC00
0FFE1C3FFC00
0FFE1C3FFC00
000000000000
000000000000
ENDCHAR

STARTCHAR cns1_222B
ENCODING 8747
SWIDTH 960 0
DWIDTH 42 0
BBX 42 42 0 -6
BITMAP
000000000000
000000000000
000000000000
001C000C0000
003E001E0000
007F003F0000
00FF807F8000
01E7C0E3C000
03E3E1E1E000
07C1F1C0F000
0F80E3807800
1F007F003C00
3E003E001E00
200000000100
000000000000
000000000000
000000000000
000000000000
000000000000
000000000000
000000000000
000000000000
000000000000
000000000000
000000000000
000000000000
000000000000
000000000000
000000000000
000000000000
000000000000
000000000000
000000000000
000000000000
000000000000
000000000000
000000000000
000000000000
000000000000
000000000000
000000000000
000000000000
ENDCHAR

STARTCHAR cns1_222C
ENCODING 8748
SWIDTH 960 0
DWIDTH 42 0
BBX 42 42 0 -6
BITMAP
000000000000
000000000000
000000000000
0038000E0000
007C001F0000
00FE003F8000
01FF007FC000
03CF80E3E000
07C7C1E1F000
0783E3C0F800
0F01FF807800
1E00FF003C00
3C007E003E00
400000000100
000000000000
000000000000
000000000000
000000000000
000000000000
000000000000
000000000000
000000000000
000000000000
000000000000
000000000000
000000000000
000000000000
000000000000
000000000000
000000000000
000000000000
000000000000
000000000000
000000000000
000000000000
000000000000
000000000000
000000000000
000000000000
000000000000
000000000000
000000000000
ENDCHAR

STARTCHAR cns1_222D
ENCODING 8749
SWIDTH 960 0
DWIDTH 42 0
BBX 42 42 0 -6
BITMAP
000000000000
000000000000
000000000000
000000000000
000000000000
000000000000
000000000000
000000000000
000000000000
0000F1C00000
0000F1C00000
0000F1C00000
0000F1C00000
0000F1C00000
0000F1C00000
0000F1C00000
0007FFF80000
0000F1C00000
0000F1C00000
0000F1C00000
0000F1C00000
0000F1C00000
0000F1C00000
0000F1C00000
0000F1C00000
000FFFF80000
0000F1C00000
0000F1C00000
0000F1C00000
0000F1C00000
0000F1C00000
0000F1C00000
000000000000
000000000000
000000000000
000000000000
000000000000
000000000000
000000000000
000000000000
000000000000
000000000000
ENDCHAR

STARTCHAR cns1_222E
ENCODING 8750
SWIDTH 960 0
DWIDTH 42 0
BBX 42 42 0 -6
BITMAP
000000000000
000000000000
000000000000
000000000000
000000000000
000000000000
000000000000
000000000000
000000000000
000000000000
0003F0000000
0007F0000000
000C38000000
000C38000000
000C3C000000
000E3C000000
000C78000000
0007F8000000
0003E0000000
0003E0000000
0007E0000000
000FF0000000
000E78FC0000
001E3C700000
001C1C600000
001C0FE00000
001C03E00000
001C03E00000
000C03FE0000
000E0E3E0000
0003FC1C0000
0000E0000000
000000000000
000000000000
000000000000
000000000000
000000000000
000000000000
000000000000
000000000000
000000000000
000000000000
ENDCHAR

STARTCHAR cns1_222F
ENCODING 8751
SWIDTH 960 0
DWIDTH 42 0
BBX 42 42 0 -6
BITMAP
000000000000
000000000000
000000000000
000780000000
180780600000
7C0780F00000
3E0781E00000
1E0783C00000
0F0783800000
0F8787800000
07C78F000000
03C71E000000
01C71E000000
01E73C000000
00FFF8000000
007FF8000000
003FF0000000
003FE0000000
000FC0000000
000FC0000000
000FC0000000
001FE0000000
003FE0000000
007FF0000000
007FF8000000
00E73C000000
01E71C000000
01C71E000000
03C78F000000
07C78F000000
078787800000
0F0783C00000
1F0783C00000
1E0781E00000
3C0780F00000
180780C00000
000780000000
000000000000
000000000000
000000000000
000000000000
000000000000
ENDCHAR

STARTCHAR cns1_2230
ENCODING 8752
SWIDTH 960 0
DWIDTH 42 0
BBX 42 42 0 -6
BITMAP
000000000000
000000000000
000000000000
000000000000
000000000000
000000000000
000000000000
00001C000000
00001C000000
00001C000000
00001C000000
00001C000000
00001C000000
00001C000000
00001C000000
00001C000000
00001C000000
00001C000000
00001C000000
00001C000000
01FFFFFFC000
01FFFFFFC000
00001C000000
00001C000000
00001C000000
00001C000000
00001C000000
00001C000000
00001C000000
00001C000000
00001C000000
00001C000000
00001C000000
00001C000000
00001C000000
000000000000
000000000000
000000000000
000000000000
000000000000
000000000000
000000000000
ENDCHAR

STARTCHAR cns1_2231
ENCODING 8753
SWIDTH 960 0
DWIDTH 42 0
BBX 42 42 0 -6
BITMAP
000000000000
000000000000
000000000000
000000000000
000000000000
000000000000
000000000000
000000000000
000000000000
000000000000
000000000000
000000000000
000000000000
000000000000
000000000000
000000000000
000000000000
000000000000
000000000000
000000000000
01FFFFFFE000
01FFFFFFE000
000000000000
000000000000
000000000000
000000000000
000000000000
000000000000
000000000000
000000000000
000000000000
000000000000
000000000000
000000000000
000000000000
000000000000
000000000000
000000000000
000000000000
000000000000
000000000000
000000000000
ENDCHAR

STARTCHAR cns1_2232
ENCODING 8754
SWIDTH 960 0
DWIDTH 42 0
BBX 42 42 0 -6
BITMAP
000000000000
000000000000
000000000000
000000000000
000000000000
000000000000
000000000000
000000000000
006000010000
00F000038000
003800070000
001C000E0000
001E001C0000
000F00380000
000780700000
0003C0E00000
0001E1C00000
0000E3800000
00007F000000
00001C000000
00001C000000
00003E000000
00007F000000
0000E3800000
0001C1C00000
000380E00000
000700700000
000E00380000
001E001C0000
003C001E0000
0078000F0000
007000078000
00E000038000
004000010000
000000000000
000000000000
000000000000
000000000000
000000000000
000000000000
000000000000
000000000000
ENDCHAR

STARTCHAR cns1_2233
ENCODING 8755
SWIDTH 960 0
DWIDTH 42 0
BBX 42 42 0 -6
BITMAP
000000000000
000000000000
000000000000
000000000000
000000000000
000000000000
000000000000
00001E000000
00003E000000
00003F000000
00003F000000
00003E000000
00000C000000
000000000000
000000000000
000000000000
000000000000
000000000000
000000000000
01FFFFFFE000
01FFFFFFE000
01FFFFFFE000
000000000000
000000000000
000000000000
000000000000
000000000000
000000000000
000008000000
00001E000000
00003E000000
00003F000000
00003F000000
00001E000000
00000C000000
000000000000
000000000000
000000000000
000000000000
000000000000
000000000000
000000000000
ENDCHAR

STARTCHAR cns1_2234
ENCODING 8756
SWIDTH 960 0
DWIDTH 42 0
BBX 42 42 0 -6
BITMAP
000000000000
000000000000
000000000000
000000000000
00001E000000
00001E000000
00001E000000
00001E000000
00001E000000
00001E000000
00001E000000
00001E000000
00001E000000
00001E000000
00001E000000
00001E000000
00001E000000
07FFFFFFF000
07FFFFFFF000
07FFFFFFF000
07FFFFFFF000
00001E000000
00001E000000
00001E000000
00001E000000
00001E000000
00001E000000
00001E000000
00001E000000
00001E000000
00001E000000
000000000000
000000000000
000000000000
07FFFFFFF000
07FFFFFFF000
07FFFFFFF000
000000000000
000000000000
000000000000
000000000000
000000000000
ENDCHAR

STARTCHAR cns1_2235
ENCODING 8757
SWIDTH 960 0
DWIDTH 42 0
BBX 42 42 0 -6
BITMAP
000000000000
000000000000
000000000000
000000000000
000000000000
000000000000
000000000000
0001FFFFFF00
0001C0000000
000380000000
000380000000
000380000000
000700000000
000700000000
000700000000
000E00000000
000E00000000
000E00000000
000C00000000
001C00000000
001C00000000
181800000000
3C3800000000
3C3800000000
7C3800000000
4C7000000000
0C7000000000
047000000000
07E000000000
07E000000000
03E000000000
03C000000000
03C000000000
01C000000000
018000000000
000000000000
000000000000
000000000000
000000000000
000000000000
000000000000
000000000000
ENDCHAR

STARTCHAR cns1_2236
ENCODING 8758
SWIDTH 960 0
DWIDTH 42 0
BBX 42 42 0 -6
BITMAP
000000000000
000000000000
000000000000
000000000400
000000001C00
000000007C00
00000001FC00
00000007F000
0000001FC000
0000007F0000
000001FC0000
000003F00000
00000FC00000
00003F000000
0000FC000000
0003F0000000
000FC0000000
003F00000000
00FC00000000
01C000000000
07C000000000
0BF000000000
00FC00000000
003F00000000
001F80000000
0007E0000000
0001F8000000
00007E000000
00001F800000
00000FE00000
000003F80000
000000FE0000
0000003F0000
0000000FC000
00000003F000
00000001FC00
000000007C00
000000001C00
000000000400
000000000000
000000000000
000000000000
ENDCHAR

STARTCHAR cns1_2237
ENCODING 8759
SWIDTH 960 0
DWIDTH 42 0
BBX 42 42 0 -6
BITMAP
000000000000
000000000000
000000000000
0C0000000000
0F0000000000
0FC000000000
0FF000000000
03F800000000
00FE00000000
003F80000000
000FE0000000
0003F8000000
0000FC000000
00003F000000
00000FC00000
000003F00000
000000FC0000
0000003E0000
0000000F8000
00000001E000
00000001F800
00000003F000
0000000FC000
0000003F0000
0000007E0000
000001F80000
000007E00000
00001F800000
00007E000000
0001F8000000
0007F0000000
001FC0000000
003F00000000
00FC00000000
03F000000000
0FE000000000
0F8000000000
0E0000000000
080000000000
000000000000
000000000000
000000000000
ENDCHAR

STARTCHAR cns1_2238
ENCODING 8760
SWIDTH 960 0
DWIDTH 42 0
BBX 42 42 0 -6
BITMAP
000000000000
000000000000
000000000000
000000000000
000000000000
000000000000
000000000000
000000000000
000000000000
000000000000
000000000000
000000000000
000000000000
000000000000
000000000000
03FFFFFFC000
03FFFFFFC000
03FFFFFFC000
000000000000
000000000000
000000000000
000000000000
000000000000
000000000000
03FFFFFFC000
03FFFFFFC000
000000000000
000000000000
000000000000
000000000000
000000000000
000000000000
000000000000
000000000000
000000000000
000000000000
000000000000
000000000000
000000000000
000000000000
000000000000
000000000000
ENDCHAR

STARTCHAR cns1_2239
ENCODING 8761
SWIDTH 960 0
DWIDTH 42 0
BBX 42 42 0 -6
BITMAP
000000000000
000000000000
000000000000
000000000000
000000001000
00000000F000
00000007F000
0000001FC000
000000FE0000
000007F00000
00003F800000
0000FC000000
0007F0000000
003F80000000
00E000000000
07E000000000
0BF000000000
007E00000000
000FC0000000
0001F8000000
00007F000000
00000FE00000
000001FC0000
0000003F8000
00000007F000
00000001F800
000000000000
000000000000
000000000000
07FFFFFFF800
07FFFFFFF800
000000000000
000000000000
000000000000
000000000000
000000000000
07FFFFFFF800
07FFFFFFF800
000000000000
000000000000
000000000000
000000000000
ENDCHAR

STARTCHAR cns1_223A
ENCODING 8762
SWIDTH 960 0
DWIDTH 42 0
BBX 42 42 0 -6
BITMAP
000000000000
000000000000
000000000000
000000000000
060000000000
078000000000
07F000000000
01FE00000000
003FC0000000
0007F0000000
0000FE000000
00001FC00000
000003F00000
0000007E0000
00000003C000
00000003F000
00000007F000
0000003F8000
000001FC0000
00000FE00000
00007F000000
0003F8000000
001FC0000000
00FE00000000
07F800000000
0FC000000000
000000000000
000000000000
000000000000
0FFFFFFFF000
0FFFFFFFF000
000000000000
000000000000
000000000000
000000000000
000000000000
0FFFFFFFF000
0FFFFFFFF000
000000000000
000000000000
000000000000
000000000000
ENDCHAR

STARTCHAR cns1_223B
ENCODING 8763
SWIDTH 960 0
DWIDTH 42 0
BBX 42 42 0 -6
BITMAP
000000000000
000000000000
0000001E0000
0000001C0000
0000003C0000
000000380000
000000780000
000000780000
000000700000
000000F00000
000000E00000
000001E00000
000001C00000
000003800000
000003800000
07FFFFFFF000
07FFEFFFF000
00000E000000
00001E000000
00001E000000
00003C000000
00003C000000
000078000000
000070000000
000070000000
07FFFFFFF000
07FFFFFFF000
07FDFFFFF000
0001C0000000
000380000000
000380000000
000700000000
000700000000
000F00000000
000E00000000
001E00000000
001C00000000
003C00000000
003800000000
007800000000
000000000000
000000000000
ENDCHAR

STARTCHAR cns1_223C
ENCODING 8764
SWIDTH 960 0
DWIDTH 42 0
BBX 42 42 0 -6
BITMAP
000000000000
000000000000
000000000000
000000000000
000000000000
000000000000
000000000000
000000000000
000000000000
000000000000
000000000000
000000000000
000000000000
007C001FC000
03FF807FF000
0FC7C0F0FC00
0F00E1C03C00
1E0063801E00
3C007F801E00
3C003F000E00
38003F000E00
38003F000F00
38003F000F00
3C0027800F00
1C0063801E00
1E00E3C03C00
0F81C1E07C00
07FF80FFF800
00FE007FE000
0000000F8000
000000000000
000000000000
000000000000
000000000000
000000000000
000000000000
000000000000
000000000000
000000000000
000000000000
000000000000
000000000000
ENDCHAR

STARTCHAR cns1_223D
ENCODING 8765
SWIDTH 960 0
DWIDTH 42 0
BBX 42 42 0 -6
BITMAP
000000000000
000000000000
000000000000
000000000000
000000000000
000000000000
000000000000
000000000000
07C000000000
07E000000000
0FE000000000
0FE000000000
0FE000000000
000000000000
000000000000
000000000000
3FFFFFFFFE00
3FFFFFFFFE00
000000000000
000000000000
000000000000
000000000000
000000000000
000000000000
3FFFFFFFFE00
3FFFFFFF0600
000000000000
000000000000
00000000F800
00000001F800
00000001FC00
00000001FC00
00000001F800
00000000F000
000000000000
000000000000
000000000000
000000000000
000000000000
000000000000
000000000000
000000000000
ENDCHAR

STARTCHAR cns1_223E
ENCODING 8766
SWIDTH 960 0
DWIDTH 42 0
BBX 42 42 0 -6
BITMAP
000000000000
000000000000
000000000000
000000000000
000000000000
000000000000
000000000000
000000000000
000000000000
000000000000
000000000000
000000000000
000000000000
3FFFFFFFFE00
3FFFFFFFFE00
000000000000
000000000000
000000000000
000000000000
000000000000
3FFFFFFFFE00
3FFFFFFFFE00
000000000000
000000000000
000000000000
000000000000
000000000000
3FFFFFFFFE00
000000000000
000000000000
000000000000
000000000000
000000000000
000000000000
000000000000
000000000000
000000000000
000000000000
000000000000
000000000000
000000000000
000000000000
ENDCHAR

STARTCHAR cns1_223F
ENCODING 8767
SWIDTH 960 0
DWIDTH 42 0
BBX 42 42 0 -6
BITMAP
000000000000
000000000000
000000000000
000000000000
000000000000
000000000000
000000000000
000000000000
000000000000
000000000000
000000000000
000000000000
00001C000000
00001C000000
00001C000000
00001C000000
00001C000000
00001C000000
00001C000000
00001C000000
001FFFFE0000
001FFFFE0000
00001C000000
00001C000000
00001C000000
00001C000000
00001C000000
00001C000000
00001C000000
00001C000000
000000000000
000000000000
000000000000
000000000000
000000000000
000000000000
000000000000
000000000000
000000000000
000000000000
000000000000
000000000000
ENDCHAR

STARTCHAR cns1_2240
ENCODING 8768
SWIDTH 960 0
DWIDTH 42 0
BBX 42 42 0 -6
BITMAP
000000000000
000000000000
000000000000
000000000000
000000000000
000000000000
000000000000
000000000000
000000000000
000000000000
000000000000
000000000000
000000000000
000000000000
000000000000
000000000000
000000000000
000000000000
000000000000
003FFFFE0000
003FFFFE0000
003FFFFE0000
000000000000
000000000000
000000000000
000000000000
000000000000
000000000000
000000000000
000000000000
000000000000
000000000000
000000000000
000000000000
000000000000
000000000000
000000000000
000000000000
000000000000
000000000000
000000000000
000000000000
ENDCHAR

STARTCHAR cns1_2241
ENCODING 8769
SWIDTH 960 0
DWIDTH 42 0
BBX 42 42 0 -6
BITMAP
000000000000
000000000000
000000000000
000000000000
000000000000
000000000000
000000200000
000000700000
000000F00000
000001E00000
000003C00000
000003800000
000007000000
00000E000000
00001E000000
00003C000000
000038000000
000070000000
0000E0000000
0001E0000000
000380000000
000380000000
0003C0000000
0000E0000000
0000F0000000
000078000000
00003C000000
00001E000000
00000E000000
000007000000
000007800000
000003C00000
000001E00000
000000E00000
000000600000
000000000000
000000000000
000000000000
000000000000
000000000000
000000000000
000000000000
ENDCHAR

STARTCHAR cns1_2242
ENCODING 8770
SWIDTH 960 0
DWIDTH 42 0
BBX 42 42 0 -6
BITMAP
000000000000
000000000000
000000000000
000000000000
000000000000
000000000000
000000000000
000180000000
0001C0000000
0000E0000000
000070000000
000038000000
00001C000000
00001E000000
00000F000000
000007000000
000003800000
000001C00000
000000E00000
000000700000
000000700000
000000700000
000000E00000
000001C00000
000003C00000
000007800000
000007000000
00000E000000
00001C000000
00003C000000
000078000000
000070000000
0000E0000000
0001C0000000
000380000000
000000000000
000000000000
000000000000
000000000000
000000000000
000000000000
000000000000
ENDCHAR

STARTCHAR cns1_2243
ENCODING 8771
SWIDTH 960 0
DWIDTH 42 0
BBX 42 42 0 -6
BITMAP
000000000000
000000000000
000000000000
000000000000
000000000000
000000000000
000000000000
000000000000
000000000000
000000000000
000000000000
000000000000
000000000000
000000000000
000000000000
003FFFFE0000
000000000000
000000000000
000000000000
000000000000
000000000000
000000000000
000000000000
000000000000
000000000000
003FFFFE0000
000000000000
000000000000
000000000000
000000000000
000000000000
000000000000
000000000000
000000000000
000000000000
000000000000
000000000000
000000000000
000000000000
000000000000
000000000000
000000000000
ENDCHAR

STARTCHAR cns1_2244
ENCODING 8772
SWIDTH 960 0
DWIDTH 42 0
BBX 42 42 0 -6
BITMAP
000000000000
000000000000
000000000000
000000000000
000000000000
000000000000
000000000000
000000000000
000000000000
000000000000
000000000000
000000000000
000000000000
000000000000
000000000000
000000000000
000000000000
000600000000
003FE0000000
00FFF8004000
01FFFC01C000
03807F878000
03001FFF0000
000007FE0000
000001F80000
000000000000
000000000000
000000000000
000000000000
000000000000
000000000000
000000000000
000000000000
000000000000
000000000000
000000000000
000000000000
000000000000
000000000000
000000000000
000000000000
000000000000
ENDCHAR

STARTCHAR cns1_2245
ENCODING 8773
SWIDTH 960 0
DWIDTH 42 0
BBX 42 42 0 -6
BITMAP
000000000000
000000000000
000000000000
000000000000
000000000000
000000000000
0000FF800000
0001FFE00000
0003C1F00000
000780F80000
001F007C0000
003E003E0000
003C001F0000
0078000F0000
00F000078000
00F000078000
01E00003C000
01E00003C000
03E00001E000
03C00001E000
03C00001E000
07C00001E000
07800000F000
07800000F000
07800000F000
0F800000F800
0F0000007800
0F0000007800
0F0000007800
0F0000007800
0F0000007800
0F0000007800
0F0000007800
0F0000007800
0F0000007800
0F0000007800
0F0000007800
000000000000
000000000000
000000000000
000000000000
000000000000
ENDCHAR

STARTCHAR cns1_2246
ENCODING 8774
SWIDTH 960 0
DWIDTH 42 0
BBX 42 42 0 -6
BITMAP
000000000000
000000000000
000000000000
000000000000
000000000000
0F0000007800
0F0000007800
0F0000007800
0F0000007800
0F0000007800
0F0000007800
0F0000007800
0F0000007800
0F0000007800
0F0000007800
0F0000007800
0F8000007800
07800000F000
07800000F000
07800000F000
07C00001E000
03C00001E000
03C00001E000
03E00001E000
01E00003C000
01E00003C000
00F000078000
00F000078000
0078000F0000
003C001F0000
003E001E0000
001F003C0000
000F80F80000
0007E1F00000
0001FFE00000
0000FF800000
000000000000
000000000000
000000000000
000000000000
000000000000
000000000000
ENDCHAR

STARTCHAR cns1_2247
ENCODING 8775
SWIDTH 960 0
DWIDTH 42 0
BBX 42 42 0 -6
BITMAP
000000000000
000000000000
000000000000
000000000000
000000000000
000000000000
000000000000
000000000000
00001E000000
00001E000000
00001E000000
00001E000000
00001E000000
00001E000000
00001E000000
00001E000000
00001E000000
00001E000000
00001E000000
00001E000000
00001E000000
00001E000000
00001E000000
00001E000000
00001E000000
00001E000000
00001E000000
00001E000000
00001E000000
00001E000000
00001E000000
0FFFFFFFF800
0FFFFFFFF800
0FFFFFFFF800
000000000000
000000000000
000000000000
000000000000
000000000000
000000000000
000000000000
000000000000
ENDCHAR

STARTCHAR cns1_2248
ENCODING 8776
SWIDTH 960 0
DWIDTH 42 0
BBX 42 42 0 -6
BITMAP
000000000000
000000000000
000000000000
000000000000
000000000000
000000000000
000000000000
000000004000
00000000E000
000000019000
000000038000
000000070000
0000000E0000
0000001C0000
0000003C0000
000000780000
000000F00000
000001E00000
000003C00000
000007800000
00000F000000
00001E000000
00003C000000
000078000000
0000F0000000
0001E0000000
0003C0000000
000780000000
000F00000000
001E00000000
003C00000000
007C00000000
00FFFFFFF800
01FFFFFFF800
03FFFFFFF800
040000000000
000000000000
000000000000
000000000000
000000000000
000000000000
000000000000
ENDCHAR

STARTCHAR cns1_2249
ENCODING 8777
SWIDTH 960 0
DWIDTH 42 0
BBX 42 42 0 -6
BITMAP
000000000000
000000000000
000000000000
000000000000
000000000000
000000000000
000000000000
03C000000000
03C000000000
03C000000000
03C000000000
03C000000000
03C000000000
03C000000000
03C000000000
03C000000000
03C000000000
03C000000000
03C000000000
03C000000000
03C000000000
03C000000000
03C000000000
03C000000000
03C000000000
03C000000000
03C000000000
03C000000000
03C000000000
03C000000000
03C000000000
03C000000000
03C000000000
03FFFFFFF000
03FFFFFFF000
000000000000
000000000000
000000000000
000000000000
000000000000
000000000000
000000000000
ENDCHAR

STARTCHAR cns1_224A
ENCODING 8778
SWIDTH 960 0
DWIDTH 42 0
BBX 42 42 0 -6
BITMAP
000000000000
000000000000
000000000000
000000000000
000000000000
000000000800
000000001800
000000003800
000000007800
00000000F800
00000001F800
00000003F800
00000007F800
0000000E7800
0000001C7800
0000003C7800
000000787800
000000F07800
000001E07800
000003C07800
000007807800
00000F007800
00001F007800
00003E007800
00007C007800
0000F8007800
0001F0007800
0003E0007800
0007C0007800
000F80007800
001F00007800
003E00007800
007800007800
00F000007800
01F000007800
03FFFFFFF800
07FFFFFFF800
080000000000
000000000000
000000000000
000000000000
000000000000
ENDCHAR

STARTCHAR cns1_224B
ENCODING 8779
SWIDTH 960 0
DWIDTH 42 0
BBX 42 42 0 -6
BITMAP
000000000000
000000000000
000000000000
7E0000000000
0E0000000000
0E0000000000
0E0000000000
0E0000000000
0E0000000000
0E0000000000
0E0000000000
0E0000000000
0E0000000000
0E0000000000
0E07E00FC000
0E0FF01FFF00
0E1C7878E700
0E3C3C786300
0E383C787000
0C781C787000
0C701CF87000
0C701C78F000
0CF01C7FE000
0CF01F1FC000
0CF01F1C0000
0CF01F1C0000
0CF01E1C0000
0C701E3FC000
0C701C78F000
0C781CF03C00
0E3839E03C00
0E3C39E01E00
0E1FF1E01E00
7F8FE3E01E00
0003C1E01E00
000001F03E00
000000F03C00
0000007FF800
0000003FF000
0000000FC000
000000000000
000000000000
ENDCHAR

STARTCHAR cns1_224C
ENCODING 8780
SWIDTH 960 0
DWIDTH 42 0
BBX 42 42 0 -6
BITMAP
000000000000
000000000000
000000000000
000000000000
000000000000
1FC000000000
03C000000000
03C000000000
03C000000000
03C000000000
03C000000000
03C000000000
03C000000000
03C000000000
03C000000000
03C7F8FE0000
03C0FFFF8000
03C0FF07C000
03C0FE03E000
03C0FC01F000
03C0F801F000
03C0F801F000
03C0F801F000
03C0F801F000
03C0F801F000
03C0F801F000
03C0F801F000
03C0F801F000
03C0F801F000
03C0F801F000
03C0F801F000
03C0F801F000
03C0F801F000
03C0F801F000
03C0F801F000
1FFFFE0FFE00
000000000000
000000000000
000000000000
000000000000
000000000000
000000000000
ENDCHAR

STARTCHAR cns1_224D
ENCODING 8781
SWIDTH 960 0
DWIDTH 42 0
BBX 42 42 0 -6
BITMAP
000000000000
000000000000
000000000000
000000FE0000
000001C70000
000003878000
000007878000
000007038000
000007000000
00000E000000
00000E000000
00000E000000
00000E000000
00000E000000
00000E000000
00000E000000
00000E000000
00000E000000
00000E000000
00000E000000
00000E000000
00000E000000
00000E000000
00000E000000
00000E000000
00000E000000
00000E000000
00000E000000
00000E000000
00000E000000
00000E000000
00001C000000
00601C000000
00F01C000000
00F038000000
00F078000000
00F070000000
00F1E0000000
007FC0000000
000F80000000
000000000000
000000000000
ENDCHAR

STARTCHAR cns1_224E
ENCODING 8782
SWIDTH 960 0
DWIDTH 42 0
BBX 42 42 0 -6
BITMAP
000000000000
000000000000
000000780000
000001FE0000
000003C70000
000003878000
000007038000
000007038000
000007010000
000007000000
00003F800000
0000FFC00000
00018CE00000
00078E380000
00070E1C0000
000E0E0C0000
000E0E0C0000
000C0E0C0000
000C0E0E0000
000C0E0E0000
000C0E0E0000
000E0E0C0000
000E0E1C0000
00070E1C0000
00038E380000
0003CCF00000
0000FFE00000
00003F800000
00000E000000
00000E000000
00000C000000
00001C000000
00601C000000
00701C000000
00F03C000000
00F038000000
007078000000
007FF0000000
003FC0000000
000F00000000
000000000000
000000000000
ENDCHAR

STARTCHAR cns1_224F
ENCODING 8783
SWIDTH 960 0
DWIDTH 42 0
BBX 42 42 0 -6
BITMAP
000000000000
000000000000
000000000000
000000000000
000000000000
000000000000
000000000000
000000000000
006000018000
01F00007E000
03F8000FE000
03F8000FE000
03F8000FE000
03F80007E000
01F00007C000
00E000008000
000000000000
000000000000
000000000000
000000000000
000000000000
000000000000
000000000000
000000000000
000000000000
000000000000
000000000000
00007C000000
0000FE000000
0000FE000000
0000FE000000
0000FE000000
00007C000000
000038000000
000000000000
000000000000
000000000000
000000000000
000000000000
000000000000
000000000000
000000000000
ENDCHAR

STARTCHAR cns1_2250
ENCODING 8784
SWIDTH 960 0
DWIDTH 42 0
BBX 42 42 0 -6
BITMAP
000000000000
000000000000
000000000000
000000000000
000000000000
000000000000
000000000000
000000000000
000030000000
00007C000000
0000FE000000
0000FE000000
0000FE000000
0000FE000000
00007C000000
000010000000
000000000000
000000000000
000000000000
000000000000
000000000000
000000000000
000000000000
000000000000
000000000000
000000000000
006000000000
01F00007C000
03F80007E000
03F8000FE000
03F8000FE000
03F8000FE000
01F00007E000
00E000038000
000000000000
000000000000
000000000000
000000000000
000000000000
000000000000
000000000000
000000000000
ENDCHAR

STARTCHAR cns1_2251
ENCODING 8785
SWIDTH 960 0
DWIDTH 42 0
BBX 42 42 0 -6
BITMAP
000000000000
000000000000
00007FC00000
0000FFE00000
0001F0F00000
0003C0780000
0003803C0000
0007801C0000
0007001C0000
0007001E0000
0007001E0000
0007001C0000
0007001C0000
0003803C0000
0003C0780000
0001F0F00000
0000FFE00000
00003F800000
00000E000000
00000E000000
00000E000000
00000E000000
00000E000000
00000E000000
00000E000000
03FFFFFFF000
03FFFFFFF000
03FFFFFFF000
00000E000000
00000E000000
00000E000000
00000E000000
00000E000000
00000E000000
00000E000000
00000E000000
00000E000000
00000E000000
00000E000000
00000E000000
000000000000
000000000000
ENDCHAR

STARTCHAR cns1_2252
ENCODING 8786
SWIDTH 960 0
DWIDTH 42 0
BBX 42 42 0 -6
BITMAP
000000000000
000000000000
000007000000
00000F800000
00001FC00000
00003FE00000
00007FF00000
0000FE780000
0001E63C0000
0003C71E0000
0007C70F0000
000F87078000
001F0703C000
003E0701E000
007C0701F000
00F80700F800
01F007007800
01E007003C00
00C007001000
000007000000
000007000000
000007000000
000007000000
00001FC00000
00007FF00000
0000FFF80000
0000E03C0000
0001C01E0000
0003800E0000
0003800E0000
0003800E0000
0003800E0000
0003800E0000
0003800E0000
0003C00E0000
0001C01E0000
0001F07C0000
0000FFF80000
00007FF00000
00001FC00000
000000000000
000000000000
ENDCHAR

STARTCHAR cns1_2253
ENCODING 8787
SWIDTH 960 0
DWIDTH 42 0
BBX 42 42 0 -6
BITMAP
000000000000
000000000000
00001C000000
0003FFE00000
000FFFF80000
003FFFFC0000
007E3C7F0000
01FC3E1FC000
03F03E07E000
03E03E03E000
07803E01F000
0F803E00F000
0F003E007800
1E003E003C00
1C003E003C00
3C003E001C00
3C003E001E00
38003E000E00
38003E000E00
3FFFFFFFFE00
3FFFFFFFFE00
3FFFFFFFFE00
3BFFFFFFEE00
38003E000E00
38003E001E00
3C003E001E00
3C003E001E00
1C003E001C00
1E003E003C00
0E003E007800
0F003E007800
07803E00F000
07C03E01E000
03E03E03E000
01F83E0FC000
00FE3E3F8000
007FFFFE0000
001FFFFC0000
0007FFF00000
0000FF800000
000000000000
000000000000
ENDCHAR

STARTCHAR cns1_2254
ENCODING 8788
SWIDTH 960 0
DWIDTH 42 0
BBX 42 42 0 -6
BITMAP
000000000000
000000000000
000000000000
000000000000
00007F800000
0003FFF00000
000FFFFC0000
003F807E0000
007C000F8000
00F80007C000
01E00001E000
01C00000E000
03C00000F000
078000007800
070000003800
070000003800
0E001E001C00
0E003F001C00
0E007F801C00
0E00FFC01C00
0E00FFC01C00
0E00FFC01C00
0E00FFC01C00
0E00FFC01C00
0E007F801C00
0E003F001C00
0E001E001C00
070000003800
070000003800
038000007000
03C00000F000
01E00001E000
01F00003C000
00F80007C000
007E001F8000
003F807E0000
000FFFFC0000
0003FFF00000
00007F800000
000000000000
000000000000
000000000000
ENDCHAR

STARTCHAR cns1_2255
ENCODING 8789
SWIDTH 960 0
DWIDTH 42 0
BBX 42 42 0 -6
BITMAP
000000000000
00000C000000
00001E000000
00003F000000
00007F800000
0000FFC00000
0001FFE00000
0003FFF00000
00079CF80000
000F1C7C0000
001F1E3E0000
003E1E1F0000
007C1E0F8000
00F81E07C000
01F01E03E000
03E01E01F000
01C01E00E000
00801E00C000
00001E000000
00001E000000
00001E000000
00001E000000
00001E000000
00001E000000
00001E000000
00001E000000
00001E000000
00001E000000
00001E000000
00001E000000
00001E000000
00001E000000
00001E000000
00001E000000
00001E000000
00001E000000
00001E000000
00001E000000
00001E000000
00001E000000
000000000000
000000000000
ENDCHAR

STARTCHAR cns1_2256
ENCODING 8790
SWIDTH 960 0
DWIDTH 42 0
BBX 42 42 0 -6
BITMAP
000000000000
00001E000000
00001E000000
00001E000000
00001E000000
00001E000000
00001E000000
00001E000000
00001E000000
00001E000000
00001E000000
00001E000000
00001E000000
00001E000000
00001E000000
00001E000000
00001E000000
00001E000000
00001E000000
00001E000000
00001E000000
00001E000000
00001E000000
00001E008000
01801E00C000
03C01E01E000
01E01E039000
00F01E078000
00781E0F0000
003C1E1F0000
001E1E3E0000
000F1C7C0000
00071C780000
00039CF00000
0001FFE00000
0000FFC00000
00007F800000
00003F000000
00001E000000
00000C000000
000000000000
000000000000
ENDCHAR

STARTCHAR cns1_2257
ENCODING 8791
SWIDTH 960 0
DWIDTH 42 0
BBX 42 42 0 -6
BITMAP
000000000000
000000000000
000000000000
000000000000
000000000000
000001000000
000003800000
000007C00000
000001E00000
000000F00000
000000780000
0000003C0000
0000001E0000
0000000F0000
000000078000
00000003C000
00000001E000
000000007000
000000003800
000000003C00
3FFFFFFFFE00
3FFFFFFE7E00
000000007C00
00000000F800
00000001F000
00000003E000
00000003C000
000000078000
0000000F0000
0000001E0000
0000003C0000
000000780000
000000F00000
000001E00000
000003E00000
000001C00000
000000800000
000000000000
000000000000
000000000000
000000000000
000000000000
ENDCHAR

STARTCHAR cns1_2258
ENCODING 8792
SWIDTH 960 0
DWIDTH 42 0
BBX 42 42 0 -6
BITMAP
000000000000
000000000000
000000000000
000000000000
000000000000
000000000000
000060000000
0000F0000000
0001E0000000
0003C0000000
000780000000
000F00000000
001E00000000
003C00000000
007800000000
00F000000000
01E000000000
038000000000
070000000000
0F0000000000
1FFFFFFFFF00
3F3FFFFFFF00
0F0000000000
078000000000
03C000000000
01E000000000
00F000000000
007800000000
003C00000000
003E00000000
001F00000000
000F80000000
0007C0000000
0003E0000000
0001F0000000
0000E0000000
000000000000
000000000000
000000000000
000000000000
000000000000
000000000000
ENDCHAR

STARTCHAR cns1_2259
ENCODING 8793
SWIDTH 960 0
DWIDTH 42 0
BBX 42 42 0 -6
BITMAP
000000000000
000000000000
000000000000
000000000000
000000000000
000000000000
000000000000
07FFF8000000
07FFF0000000
07F9E0000000
07F800000000
07FC00000000
073E00000000
071F00000000
078F80000000
0787C0000000
0783E0000000
0781F0000000
0780F8000000
07007C000000
06003E000000
00001F000000
00000F800000
000007C00000
000003E00000
000001F00000
000000F80000
0000007C0000
0000003E0000
0000001F0000
0000000F8000
00000007C000
00000003E000
00000001F000
00000000F800
000000007800
000000003800
000000000000
000000000000
000000000000
000000000000
000000000000
ENDCHAR

STARTCHAR cns1_225A
ENCODING 8794
SWIDTH 960 0
DWIDTH 42 0
BBX 42 42 0 -6
BITMAP
000000000000
000000000000
000000000000
000000000000
000000000000
000000000000
000000000000
00000FFFF000
000007FFF000
000003CFF000
0000000FF000
0000001FF000
0000003CF000
00000078F000
000000F8F000
000001F0F000
000003E0F000
000007C0F000
00000F80F000
00001F007000
00003E003000
00007C000000
0000F8000000
0000F0000000
0001F0000000
0003E0000000
0007C0000000
000F80000000
001F00000000
003E00000000
007C00000000
00F800000000
01F000000000
03E000000000
07C000000000
078000000000
030000000000
000000000000
000000000000
000000000000
000000000000
000000000000
ENDCHAR

STARTCHAR cns1_225B
ENCODING 8795
SWIDTH 960 0
DWIDTH 42 0
BBX 42 42 0 -6
BITMAP
000000000000
000000000000
000000000000
000000000000
000000000000
000000000000
000000000000
00000000C000
00000001E000
00000003E000
00000007C000
0000000F8000
0000001F0000
0000003E0000
0000007C0000
000000F80000
000001F00000
000003E00000
000007E00000
000007C00000
00000F800000
00001F000000
00003E000000
06007C000000
0700F8000000
0781F0000000
0783E0000000
0787C0000000
078F80000000
071F00000000
073E00000000
07F800000000
07F000000000
07F000000000
07FFE0000000
07FFF0000000
07FFF8000000
000000000000
000000000000
000000000000
000000000000
000000000000
ENDCHAR

STARTCHAR cns1_225C
ENCODING 8796
SWIDTH 960 0
DWIDTH 42 0
BBX 42 42 0 -6
BITMAP
000000000000
000000000000
000000000000
000000000000
000000000000
000000000000
000000000000
018000000000
03C000000000
03E000000000
01F000000000
00F800000000
007C00000000
003E00000000
001F00000000
000F80000000
0007C0000000
0003E0000000
0001F0000000
0001F8000000
0000F8000000
00007C000000
00003E000000
00001F003000
00000F807000
000007C0F000
000003E0F000
000001F0F000
000000F8F000
00000078F000
0000003CF000
0000000FF000
00000007F000
00000007F000
000003FFF000
000007FFF000
00000FFFF000
000000000000
000000000000
000000000000
000000000000
000000000000
ENDCHAR

STARTCHAR cns1_225D
ENCODING 8797
SWIDTH 960 0
DWIDTH 42 0
BBX 42 42 0 -6
BITMAP
000000000000
0001E3C00000
0001E3C00000
0001E3C00000
0001E3C00000
0001E3C00000
0001E3C00000
0001E3C00000
0001E3C00000
0001E3C00000
0001E3C00000
0001E3C00000
0001E3C00000
0001E3C00000
0001E3C00000
0001E3C00000
0001E3C00000
0001E3C00000
0001E3C00000
0001E3C00000
0001E3C00000
0001E3C00000
0001E3C00000
0001E3C00000
0001E3C00000
0001E3C00000
0001E3C00000
0001E3C00000
0001E3C00000
0001E3C00000
0001E3C00000
0001E3C00000
0001E3C00000
0001E3C00000
0001E3C00000
0001E3C00000
0001E3C00000
0001E3C00000
0001E3C00000
0001E3C00000
000000000000
000000000000
ENDCHAR

STARTCHAR cns1_225E
ENCODING 8798
SWIDTH 960 0
DWIDTH 42 0
BBX 42 42 0 -6
BITMAP
000000000000
000000000000
00000C000000
00000C000000
00000C000000
00000C000000
00000C000000
00000C000000
00000C000000
00000C000000
00000C000000
00000C000000
00000C000000
00000C000000
00000C000000
00000C000000
00000C000000
00000C000000
00000C000000
00000C000000
00000C000000
00000C000000
00000C000000
00000C000000
00000C000000
00000C000000
00000C000000
00000C000000
00000C000000
00000C000000
00000C000000
00000C000000
00000C000000
00000C000000
00000C000000
00000C000000
00000C000000
00000C000000
00000C000000
00000C000000
000000000000
000000000000
ENDCHAR

STARTCHAR cns1_225F
ENCODING 8799
SWIDTH 960 0
DWIDTH 42 0
BBX 42 42 0 -6
BITMAP
000000000000
000000000000
000000000800
000000001C00
000000003E00
000000007C00
00000000F800
00000001F000
00000003E000
00000007C000
0000000F8000
0000001F0000
0000003E0000
0000007C0000
000000F80000
000001F00000
000003E00000
000007C00000
00000F800000
00001F000000
00003E000000
00007C000000
0000F8000000
0001F0000000
0003E0000000
0007C0000000
000F80000000
001F00000000
003E00000000
007C00000000
00F800000000
01F000000000
03E000000000
07C000000000
0F8000000000
1F0000000000
7E0000000000
3C0000000000
180000000000
000000000000
000000000000
000000000000
ENDCHAR

STARTCHAR cns1_2260
ENCODING 8800
SWIDTH 960 0
DWIDTH 42 0
BBX 42 42 0 -6
BITMAP
000000000000
000000000000
180000000000
1C0000000000
1E0000000000
0F0000000000
078000000000
03C000000000
01E000000000
00F000000000
007800000000
003C00000000
001E00000000
000F00000000
000780000000
0003C0000000
0001E0000000
0000F0000000
000078000000
00003C000000
00001E000000
00000F000000
000007800000
000003C00000
000001E00000
000000F00000
000000780000
0000003C0000
0000001E0000
0000000F0000
000000078000
00000003C000
00000001E000
00000000F000
000000007800
000000003C00
000000001E00
000000000E00
000000000600
000000000000
000000000000
000000000000
ENDCHAR

STARTCHAR cns1_2261
ENCODING 8801
SWIDTH 960 0
DWIDTH 42 0
BBX 42 42 0 -6
BITMAP
000000000000
000000000000
000000200000
000000700000
000000700000
000000F00000
000000E00000
000001E00000
000001C00000
000003C00000
000003800000
000007800000
000007000000
00000F000000
00000E000000
00001E000000
00001C000000
00003C000000
000038000000
000078000000
000070000000
0000F0000000
0000E0000000
0001E0000000
0001C0000000
0003C0000000
000380000000
000780000000
000700000000
000F00000000
000E00000000
001E00000000
001C00000000
003C00000000
003800000000
007800000000
007000000000
00F000000000
002000000000
000000000000
000000000000
000000000000
ENDCHAR

STARTCHAR cns1_2262
ENCODING 8802
SWIDTH 960 0
DWIDTH 42 0
BBX 42 42 0 -6
BITMAP
000000000000
000000000000
000200000000
000F00000000
000700000000
000380000000
000380000000
0001C0000000
0001C0000000
0000E0000000
0000E0000000
000070000000
000070000000
000038000000
000038000000
00001C000000
00001C000000
00000E000000
00000E000000
000007000000
000007000000
000003800000
000003800000
000001C00000
000001C00000
000000E00000
000000E00000
000000700000
000000700000
000000380000
000000380000
0000001C0000
0000001C0000
0000000E0000
0000000E0000
000000070000
000000070000
000000038000
000000038000
000000010000
000000000000
000000000000
ENDCHAR

STARTCHAR cns1_2263
ENCODING 8803
SWIDTH 960 0
DWIDTH 42 0
BBX 42 42 0 -6
BITMAP
000000000000
000000000000
000008000000
000008000000
000008000000
000008000000
0000FC080000
0003FF980000
000788F80000
000608780000
000E08380000
000C08180000
001C08180000
001C08000000
001E08000000
001E08000000
001F08000000
000FF8000000
0007FE000000
0007FF800000
0001FFF00000
00007FF80000
00000FF80000
000008FC0000
0000083C0000
0000081C0000
0000081E0000
0010081E0000
0018081E0000
0018081C0000
001C081C0000
001E081C0000
001F08380000
001F88700000
0011FFE00000
00007F800000
000008000000
000008000000
000008000000
000008000000
000000000000
000000000000
ENDCHAR

STARTCHAR cns1_2264
ENCODING 8804
SWIDTH 960 0
DWIDTH 42 0
BBX 42 42 0 -6
BITMAP
000000000000
000000000000
000000000000
000000000000
000000000000
000000000000
0000003FC000
01FF800E0000
003E000C0000
001E000C0000
000F00080000
000780180000
000780100000
0003C0100000
0003C0300000
0001E0200000
0001E0200000
0000F0400000
000070400000
000078C00000
007FFFFFC000
000018000000
00001F000000
00001F000000
003FFFFFC000
00000F000000
00000F000000
00000F000000
00000F000000
00000F000000
00000F000000
00000F000000
00000F000000
00000F800000
0000FFF00000
000000000000
000000000000
000000000000
000000000000
000000000000
000000000000
000000000000
ENDCHAR

STARTCHAR cns1_2265
ENCODING 8805
SWIDTH 960 0
DWIDTH 42 0
BBX 42 42 0 -6
BITMAP
000000000000
000000000000
000000000000
000000000000
07FFFFFFF800
000000000000
000000000000
000000000000
000000000000
000000000000
000000000000
000000000000
000000000000
07FFFFFFF800
00001C000000
00001C000000
00001C000000
00001C000000
00001C000000
00001C000000
00001C000000
00001C000000
00001C000000
00001C000000
00001C000000
00001C000000
00001C000000
00001C000000
00001C000000
00001C000000
00001C000000
00001C000000
00001C000000
00001C000000
00001C000000
00001C000000
00001C000000
00001C000000
000000000000
000000000000
000000000000
000000000000
ENDCHAR

STARTCHAR cns1_2266
ENCODING 8806
SWIDTH 960 0
DWIDTH 42 0
BBX 42 42 0 -6
BITMAP
000000000000
000000000000
000000000000
000000000000
000000300000
000000300000
000000600000
00001FF80000
00007FFE0000
0000F0DF0000
0003C18F0000
0007019F0000
000C030E0000
001803000000
003806000000
007006000000
007006000000
00E00C000000
00C00C000000
00C018000000
01C018000000
01C030000000
01C030000000
01C060000000
00C060000000
00C060000000
0060C01C0000
0070C0180000
003980300000
001D80700000
000F01E00000
0003FF800000
0006FF000000
000600000000
000E00000000
000C00000000
000000000000
000000000000
000000000000
000000000000
000000000000
000000000000
ENDCHAR

STARTCHAR cns1_2267
ENCODING 8807
SWIDTH 960 0
DWIDTH 42 0
BBX 42 42 0 -6
BITMAP
000000000000
000000000000
000000000000
000000000000
000000000000
000006000000
00007FC00000
0000F1F00000
0001E0180000
0001C0180000
0003C03C0000
0003C03C0000
000380780000
000380380000
000380000000
0003C0000000
0003C0000000
0003C0000000
0003C0000000
0003C0000000
0003C0000000
003FFFC00000
003FFFC00000
0001E0000000
0001E0000000
0001E0000000
0001E0000000
0001E0000000
001FE0000000
003FE0010000
0030F0030000
0060FC070000
00609FFF0000
00618FFE0000
003F03FC0000
001E01F80000
000000000000
000000000000
000000000000
000000000000
000000000000
000000000000
ENDCHAR

STARTCHAR cns1_2268
ENCODING 8808
SWIDTH 960 0
DWIDTH 42 0
BBX 42 42 0 -6
BITMAP
000000000000
000000000000
000000000000
000000001800
000F80003000
003FC0006000
007C60004000
00F860008000
01F060010000
03E070020000
03C0E0040000
0780E00C0000
0701E0180000
0703C0300000
0607C0200000
060780400000
060F80800000
061F01000000
063E02000000
03F806000000
00F00C000000
00001807C000
0000101FE000
0000203E3000
0000403C3000
000080783000
000100F03000
000300E03000
000601E07000
000C01C07000
000803C0F000
00100381E000
00200381E000
00400383C000
00800387C000
0180018F8000
030001FF0000
060000FC0000
040000000000
000000000000
000000000000
000000000000
ENDCHAR

STARTCHAR cns1_2269
ENCODING 8809
SWIDTH 960 0
DWIDTH 42 0
BBX 42 42 0 -6
BITMAP
000000000000
000000000000
000000000000
000000000000
000001800000
00003FF80000
0001F01F0000
00038003C000
000E0000E000
001C00006000
003000003000
006000003800
00E003801C00
01C01FCF0C00
03803C7F0C00
0300781E0400
0700F01E0600
0601E01C0600
0603E03C0600
0C03C0380600
0C0780780E00
0C0780780C00
0C0780780C00
0C0F00F01800
0C0F00F01800
0C0F00E03000
0C0701E07000
0C0783E0E000
060784E38000
0603F8FF0000
0300F87C0000
038000000000
01C000000000
00E000000000
007800000000
001E00780000
0007FFE00000
000000000000
000000000000
000000000000
000000000000
000000000000
ENDCHAR

STARTCHAR cns1_226A
ENCODING 8810
SWIDTH 960 0
DWIDTH 42 0
BBX 42 42 0 -6
BITMAP
000000000000
000000000000
01E000000000
07F000000000
0FF800000000
0E3800000000
0E3800000000
0E3803F80000
0E781FFE1C00
07F03E0F1C00
03E07C039C00
0000F001FC00
0001E0007C00
0003C0007C00
0007C0003C00
000780001C00
000F80001C00
000F00001C00
000F00001C00
001F00000000
001F00000000
001F00000000
001E00000000
001E00000000
001E00000000
001E00000000
001E00000000
001F00000400
000F00001C00
000F00001C00
000F00001C00
000780001C00
0007C0003800
0003E0003800
0003F0007800
0001F801F000
00007F07E000
00003FFFC000
00000FFF0000
000001FC0000
000000000000
000000000000
ENDCHAR

STARTCHAR cns1_226B
ENCODING 8811
SWIDTH 960 0
DWIDTH 42 0
BBX 42 42 0 -6
BITMAP
000000000000
000000000000
000000000000
000000000000
03E000000000
0FF000000000
0C3800000000
0C1800000000
1C19FFFFF800
0E18F0007C00
0E3870003C00
07F070001C00
01C070000C00
000070000000
000070000000
000070000000
000070000000
000070000000
000070038000
000070038000
000070038000
00007FFF8000
000070038000
000070038000
000070000000
000070000000
000070000000
000070000000
000070000000
000070000000
000070000000
000070000000
000070000000
000070000000
000070000000
000070000000
000070000000
0003FF000000
000000000000
000000000000
000000000000
000000000000
ENDCHAR

STARTCHAR cns1_226C
ENCODING 8812
SWIDTH 960 0
DWIDTH 42 0
BBX 42 42 0 -6
BITMAP
000000000000
000000000000
000000000000
000000000000
00000E000000
00000E000000
00000E000000
00000E000000
00001F800000
0000FFE00000
0001FCF00000
00038C780000
00078E380000
00070E3C0000
00070E1C0000
000F0E180000
00070E000000
00078E000000
0003CE000000
0001FE000000
00007F000000
00001FC00000
00000FE00000
00000FF00000
00060C780000
00070C780000
00070E180000
00070E180000
00070E180000
00038E380000
00038E380000
0001FFF00000
0000FFC00000
00001E000000
00000E000000
00000E000000
00000E000000
000000000000
000000000000
000000000000
000000000000
000000000000
ENDCHAR

STARTCHAR cns1_226D
ENCODING 8813
SWIDTH 960 0
DWIDTH 42 0
BBX 42 42 0 -6
BITMAP
000000000000
000000000000
000000000000
000000000000
000000000000
000000000000
000000000000
000000000000
000000000000
000000018000
000000038000
0007C0070000
000C200E0000
0018201C0000
003020380000
006060700000
00E060E00000
00E0C1C00000
00E183800000
006707000000
007E0E000000
00001C000000
000038080000
0000707E0000
0000E1C20000
0001C3830000
000387020000
000706060000
000E0E060000
001C0E0C0000
00380E180000
007007F00000
00E003C00000
000000000000
000000000000
000000000000
000000000000
000000000000
000000000000
000000000000
000000000000
000000000000
ENDCHAR

STARTCHAR cns1_226E
ENCODING 8814
SWIDTH 960 0
DWIDTH 42 0
BBX 42 42 0 -6
BITMAP
000000000000
000000000000
000000000000
000000000000
000000000000
000000000000
000000000000
000000000000
000000000000
00007F800000
0001FFE00000
0007C0700000
000F00380000
001E001C0000
003C3E1C0000
00387E0E0000
0038470E0000
0078C70E0000
0070C70E0000
0070C70E0000
0070C70E0000
0070C70E0000
0070FF0E0000
00707F0C0000
00783F1C0000
007801F18000
003800E1C000
003C00038000
001C00078000
001F001F0000
000F807C0000
0003FFF80000
0000FFC00000
000000000000
000000000000
000000000000
000000000000
000000000000
000000000000
000000000000
000000000000
000000000000
ENDCHAR

STARTCHAR cns1_226F
ENCODING 8815
SWIDTH 960 0
DWIDTH 42 0
BBX 42 42 0 -6
BITMAP
000000000000
000000000000
000000000000
000000000000
000000000000
00000003F800
000001C03800
000003E03800
000007E03800
000007E03800
000003C03800
000000003800
000000003800
000000003800
23C78FE03800
3FFFC0E03800
1C73C0E03800
1C31C0E03800
1C31C0E03800
1C31C0E03800
1C31C0E03800
1C31C0E03800
1C31C0E03800
1C31C0E03800
1C31C0E03800
1C31C0E03800
1C31C0E03800
1C31C0E03800
1C31C0E03800
1C31C0E03800
1C31C0E03800
1C31C0E03800
1C31C0E03800
1C31C0E03800
3CF3F7FDFF00
000000000000
000000000000
000000000000
000000000000
000000000000
000000000000
000000000000
ENDCHAR

STARTCHAR cns1_2270
ENCODING 8816
SWIDTH 960 0
DWIDTH 42 0
BBX 42 42 0 -6
BITMAP
000000000000
000000000000
000000000000
000000000000
000000000000
000000000000
000000000000
000000000000
000000000000
000000000000
000000000000
000000000000
000000000000
01C000060800
63E387FE7C00
17E7C0FFFE00
1CFFC0E7FE00
1C78C0E38E00
1870C0E30E00
1870C0E30E00
1870C0E30E00
1870C0E30E00
1870C0E30E00
1870C0E30E00
1870C0E30E00
1870C0E30E00
1870C0E30E00
1870C0E30E00
1870C0E30E00
1870C0E30E00
1870C0E30E00
1870C0E30E00
1870C0E30E00
1870C0E30E00
78F3E3E71F00
7C0000078000
000000000000
000000000000
000000000000
000000000000
000000000000
000000000000
ENDCHAR

STARTCHAR cns1_2271
ENCODING 8817
SWIDTH 960 0
DWIDTH 42 0
BBX 42 42 0 -6
BITMAP
000000000000
000000000000
000000000000
000000000000
000000000000
000000000000
000000000000
000000000000
000000000000
0018018C1800
01FF071C7C00
03C18F3CFE00
0F007FFFFE00
1E0063878E00
1C00E3870E00
3800E3870E00
380023870E00
380003870E00
780003870E00
700003870E00
700003870E00
700003870E00
700003870E00
700003870E00
700003870E00
380003870E00
380003870E00
380063870E00
1C00E3870E00
0F03E3870E00
07FF8F9F1F00
03FF00000000
007800000000
000000000000
000000000000
000000000000
000000000000
000000000000
000000000000
000000000000
000000000000
000000000000
ENDCHAR

STARTCHAR cns1_2272
ENCODING 8818
SWIDTH 960 0
DWIDTH 42 0
BBX 42 42 0 -6
BITMAP
000000000000
000000000000
000000000000
000000000000
000000000000
000000000000
7C0000000000
1E0000000000
1C0000000000
1C0000000000
1C0000000000
1C0000000000
1C0000000000
1C0000000000
1C0001061C00
1C00071C7E00
1C000FFFFE00
1C1F8BCF9E00
1C0F03870E00
1C1E03870E00
1C3E03870E00
1C7C03870E00
18F803870E00
19F003870E00
1FE003870E00
1F8003870E00
1F8003870E00
1FC003870E00
1FE003870E00
19F003870E00
18F803870E00
1C7C03870E00
1C3E03870E00
1C0703870E00
1C0783870E00
7F1FC7CF3F00
000000000000
000000000000
000000000000
000000000000
000000000000
000000000000
ENDCHAR

STARTCHAR cns1_2273
ENCODING 8819
SWIDTH 960 0
DWIDTH 42 0
BBX 42 42 0 -6
BITMAP
000000000000
000000000000
000000000000
000000000000
000000000000
00000C000600
7E07FE000E00
1C01CF001E00
1C038F801E00
1C078FC03E00
1C0F0FE07E00
1C1E0FF0E600
1C3C0CF1C600
1C780C7FC600
18F00E3F8600
19E00E1F0600
1F800E0E0600
1F800E040600
1FC00E000600
19C00E000600
19E00E000600
18E00E000600
18F00E000600
1C700E000600
1C780E000600
1C380E000600
1C3C0E000600
1C1C0E000600
1C1E0E000600
1C0E0E000600
1C0F0E000600
1C070E000600
1C038E000600
1C038E000600
1C038E000600
7E0FFF801F00
000000000000
000000000000
000000000000
000000000000
000000000000
000000000000
ENDCHAR

STARTCHAR cns1_2274
ENCODING 8820
SWIDTH 960 0
DWIDTH 42 0
BBX 42 42 0 -6
BITMAP
000000000000
000000000000
000000000000
000000000000
00000007E000
0000001FF000
000000383800
000000303800
000000703800
000000003800
000000007000
00000000E000
00000001C000
000000038000
000000070000
000000180000
000000300600
7C787C700C00
07F9FC7FFC00
071F1F000000
070F0F000000
060E0F000000
060E0F000000
060E0F000000
060E0F000000
060E0F000000
060E0F000000
060E0F000000
060E0F000000
060E0F000000
060E0F000000
060E0F000000
060E0F000000
060E0F000000
060E0F000000
060E0F000000
060E0F000000
3F1F1F800000
000000000000
000000000000
000000000000
000000000000
ENDCHAR

STARTCHAR cns1_2275
ENCODING 8821
SWIDTH 960 0
DWIDTH 42 0
BBX 42 42 0 -6
BITMAP
000000000000
000000000000
000000000000
000000000000
000000000000
000000000000
000000000000
000000000000
000000000000
000000000000
000000000000
000000000000
000000000000
01C3807E0000
738FC1FF8100
7FFFC3E7C200
3FF1C781CE00
3C618F80FC00
3C618F007800
3C618F007000
3C618F007000
3C618F007000
3C618F00F000
3C618F80F000
3C61C7C3E000
3C61C3FFE000
3C61C0C00000
3C61C0C00000
3C61C0C00000
3C61C0FFC000
3C61C1FFF000
3C61C3E0F800
3C61C7803C00
7CE3C7001E00
00000F001E00
00000F001E00
000007803C00
000007C07C00
000003FFF800
000001FFF000
0000003F8000
000000000000
ENDCHAR

STARTCHAR cns1_2276
ENCODING 8822
SWIDTH 960 0
DWIDTH 42 0
BBX 42 42 0 -6
BITMAP
000000000000
000000000000
000000000000
000000000000
3C0000000000
1C0000000000
1C0000000000
1C0000000000
1C0000000000
1C0000000000
1C0000000000
1C0000000000
1C0000000000
1C0000080000
1C00007F0000
1C0001E7C200
1C1FE3C0E600
1C0787807E00
1C0F07007C00
1C1E0F003800
1C3C0F003800
1C780F003800
18E00F003000
19E00F007000
1FE00780F000
1FF003E3E000
1E7001FC0000
1E3800C00000
1C1C00E00000
1C1E00FFC000
1C0F01F1F000
1C0783E03800
1C01C7801C00
1C01C7000E00
3E03E7000E00
000007000E00
000007001E00
000007803C00
000003FFF800
000001FFF000
000000000000
000000000000
ENDCHAR

STARTCHAR cns1_2277
ENCODING 8823
SWIDTH 960 0
DWIDTH 42 0
BBX 42 42 0 -6
BITMAP
000000000000
000000000000
000000000000
000000000000
000000000000
000000000000
000000000000
000000000000
000000000000
000000000000
000000000000
000000000000
000000000000
007E0007E000
03FF801FF800
07FFC07FFC00
0E00E0F00E00
1C00E1C00F00
1C00E1C00F00
3800E3800E00
300003800000
300003000000
300003000000
700007000000
700007000000
700007000000
700007000000
700003000000
300003000000
300003000000
300003800000
380023800300
1C0071C00700
1F01E0F01E00
07FFC07FFC00
03FF801FF800
003E0003E000
000000000000
000000000000
000000000000
000000000000
000000000000
ENDCHAR

STARTCHAR cns1_2278
ENCODING 8824
SWIDTH 960 0
DWIDTH 42 0
BBX 42 42 0 -6
BITMAP
000000000000
000000000000
03F000000000
07FC00000000
0FFC00000000
1E3E00000000
1C0E00000000
1C0E00000000
1C0E00000000
1E1E00000000
0FFC00000000
07F800000000
01E000000000
000000000000
000000000000
000000000000
000000000000
000000000000
000000000000
000000000000
000000000000
000000000000
000000000000
000000000000
000000000000
000000000000
000000000000
000000000000
000000000000
000000000000
000000000000
000000000000
000000000000
000000000000
000000000000
000000000000
000000000000
000000000000
000000000000
000000000000
000000000000
000000000000
ENDCHAR

STARTCHAR cns1_2279
ENCODING 8825
SWIDTH 960 0
DWIDTH 42 0
BBX 42 42 0 -6
BITMAP
000000000000
000000000000
007000000000
0078000E0000
0070000F0000
0070000E0000
0070200E0000
0070700E0000
7FFFF80E0000
0070000E0000
0070000E0000
0070000E0000
0070000E0800
3070700E1C00
3FFFFBFFFE00
3800780E0000
3800700E0000
3800700E0000
3800700E0000
3800700E0000
3800700E0000
3800700E0000
3800700E0000
3800700E0000
3FFFF00E0000
39CE700E0000
01CE000E0000
01CE000E0000
01CE000E0000
038E000E0000
038E000E0000
070E000E0200
070E000E0200
0E0E000E0200
0E0E000E0200
1C0E00000700
180F00000700
380780000F00
3007FFFFFE00
6003FFFFFC00
000000000000
000000000000
ENDCHAR

STARTCHAR cns1_227A
ENCODING 8826
SWIDTH 960 0
DWIDTH 42 0
BBX 42 42 0 -6
BITMAP
000000000000
007000000000
007800000000
007000000000
007000006000
00700001F800
00702007C000
0070703F0000
7FFFFBFE0000
0070018E0000
0070000E0000
0070000E0000
0070000E0000
3070700E0000
3FFFF80E0000
3800780E0000
3800700E0800
3800700E1C00
380077FFFE00
3800700E0000
3800700E0000
3800700E0000
3800700E0000
3800700E0000
3FFFF00E0000
3B8E700E0000
038E000E0000
038E000E0000
038E000E0000
070E000E0000
070E000E0000
070E000E0200
0E0E000E0200
0E0E000E0200
1C0E000E0200
1C0E00000700
380E00000700
380700000F00
7007FFFFFE00
6003FFFFFC00
000000000000
000000000000
ENDCHAR

STARTCHAR cns1_227B
ENCODING 8827
SWIDTH 960 0
DWIDTH 42 0
BBX 42 42 0 -6
BITMAP
000000000000
000000000000
007000000000
007800000000
007000004000
00700001E000
00704007F000
0070E07F8000
7FFFF7FC0000
007000380000
007000380000
007000380000
007000380000
30707038C000
3FFFFBFFE000
380078380000
380070380000
380070380000
380070380000
380070382000
380070387000
38007FFFF800
380070380000
380070380000
3FFFF0380000
3B8E70380000
038E00381000
038E00381000
078E00381000
078E00381000
070E00383800
070E003C7A00
0E0E003FF200
0E0E001FE200
1C0E00000200
1C0E00000700
380E00000700
380700000F00
7007FFFFFE00
6003FFFFFC00
000000000000
000000000000
ENDCHAR

STARTCHAR cns1_227C
ENCODING 8828
SWIDTH 960 0
DWIDTH 42 0
BBX 42 42 0 -6
BITMAP
000000000000
007000000000
007800000000
00700001E000
0070001FF000
00700000E000
007040F0E000
0070E0E07000
7FFFF1C07000
007001C07000
007001803800
007003803800
007003001C00
3070E7000E00
3FFFF6000780
3800F4000300
3800E0000000
3800E0000000
3800E0003800
3800E3FFFC00
3800E0383C00
3800E0383800
3800E0383800
3800E0303800
3FFFE0703800
3B8EE0603800
038E00E07000
038E00C07000
078E01C07000
078E03807000
070E03807000
070E0701E200
0E0E0E3FE200
0E0E1C038200
1C0E18000200
1C0E00000700
380F00000700
380780000F00
7007FFFFFE00
6003FFFFFC00
000000000000
000000000000
ENDCHAR

STARTCHAR cns1_227D
ENCODING 8829
SWIDTH 960 0
DWIDTH 42 0
BBX 42 42 0 -6
BITMAP
000000000000
007000000000
007800000000
007000000800
007000001C00
007001FFFE00
00704001C000
0070E0038000
7FFFF0070000
007000060000
0070000C0000
007001981800
007001FFFC00
3070E1C03C00
3FFFF1C03800
3800F1C03800
3800E1C03800
3800E1C03800
3800E1C03800
3800E1C03800
3800E1C03800
3800E1FFF800
3800E1C03800
3800E1C03800
3FFFE1C03800
3B8EE1C03800
038E01C03800
038E01C03800
038E01C03800
038E01C03800
070E01FFF800
070E01C03800
0E0E00000000
0E0E00000100
1C0E00000100
1C0E00000100
380F00000180
380700000380
7007FFFFFF80
6003FFFFFF00
000000000000
000000000000
ENDCHAR

STARTCHAR cns1_227E
ENCODING 8830
SWIDTH 960 0
DWIDTH 42 0
BBX 42 42 0 -6
BITMAP
000000000000
007000000000
007800000400
007004000E00
007007FFFF00
007006000000
007046000000
0070E6000000
7FFFF6401800
0070067FFC00
007006631800
007006631800
007006631800
3070E6631800
3FFFF67FF800
3800F6631800
3800E6631800
3800E6631800
3800E6631800
3800E67FF800
3800E6631800
3800E6030000
3800E6030000
3800E6031000
3FFFE67FF800
3B8EE6030000
038E0C030000
038E0C030000
038E0C030400
070E18030E00
070E19FFFF00
070E18000000
0E0E30000100
0E0E30000100
1C0E00000100
180E00000100
380E00000180
300F00000380
6007FFFFFF80
6003FFFFFF00
400000000000
000000000000
ENDCHAR

STARTCHAR cns1_2321
ENCODING 8993
SWIDTH 960 0
DWIDTH 42 0
BBX 42 42 0 -6
BITMAP
000000000000
000000000000
00E000000000
00E000001000
00E0E1003C00
00E1F1FFFC00
3FFFF1C03C00
00E0E1C03800
00E0E1C03800
01C0E1C03800
01C0E1C03800
0181E1C03800
0381E1C03800
0701C1C03800
060381C03800
0C7F01C03800
181E01FFF800
000078C03000
0000F8000000
0001FC000000
0007C7000000
000F83C00000
001F00700000
0070003C0000
00F0013F0000
03E0031FF000
0C0FFC40FE00
1C000000BC00
240000073800
07FFFFFFE000
0783C3C3E000
0783C3C3C000
0783C3C3C000
0783C3C3C000
07FFFFFFC000
0783C3C3C000
0783C3C3C000
0783C39FC000
0783C3878000
078000000000
000000000000
000000000000
ENDCHAR

STARTCHAR cns1_2322
ENCODING 8994
SWIDTH 960 0
DWIDTH 42 0
BBX 42 42 0 -6
BITMAP
000000000000
000000000000
000180000000
0003C0000000
3FFFE0007000
0E000001F800
0E00000FC000
0E00003E0000
0E0001FC0000
0E00071C0000
0E03801C0000
0FFFC01C0000
0E03C01C0000
0E03801C0000
0E03801C1000
0E03801C3800
0E038FFFFC00
0E03801C0000
0F83801C0000
0FC3801C0000
0EE3801C0000
0E73801C0000
0E7B801C0000
0E3B801C0000
0E1B801C0000
0E03801C0000
0E03801C0000
0E03801C0000
0E03801C0000
0E03801C0000
0E03801C0000
0E3B801C0000
0EE3801C0200
0FC3801C0600
1F03801C0600
3C0380000600
3803C0000600
0003E0000E00
0003FFFFFC00
0001FFFFF800
000000000000
000000000000
ENDCHAR

STARTCHAR cns1_2323
ENCODING 8995
SWIDTH 903 0
DWIDTH 42 0
BBX 42 42 0 -6
BITMAP
000000000000
01C000000000
01E000000200
01C030000700
01C1FFFFFF80
61C1F8000000
31C3B8000000
31C3B8000000
39C739800700
19C639FFFF80
19CE39C38780
1DDC39C38700
0DD039C38700
01C039C38700
01C039C38700
01C039C38700
7FFF39FFFF00
01C039C38700
01C039C38700
01C039C38700
01C039C38700
03E039C38700
03E039C38700
03F039FFFF00
07F839C38700
07F838038000
0FDC38038000
0FDC38038000
1DDC70038000
19CE70038800
39CE70039C00
31CE707FFE00
31C670038000
01C070038000
01C070038000
01C0E0038000
01C0E0038000
01C1C0038200
01C180038700
01C303FFFF80
000000000000
000000000000
ENDCHAR

STARTCHAR cns1_2324
ENCODING 8996
SWIDTH 903 0
DWIDTH 42 0
BBX 42 42 0 -6
BITMAP
000000000000
000000000000
000000000000
000000000000
000000000000
000000000000
000000000000
000000000000
000000000000
000000000000
000000000000
000000000000
000000000000
000000000000
000000000000
000000000000
000000000000
000000000000
000000000000
000000000000
000000000000
000000000000
000000000000
000000000000
000000000000
000000000000
000000000000
000000000000
000000000000
000000000000
000000000000
000000000000
000000000000
000000000000
7FFFFFFFFF80
7FFFFFFFFF80
7FFFFFFFFF80
7FFFFFFFFF80
7FFFFFFFFF80
7FFFFFFFFF80
7FFFFFFFFF80
000000000000
ENDCHAR

STARTCHAR cns1_2325
ENCODING 8997
SWIDTH 903 0
DWIDTH 42 0
BBX 42 42 0 -6
BITMAP
000000000000
000000000000
000000000000
000000000000
000000000000
000000000000
000000000000
000000000000
000000000000
000000000000
000000000000
000000000000
000000000000
000000000000
000000000000
000000000000
000000000000
000000000000
000000000000
000000000000
000000000000
000000000000
000000000000
000000000000
000000000000
000000000000
000000000000
000000000000
000000000000
000000000000
7FFFFFFFFF80
7FFFFFFFFF80
7FFFFFFFFF80
7FFFFFFFFF80
7FFFFFFFFF80
7FFFFFFFFF80
7FFFFFFFFF80
7FFFFFFFFF80
7FFFFFFFFF80
7FFFFFFFFF80
7FFFFFFFFF80
000000000000
ENDCHAR

STARTCHAR cns1_2326
ENCODING 8998
SWIDTH 903 0
DWIDTH 42 0
BBX 42 42 0 -6
BITMAP
000000000000
000000000000
000000000000
000000000000
000000000000
000000000000
000000000000
000000000000
000000000000
000000000000
000000000000
000000000000
000000000000
000000000000
000000000000
000000000000
000000000000
000000000000
000000000000
000000000000
000000000000
000000000000
000000000000
000000000000
000000000000
7FFFFFFFFF80
7FFFFFFFFF80
7FFFFFFFFF80
7FFFFFFFFF80
7FFFFFFFFF80
7FFFFFFFFF80
7FFFFFFFFF80
7FFFFFFFFF80
7FFFFFFFFF80
7FFFFFFFFF80
7FFFFFFFFF80
7FFFFFFFFF80
7FFFFFFFFF80
7FFFFFFFFF80
7FFFFFFFFF80
7FFFFFFFFF80
000000000000
ENDCHAR

STARTCHAR cns1_2327
ENCODING 8999
SWIDTH 903 0
DWIDTH 42 0
BBX 42 42 0 -6
BITMAP
000000000000
000000000000
000000000000
000000000000
000000000000
000000000000
000000000000
000000000000
000000000000
000000000000
000000000000
000000000000
000000000000
000000000000
000000000000
000000000000
000000000000
000000000000
000000000000
000000000000
7FFFFFFFFF80
7FFFFFFFFF80
7FFFFFFFFF80
7FFFFFFFFF80
7FFFFFFFFF80
7FFFFFFFFF80
7FFFFFFFFF80
7FFFFFFFFF80
7FFFFFFFFF80
7FFFFFFFFF80
7FFFFFFFFF80
7FFFFFFFFF80
7FFFFFFFFF80
7FFFFFFFFF80
7FFFFFFFFF80
7FFFFFFFFF80
7FFFFFFFFF80
7FFFFFFFFF80
7FFFFFFFFF80
7FFFFFFFFF80
7FFFFFFFFF80
000000000000
ENDCHAR

STARTCHAR cns1_2328
ENCODING 9000
SWIDTH 903 0
DWIDTH 42 0
BBX 42 42 0 -6
BITMAP
000000000000
000000000000
000000000000
000000000000
000000000000
000000000000
000000000000
000000000000
000000000000
000000000000
000000000000
000000000000
000000000000
000000000000
000000000000
000000000000
7FFFFFFFFF80
7FFFFFFFFF80
7FFFFFFFFF80
7FFFFFFFFF80
7FFFFFFFFF80
7FFFFFFFFF80
7FFFFFFFFF80
7FFFFFFFFF80
7FFFFFFFFF80
7FFFFFFFFF80
7FFFFFFFFF80
7FFFFFFFFF80
7FFFFFFFFF80
7FFFFFFFFF80
7FFFFFFFFF80
7FFFFFFFFF80
7FFFFFFFFF80
7FFFFFFFFF80
7FFFFFFFFF80
7FFFFFFFFF80
7FFFFFFFFF80
7FFFFFFFFF80
7FFFFFFFFF80
7FFFFFFFFF80
7FFFFFFFFF80
000000000000
ENDCHAR

STARTCHAR cns1_2329
ENCODING 9001
SWIDTH 903 0
DWIDTH 42 0
BBX 42 42 0 -6
BITMAP
000000000000
000000000000
000000000000
000000000000
000000000000
000000000000
000000000000
000000000000
000000000000
000000000000
000000000000
7FFFFFFFFF80
7FFFFFFFFF80
7FFFFFFFFF80
7FFFFFFFFF80
7FFFFFFFFF80
7FFFFFFFFF80
7FFFFFFFFF80
7FFFFFFFFF80
7FFFFFFFFF80
7FFFFFFFFF80
7FFFFFFFFF80
7FFFFFFFFF80
7FFFFFFFFF80
7FFFFFFFFF80
7FFFFFFFFF80
7FFFFFFFFF80
7FFFFFFFFF80
7FFFFFFFFF80
7FFFFFFFFF80
7FFFFFFFFF80
7FFFFFFFFF80
7FFFFFFFFF80
7FFFFFFFFF80
7FFFFFFFFF80
7FFFFFFFFF80
7FFFFFFFFF80
7FFFFFFFFF80
7FFFFFFFFF80
7FFFFFFFFF80
7FFFFFFFFF80
000000000000
ENDCHAR

STARTCHAR cns1_232A
ENCODING 9002
SWIDTH 903 0
DWIDTH 42 0
BBX 42 42 0 -6
BITMAP
000000000000
000000000000
000000000000
000000000000
000000000000
000000000000
000000000000
7FFFFFFFFF80
7FFFFFFFFF80
7FFFFFFFFF80
7FFFFFFFFF80
7FFFFFFFFF80
7FFFFFFFFF80
7FFFFFFFFF80
7FFFFFFFFF80
7FFFFFFFFF80
7FFFFFFFFF80
7FFFFFFFFF80
7FFFFFFFFF80
7FFFFFFFFF80
7FFFFFFFFF80
7FFFFFFFFF80
7FFFFFFFFF80
7FFFFFFFFF80
7FFFFFFFFF80
7FFFFFFFFF80
7FFFFFFFFF80
7FFFFFFFFF80
7FFFFFFFFF80
7FFFFFFFFF80
7FFFFFFFFF80
7FFFFFFFFF80
7FFFFFFFFF80
7FFFFFFFFF80
7FFFFFFFFF80
7FFFFFFFFF80
7FFFFFFFFF80
7FFFFFFFFF80
7FFFFFFFFF80
7FFFFFFFFF80
7FFFFFFFFF80
000000000000
ENDCHAR

STARTCHAR cns1_232B
ENCODING 9003
SWIDTH 903 0
DWIDTH 42 0
BBX 42 42 0 -6
BITMAP
000000000000
7FFFFFFFFF80
7FFFFFFFFF80
7FFFFFFFFF80
7FFFFFFFFF80
7FFFFFFFFF80
7FFFFFFFFF80
7FFFFFFFFF80
7FFFFFFFFF80
7FFFFFFFFF80
7FFFFFFFFF80
7FFFFFFFFF80
7FFFFFFFFF80
7FFFFFFFFF80
7FFFFFFFFF80
7FFFFFFFFF80
7FFFFFFFFF80
7FFFFFFFFF80
7FFFFFFFFF80
7FFFFFFFFF80
7FFFFFFFFF80
7FFFFFFFFF80
7FFFFFFFFF80
7FFFFFFFFF80
7FFFFFFFFF80
7FFFFFFFFF80
7FFFFFFFFF80
7FFFFFFFFF80
7FFFFFFFFF80
7FFFFFFFFF80
7FFFFFFFFF80
7FFFFFFFFF80
7FFFFFFFFF80
7FFFFFFFFF80
7FFFFFFFFF80
7FFFFFFFFF80
7FFFFFFFFF80
7FFFFFFFFF80
7FFFFFFFFF80
7FFFFFFFFF80
7FFFFFFFFF80
000000000000
ENDCHAR

STARTCHAR cns1_232C
ENCODING 9004
SWIDTH 903 0
DWIDTH 42 0
BBX 42 42 0 -6
BITMAP
000000000000
7C0000000000
7C0000000000
7C0000000000
7C0000000000
7C0000000000
7C0000000000
7C0000000000
7C0000000000
7C0000000000
7C0000000000
7C0000000000
7C0000000000
7C0000000000
7C0000000000
7C0000000000
7C0000000000
7C0000000000
7C0000000000
7C0000000000
7C0000000000
7C0000000000
7C0000000000
7C0000000000
7C0000000000
7C0000000000
7C0000000000
7C0000000000
7C0000000000
7C0000000000
7C0000000000
7C0000000000
7C0000000000
7C0000000000
7C0000000000
7C0000000000
7C0000000000
7C0000000000
7C0000000000
7C0000000000
7C0000000000
000000000000
ENDCHAR

STARTCHAR cns1_232D
ENCODING 9005
SWIDTH 903 0
DWIDTH 42 0
BBX 42 42 0 -6
BITMAP
000000000000
7FE000000000
7FE000000000
7FE000000000
7FE000000000
7FE000000000
7FE000000000
7FE000000000
7FE000000000
7FE000000000
7FE000000000
7FE000000000
7FE000000000
7FE000000000
7FE000000000
7FE000000000
7FE000000000
7FE000000000
7FE000000000
7FE000000000
7FE000000000
7FE000000000
7FE000000000
7FE000000000
7FE000000000
7FE000000000
7FE000000000
7FE000000000
7FE000000000
7FE000000000
7FE000000000
7FE000000000
7FE000000000
7FE000000000
7FE000000000
7FE000000000
7FE000000000
7FE000000000
7FE000000000
7FE000000000
7FE000000000
000000000000
ENDCHAR

STARTCHAR cns1_232E
ENCODING 9006
SWIDTH 903 0
DWIDTH 42 0
BBX 42 42 0 -6
BITMAP
000000000000
7FFF00000000
7FFF00000000
7FFF00000000
7FFF00000000
7FFF00000000
7FFF00000000
7FFF00000000
7FFF00000000
7FFF00000000
7FFF00000000
7FFF00000000
7FFF00000000
7FFF00000000
7FFF00000000
7FFF00000000
7FFF00000000
7FFF00000000
7FFF00000000
7FFF00000000
7FFF00000000
7FFF00000000
7FFF00000000
7FFF00000000
7FFF00000000
7FFF00000000
7FFF00000000
7FFF00000000
7FFF00000000
7FFF00000000
7FFF00000000
7FFF00000000
7FFF00000000
7FFF00000000
7FFF00000000
7FFF00000000
7FFF00000000
7FFF00000000
7FFF00000000
7FFF00000000
7FFF00000000
000000000000
ENDCHAR

STARTCHAR cns1_232F
ENCODING 9007
SWIDTH 903 0
DWIDTH 42 0
BBX 42 42 0 -6
BITMAP
000000000000
7FFFF8000000
7FFFF8000000
7FFFF8000000
7FFFF8000000
7FFFF8000000
7FFFF8000000
7FFFF8000000
7FFFF8000000
7FFFF8000000
7FFFF8000000
7FFFF8000000
7FFFF8000000
7FFFF8000000
7FFFF8000000
7FFFF8000000
7FFFF8000000
7FFFF8000000
7FFFF8000000
7FFFF8000000
7FFFF8000000
7FFFF8000000
7FFFF8000000
7FFFF8000000
7FFFF8000000
7FFFF8000000
7FFFF8000000
7FFFF8000000
7FFFF8000000
7FFFF8000000
7FFFF8000000
7FFFF8000000
7FFFF8000000
7FFFF8000000
7FFFF8000000
7FFFF8000000
7FFFF8000000
7FFFF8000000
7FFFF8000000
7FFFF8000000
7FFFF8000000
000000000000
ENDCHAR

STARTCHAR cns1_2330
ENCODING 9008
SWIDTH 903 0
DWIDTH 42 0
BBX 42 42 0 -6
BITMAP
000000000000
7FFFFF800000
7FFFFF800000
7FFFFF800000
7FFFFF800000
7FFFFF800000
7FFFFF800000
7FFFFF800000
7FFFFF800000
7FFFFF800000
7FFFFF800000
7FFFFF800000
7FFFFF800000
7FFFFF800000
7FFFFF800000
7FFFFF800000
7FFFFF800000
7FFFFF800000
7FFFFF800000
7FFFFF800000
7FFFFF800000
7FFFFF800000
7FFFFF800000
7FFFFF800000
7FFFFF800000
7FFFFF800000
7FFFFF800000
7FFFFF800000
7FFFFF800000
7FFFFF800000
7FFFFF800000
7FFFFF800000
7FFFFF800000
7FFFFF800000
7FFFFF800000
7FFFFF800000
7FFFFF800000
7FFFFF800000
7FFFFF800000
7FFFFF800000
7FFFFF800000
000000000000
ENDCHAR

STARTCHAR cns1_2331
ENCODING 9009
SWIDTH 903 0
DWIDTH 42 0
BBX 42 42 0 -6
BITMAP
000000000000
7FFFFFFC0000
7FFFFFFC0000
7FFFFFFC0000
7FFFFFFC0000
7FFFFFFC0000
7FFFFFFC0000
7FFFFFFC0000
7FFFFFFC0000
7FFFFFFC0000
7FFFFFFC0000
7FFFFFFC0000
7FFFFFFC0000
7FFFFFFC0000
7FFFFFFC0000
7FFFFFFC0000
7FFFFFFC0000
7FFFFFFC0000
7FFFFFFC0000
7FFFFFFC0000
7FFFFFFC0000
7FFFFFFC0000
7FFFFFFC0000
7FFFFFFC0000
7FFFFFFC0000
7FFFFFFC0000
7FFFFFFC0000
7FFFFFFC0000
7FFFFFFC0000
7FFFFFFC0000
7FFFFFFC0000
7FFFFFFC0000
7FFFFFFC0000
7FFFFFFC0000
7FFFFFFC0000
7FFFFFFC0000
7FFFFFFC0000
7FFFFFFC0000
7FFFFFFC0000
7FFFFFFC0000
7FFFFFFC0000
000000000000
ENDCHAR

STARTCHAR cns1_2332
ENCODING 9010
SWIDTH 903 0
DWIDTH 42 0
BBX 42 42 0 -6
BITMAP
000000000000
7FFFFFFFC000
7FFFFFFFC000
7FFFFFFFC000
7FFFFFFFC000
7FFFFFFFC000
7FFFFFFFC000
7FFFFFFFC000
7FFFFFFFC000
7FFFFFFFC000
7FFFFFFFC000
7FFFFFFFC000
7FFFFFFFC000
7FFFFFFFC000
7FFFFFFFC000
7FFFFFFFC000
7FFFFFFFC000
7FFFFFFFC000
7FFFFFFFC000
7FFFFFFFC000
7FFFFFFFC000
7FFFFFFFC000
7FFFFFFFC000
7FFFFFFFC000
7FFFFFFFC000
7FFFFFFFC000
7FFFFFFFC000
7FFFFFFFC000
7FFFFFFFC000
7FFFFFFFC000
7FFFFFFFC000
7FFFFFFFC000
7FFFFFFFC000
7FFFFFFFC000
7FFFFFFFC000
7FFFFFFFC000
7FFFFFFFC000
7FFFFFFFC000
7FFFFFFFC000
7FFFFFFFC000
7FFFFFFFC000
000000000000
ENDCHAR

STARTCHAR cns1_2333
ENCODING 9011
SWIDTH 903 0
DWIDTH 42 0
BBX 42 42 0 -6
BITMAP
000000000000
00000E000000
00000E000000
00000E000000
00000E000000
00000E000000
00000E000000
00000E000000
00000E000000
00000E000000
00000E000000
00000E000000
00000E000000
00000E000000
00000E000000
00000E000000
00000E000000
00000E000000
00000E000000
00000E000000
7FFFFFFFFF80
7FFFFFFFFF80
7FFFFFFFFF80
00000E000000
00000E000000
00000E000000
00000E000000
00000E000000
00000E000000
00000E000000
00000E000000
00000E000000
00000E000000
00000E000000
00000E000000
00000E000000
00000E000000
00000E000000
00000E000000
00000E000000
00000E000000
000000000000
ENDCHAR

STARTCHAR cns1_2334
ENCODING 9012
SWIDTH 903 0
DWIDTH 42 0
BBX 42 42 0 -6
BITMAP
00000E000000
00000E000000
00000E000000
00000E000000
00000E000000
00000E000000
00000E000000
00000E000000
00000E000000
00000E000000
00000E000000
00000E000000
00000E000000
00000E000000
00000E000000
00000E000000
00000E000000
00000E000000
00000E000000
00000E000000
FFFFFFFFFFC0
FFFFFFFFFFC0
FFFFFFFFFFC0
000000000000
000000000000
000000000000
000000000000
000000000000
000000000000
000000000000
000000000000
000000000000
000000000000
000000000000
000000000000
000000000000
000000000000
000000000000
000000000000
000000000000
000000000000
000000000000
ENDCHAR

STARTCHAR cns1_2335
ENCODING 9013
SWIDTH 903 0
DWIDTH 42 0
BBX 42 42 0 -6
BITMAP
000000000000
000000000000
000000000000
000000000000
000000000000
000000000000
000000000000
000000000000
000000000000
000000000000
000000000000
000000000000
000000000000
000000000000
000000000000
000000000000
000000000000
000000000000
000000000000
000000000000
FFFFFFFFFFC0
FFFFFFFFFFC0
FFFFFFFFFFC0
00000E000000
00000E000000
00000E000000
00000E000000
00000E000000
00000E000000
00000E000000
00000E000000
00000E000000
00000E000000
00000E000000
00000E000000
00000E000000
00000E000000
00000E000000
00000E000000
00000E000000
00000E000000
00000E000000
ENDCHAR

STARTCHAR cns1_2336
ENCODING 9014
SWIDTH 903 0
DWIDTH 42 0
BBX 42 42 0 -6
BITMAP
00000E000000
00000E000000
00000E000000
00000E000000
00000E000000
00000E000000
00000E000000
00000E000000
00000E000000
00000E000000
00000E000000
00000E000000
00000E000000
00000E000000
00000E000000
00000E000000
00000E000000
00000E000000
00000E000000
00000E000000
FFFFFE000000
FFFFFE000000
FFFFFE000000
00000E000000
00000E000000
00000E000000
00000E000000
00000E000000
00000E000000
00000E000000
00000E000000
00000E000000
00000E000000
00000E000000
00000E000000
00000E000000
00000E000000
00000E000000
00000E000000
00000E000000
00000E000000
00000E000000
ENDCHAR

STARTCHAR cns1_2337
ENCODING 9015
SWIDTH 903 0
DWIDTH 42 0
BBX 42 42 0 -6
BITMAP
00000E000000
00000E000000
00000E000000
00000E000000
00000E000000
00000E000000
00000E000000
00000E000000
00000E000000
00000E000000
00000E000000
00000E000000
00000E000000
00000E000000
00000E000000
00000E000000
00000E000000
00000E000000
00000E000000
00000E000000
00000FFFFFC0
00000FFFFFC0
00000FFFFFC0
00000E000000
00000E000000
00000E000000
00000E000000
00000E000000
00000E000000
00000E000000
00000E000000
00000E000000
00000E000000
00000E000000
00000E000000
00000E000000
00000E000000
00000E000000
00000E000000
00000E000000
00000E000000
00000E000000
ENDCHAR

STARTCHAR cns1_2338
ENCODING 9016
SWIDTH 903 0
DWIDTH 42 0
BBX 42 42 0 -6
BITMAP
000000000000
000000000000
000000000000
7FFFFFFFFF80
7FFFFFFFFF80
7FFFFFFFFF80
000000000000
000000000000
000000000000
000000000000
000000000000
000000000000
000000000000
000000000000
000000000000
000000000000
000000000000
000000000000
000000000000
000000000000
000000000000
000000000000
000000000000
000000000000
000000000000
000000000000
000000000000
000000000000
000000000000
000000000000
000000000000
000000000000
000000000000
000000000000
000000000000
000000000000
000000000000
000000000000
000000000000
000000000000
000000000000
000000000000
ENDCHAR

STARTCHAR cns1_2339
ENCODING 9017
SWIDTH 903 0
DWIDTH 42 0
BBX 42 42 0 -6
BITMAP
000000000000
000000000000
000000000000
000000000000
000000000000
000000000000
000000000000
000000000000
000000000000
000000000000
000000000000
000000000000
000000000000
000000000000
000000000000
000000000000
000000000000
000000000000
000000000000
000000000000
FFFFFFFFFFC0
FFFFFFFFFFC0
FFFFFFFFFFC0
000000000000
000000000000
000000000000
000000000000
000000000000
000000000000
000000000000
000000000000
000000000000
000000000000
000000000000
000000000000
000000000000
000000000000
000000000000
000000000000
000000000000
000000000000
000000000000
ENDCHAR

STARTCHAR cns1_233A
ENCODING 9018
SWIDTH 903 0
DWIDTH 42 0
BBX 42 42 0 -6
BITMAP
00000E000000
00000E000000
00000E000000
00000E000000
00000E000000
00000E000000
00000E000000
00000E000000
00000E000000
00000E000000
00000E000000
00000E000000
00000E000000
00000E000000
00000E000000
00000E000000
00000E000000
00000E000000
00000E000000
00000E000000
00000E000000
00000E000000
00000E000000
00000E000000
00000E000000
00000E000000
00000E000000
00000E000000
00000E000000
00000E000000
00000E000000
00000E000000
00000E000000
00000E000000
00000E000000
00000E000000
00000E000000
00000E000000
00000E000000
00000E000000
00000E000000
00000E000000
ENDCHAR

STARTCHAR cns1_233B
ENCODING 9019
SWIDTH 903 0
DWIDTH 42 0
BBX 42 42 0 -6
BITMAP
000000000000
000000001F00
000000001F00
000000001F00
000000001F00
000000001F00
000000001F00
000000001F00
000000001F00
000000001F00
000000001F00
000000001F00
000000001F00
000000001F00
000000001F00
000000001F00
000000001F00
000000001F00
000000001F00
000000001F00
000000001F00
000000001F00
000000001F00
000000001F00
000000001F00
000000001F00
000000001F00
000000001F00
000000001F00
000000001F00
000000001F00
000000001F00
000000001F00
000000001F00
000000001F00
000000001F00
000000001F00
000000001F00
000000001F00
000000001F00
000000001F00
000000000000
ENDCHAR

STARTCHAR cns1_233C
ENCODING 9020
SWIDTH 903 0
DWIDTH 42 0
BBX 42 42 0 -6
BITMAP
000000000000
000000000000
000000000000
000000000000
000000000000
000000000000
000000000000
000000000000
000000000000
000000000000
000000000000
000000000000
000000000000
000000000000
000000000000
000000000000
000000000000
000000000000
000000000000
000000000000
00000FFFFFC0
00000FFFFFC0
00000FFFFFC0
00000E000000
00000E000000
00000E000000
00000E000000
00000E000000
00000E000000
00000E000000
00000E000000
00000E000000
00000E000000
00000E000000
00000E000000
00000E000000
00000E000000
00000E000000
00000E000000
00000E000000
00000E000000
00000E000000
ENDCHAR

STARTCHAR cns1_233D
ENCODING 9021
SWIDTH 903 0
DWIDTH 42 0
BBX 42 42 0 -6
BITMAP
000000000000
000000000000
000000000000
000000000000
000000000000
000000000000
000000000000
000000000000
000000000000
000000000000
000000000000
000000000000
000000000000
000000000000
000000000000
000000000000
000000000000
000000000000
000000000000
000000000000
FFFFFE000000
FFFFFE000000
FFFFFE000000
00000E000000
00000E000000
00000E000000
00000E000000
00000E000000
00000E000000
00000E000000
00000E000000
00000E000000
00000E000000
00000E000000
00000E000000
00000E000000
00000E000000
00000E000000
00000E000000
00000E000000
00000E000000
00000E000000
ENDCHAR

STARTCHAR cns1_233E
ENCODING 9022
SWIDTH 903 0
DWIDTH 42 0
BBX 42 42 0 -6
BITMAP
00000E000000
00000E000000
00000E000000
00000E000000
00000E000000
00000E000000
00000E000000
00000E000000
00000E000000
00000E000000
00000E000000
00000E000000
00000E000000
00000E000000
00000E000000
00000E000000
00000E000000
00000E000000
00000E000000
00000E000000
00000FFFFFC0
00000FFFFFC0
00000FFFFFC0
000000000000
000000000000
000000000000
000000000000
000000000000
000000000000
000000000000
000000000000
000000000000
000000000000
000000000000
000000000000
000000000000
000000000000
000000000000
000000000000
000000000000
000000000000
000000000000
ENDCHAR

STARTCHAR cns1_233F
ENCODING 9023
SWIDTH 903 0
DWIDTH 42 0
BBX 42 42 0 -6
BITMAP
00000E000000
00000E000000
00000E000000
00000E000000
00000E000000
00000E000000
00000E000000
00000E000000
00000E000000
00000E000000
00000E000000
00000E000000
00000E000000
00000E000000
00000E000000
00000E000000
00000E000000
00000E000000
00000E000000
00000E000000
FFFFFE000000
FFFFFE000000
FFFFFE000000
000000000000
000000000000
000000000000
000000000000
000000000000
000000000000
000000000000
000000000000
000000000000
000000000000
000000000000
000000000000
000000000000
000000000000
000000000000
000000000000
000000000000
000000000000
000000000000
ENDCHAR

STARTCHAR cns1_2340
ENCODING 9024
SWIDTH 903 0
DWIDTH 42 0
BBX 42 42 0 -6
BITMAP
000000000000
000000000000
000000000000
000000000000
000000000000
000000000000
000000000000
000000000000
000000000000
000000000000
000000000000
000000000000
000000000000
000000000000
000000000000
000000000000
000000000000
000000000000
000000000000
000000000000
00000001FFC0
00000007FFC0
0000001FFFC0
0000003E0000
000000780000
000000F00000
000000E00000
000001C00000
000001800000
000003800000
000003800000
000003800000
000007000000
000007000000
000007000000
000007000000
000007000000
000007000000
000007000000
000007000000
000007000000
000007000000
ENDCHAR

STARTCHAR cns1_2341
ENCODING 9025
SWIDTH 903 0
DWIDTH 42 0
BBX 42 42 0 -6
BITMAP
000000000000
000000000000
000000000000
000000000000
000000000000
000000000000
000000000000
000000000000
000000000000
000000000000
000000000000
000000000000
000000000000
000000000000
000000000000
000000000000
000000000000
000000000000
000000000000
000000000000
FFE000000000
FFFE00000000
FFFF80000000
000FE0000000
0001F0000000
000070000000
000038000000
00003C000000
00001C000000
00000E000000
00000E000000
000007000000
000007000000
000007000000
000007000000
000007000000
000007000000
000007000000
000007000000
000007000000
000007000000
000007000000
ENDCHAR

STARTCHAR cns1_2342
ENCODING 9026
SWIDTH 903 0
DWIDTH 42 0
BBX 42 42 0 -6
BITMAP
000007000000
000007000000
000007000000
000007000000
000007000000
000007000000
000007000000
000007000000
000007000000
000007000000
000007000000
000007000000
000007000000
000007800000
000003800000
000003800000
000001C00000
000001E00000
000000F00000
0000007C0000
0000003FFFC0
0000001FFFC0
00000003FFC0
000000000000
000000000000
000000000000
000000000000
000000000000
000000000000
000000000000
000000000000
000000000000
000000000000
000000000000
000000000000
000000000000
000000000000
000000000000
000000000000
000000000000
000000000000
000000000000
ENDCHAR

STARTCHAR cns1_2343
ENCODING 9027
SWIDTH 903 0
DWIDTH 42 0
BBX 42 42 0 -6
BITMAP
000007000000
000007000000
000007000000
000007000000
000007000000
000007000000
000007000000
000007000000
000007000000
000007000000
000007000000
000006000000
00000E000000
00000E000000
00001C000000
000038000000
000078000000
0000F0000000
0001E0000000
0003C0000000
FFFF00000000
FFFF00000000
FFF800000000
000000000000
000000000000
000000000000
000000000000
000000000000
000000000000
000000000000
000000000000
000000000000
000000000000
000000000000
000000000000
000000000000
000000000000
000000000000
000000000000
000000000000
000000000000
000000000000
ENDCHAR

STARTCHAR cns1_2344
ENCODING 9028
SWIDTH 903 0
DWIDTH 42 0
BBX 42 42 0 -6
BITMAP
000000000000
000000000000
000000000000
000000000000
000000000000
000000000000
000000000000
000000000000
000000000000
000000000000
000000000000
000000000000
FFFFFFFFFFC0
FFFFFFFFFFC0
FFFFFFFFFFC0
000000000000
000000000000
000000000000
000000000000
000000000000
000000000000
000000000000
000000000000
000000000000
000000000000
000000000000
000000000000
FFFFFFFFFFC0
FFFFFFFFFFC0
FFFFFFFFFFC0
000000000000
000000000000
000000000000
000000000000
000000000000
000000000000
000000000000
000000000000
000000000000
000000000000
000000000000
000000000000
ENDCHAR

STARTCHAR cns1_2345
ENCODING 9029
SWIDTH 903 0
DWIDTH 42 0
BBX 42 42 0 -6
BITMAP
00001C000000
00001C000000
00001C000000
00001C000000
00001C000000
00001C000000
00001C000000
00001C000000
00001C000000
00001C000000
00001C000000
00001C000000
00001FFFFFC0
00001FFFFFC0
00001FFFFFC0
00001C000000
00001C000000
00001C000000
00001C000000
00001C000000
00001C000000
00001C000000
00001C000000
00001C000000
00001C000000
00001C000000
00001C000000
00001FFFFFC0
00001FFFFFC0
00001FFFFFC0
00001C000000
00001C000000
00001C000000
00001C000000
00001C000000
00001C000000
00001C000000
00001C000000
00001C000000
00001C000000
00001C000000
00001C000000
ENDCHAR

STARTCHAR cns1_2346
ENCODING 9030
SWIDTH 903 0
DWIDTH 42 0
BBX 42 42 0 -6
BITMAP
00000E000000
00000E000000
00000E000000
00000E000000
00000E000000
00000E000000
00000E000000
00000E000000
00000E000000
00000E000000
00000E000000
00000E000000
FFFFFFFFFFC0
FFFFFFFFFFC0
FFFFFFFFFFC0
00000E000000
00000E000000
00000E000000
00000E000000
00000E000000
00000E000000
00000E000000
00000E000000
00000E000000
00000E000000
00000E000000
00000E000000
FFFFFFFFFFC0
FFFFFFFFFFC0
FFFFFFFFFFC0
00000E000000
00000E000000
00000E000000
00000E000000
00000E000000
00000E000000
00000E000000
00000E000000
00000E000000
00000E000000
00000E000000
00000E000000
ENDCHAR

STARTCHAR cns1_2347
ENCODING 9031
SWIDTH 903 0
DWIDTH 42 0
BBX 42 42 0 -6
BITMAP
00000E000000
00000E000000
00000E000000
00000E000000
00000E000000
00000E000000
00000E000000
00000E000000
00000E000000
00000E000000
00000E000000
00000E000000
FFFFFE000000
FFFFFE000000
FFFFFE000000
00000E000000
00000E000000
00000E000000
00000E000000
00000E000000
00000E000000
00000E000000
00000E000000
00000E000000
00000E000000
00000E000000
00000E000000
FFFFFE000000
FFFFFE000000
FFFFFE000000
00000E000000
00000E000000
00000E000000
00000E000000
00000E000000
00000E000000
00000E000000
00000E000000
00000E000000
00000E000000
00000E000000
00000E000000
ENDCHAR

STARTCHAR cns1_2348
ENCODING 9032
SWIDTH 903 0
DWIDTH 42 0
BBX 42 42 0 -6
BITMAP
000000000000
000000000380
000000000780
000000000F80
000000001F80
000000003F80
000000007F80
00000000FF80
00000000FF80
00000001FF80
00000003FF80
00000007FF80
0000000FFF80
0000001FFF80
0000003FFF80
0000007FFF80
000000FFFF80
000001FFFF80
000003FFFF80
000007FFFF80
00000FFFFF80
00001FFFFF80
00003FFFFF80
00007FFFFF80
00007FFFFF80
0000FFFFFF80
0001FFFFFF80
0003FFFFFF80
0007FFFFFF80
000FFFFFFF80
001FFFFFFF80
003FFFFFFF80
007FFFFFFF80
00FFFFFFFF80
01FFFFFFFF80
03FFFFFFFF80
07FFFFFFFF80
0FFFFFFFFF80
1FFFFFFFFF80
3FFFFFFFFF80
3FFFFFFFFF80
000000000000
ENDCHAR

STARTCHAR cns1_2349
ENCODING 9033
SWIDTH 903 0
DWIDTH 42 0
BBX 42 42 0 -6
BITMAP
000000000000
700000000000
780000000000
7C0000000000
7E0000000000
7F0000000000
7F0000000000
7F8000000000
7FC000000000
7FE000000000
7FF000000000
7FF800000000
7FFC00000000
7FFE00000000
7FFF00000000
7FFF80000000
7FFFC0000000
7FFFE0000000
7FFFF0000000
7FFFF8000000
7FFFFC000000
7FFFFE000000
7FFFFE000000
7FFFFF000000
7FFFFF800000
7FFFFFC00000
7FFFFFE00000
7FFFFFF00000
7FFFFFF80000
7FFFFFFC0000
7FFFFFFE0000
7FFFFFFF0000
7FFFFFFF8000
7FFFFFFFC000
7FFFFFFFE000
7FFFFFFFF000
7FFFFFFFF800
7FFFFFFFFC00
7FFFFFFFFC00
7FFFFFFFFE00
7FFFFFFFFF00
000000000000
ENDCHAR

STARTCHAR cns1_234A
ENCODING 9034
SWIDTH 903 0
DWIDTH 42 0
BBX 42 42 0 -6
BITMAP
000000000000
7FFFFFFFFF80
3FFFFFFFFF80
1FFFFFFFFF80
0FFFFFFFFF80
07FFFFFFFF80
03FFFFFFFF80
01FFFFFFFF80
00FFFFFFFF80
007FFFFFFF80
003FFFFFFF80
001FFFFFFF80
000FFFFFFF80
0007FFFFFF80
0003FFFFFF80
0001FFFFFF80
0000FFFFFF80
00007FFFFF80
00003FFFFF80
00001FFFFF80
00000FFFFF80
000007FFFF80
000003FFFF80
000001FFFF80
000000FFFF80
0000007FFF80
0000003FFF80
0000001FFF80
0000000FFF80
00000007FF80
00000003FF80
00000001FF80
00000000FF80
000000007F80
000000003F80
000000001F80
000000000F80
000000000780
000000000380
000000000180
000000000080
000000000000
ENDCHAR

STARTCHAR cns1_234B
ENCODING 9035
SWIDTH 903 0
DWIDTH 42 0
BBX 42 42 0 -6
BITMAP
000000000000
7FFFFFFFFF00
7FFFFFFFFE00
7FFFFFFFFC00
7FFFFFFFF800
7FFFFFFFF000
7FFFFFFFE000
7FFFFFFFC000
7FFFFFFF8000
7FFFFFFF0000
7FFFFFFE0000
7FFFFFFC0000
7FFFFFF80000
7FFFFFF00000
7FFFFFE00000
7FFFFFC00000
7FFFFF800000
7FFFFF000000
7FFFFE000000
7FFFFC000000
7FFFF8000000
7FFFF0000000
7FFFE0000000
7FFFC0000000
7FFF80000000
7FFF00000000
7FFE00000000
7FFC00000000
7FF800000000
7FF000000000
7FE000000000
7FC000000000
7F8000000000
7F0000000000
7E0000000000
7C0000000000
780000000000
700000000000
600000000000
400000000000
400000000000
000000000000
ENDCHAR

STARTCHAR cns1_234C
ENCODING 9036
SWIDTH 903 0
DWIDTH 42 0
BBX 42 42 0 -6
BITMAP
000000000000
000000000000
000000000600
000000000F00
000000001C00
000000003800
000000007000
00000000E000
00000001C000
000000038000
000000070000
0000000E0000
0000001C0000
000000380000
000000700000
000000E00000
000001C00000
000003800000
000007000000
00000E000000
00001C000000
000018000000
000030000000
000060000000
0000C0000000
000180000000
000300000000
000600000000
000C00000000
001800000000
003000000000
006000000000
00C000000000
018000000000
030000000000
060000000000
0C0000000000
080000000000
380000000000
100000000000
000000000000
000000000000
ENDCHAR

STARTCHAR cns1_234D
ENCODING 9037
SWIDTH 903 0
DWIDTH 42 0
BBX 42 42 0 -6
BITMAP
000000000000
000000000000
180000000000
2C0000000000
060000000000
030000000000
018000000000
00C000000000
006000000000
003000000000
001800000000
000C00000000
000600000000
000700000000
000380000000
000180000000
0000C0000000
000060000000
000030000000
000018000000
00000C000000
000006000000
000003000000
000001800000
000000C00000
000000600000
000000300000
000000180000
0000000C0000
0000000E0000
000000070000
000000030000
000000018000
00000000C000
000000006000
000000003000
000000001800
000000000C00
000000000600
000000000200
000000000000
000000000000
ENDCHAR

STARTCHAR cns1_234E
ENCODING 9038
SWIDTH 903 0
DWIDTH 42 0
BBX 42 42 0 -6
BITMAP
000000000000
000000000000
100000000400
380000000E00
0C0000001C00
060000001800
030000003000
018000006000
00C00000C000
006000018000
003000030000
001800060000
000C000C0000
000600180000
000700300000
000380600000
0001C0C00000
0000E1C00000
000063800000
00001E000000
00001E000000
00001E000000
000023000000
000061800000
0000C0C00000
000180600000
000300300000
000600180000
000C000C0000
001800060000
003000070000
006000038000
00E00001C000
01C00000C000
038000006000
070000003000
0E0000001800
0C0000000C00
380000000600
100000000200
000000000000
000000000000
ENDCHAR

STARTCHAR cns1_234F
ENCODING 9039
SWIDTH 903 0
DWIDTH 42 0
BBX 42 42 0 -6
BITMAP
000000000000
000000000000
000000000000
180000000600
180000000600
000000000000
000000000000
000000000000
000000000000
000000000000
000000000000
000000000000
000000000000
000000000000
000000000000
000000000000
000000000000
000000000000
000000000000
000000000000
000000000000
000000000000
000000000000
000000000000
000000000000
000000000000
000000000000
000000000000
000000000000
000000000000
000000000000
000000000000
000000000000
000000000000
000000000000
000000000000
000000000000
180000000600
180000000600
000000000000
000000000000
000000000000
ENDCHAR

STARTCHAR cns1_2421
ENCODING 9249
SWIDTH 960 0
DWIDTH 42 0
BBX 42 42 0 -6
BITMAP
000000000000
000000000000
000000000000
000000000000
000000000000
000000000000
00001F000000
000071C00000
0000C0400000
0001C0200000
000180300000
000300380000
000300380000
000700180000
0006001C0000
000E001C0000
000E001C0000
000E001C0000
000E001C0000
000E001C0000
000E001C0000
000E001C0000
000E001C0000
000E001C0000
000E001C0000
000E00380000
000E00380000
000600380000
000600380000
000600300000
000300600000
000300600000
000180C00000
0000C1800000
00003F000000
000000000000
000000000000
000000000000
000000000000
000000000000
000000000000
000000000000
ENDCHAR

STARTCHAR cns1_2422
ENCODING 9250
SWIDTH 960 0
DWIDTH 42 0
BBX 42 42 0 -6
BITMAP
000000000000
000000000000
000000000000
000000000000
000000000000
000000000000
000006000000
00003E000000
0003FE000000
00010E000000
00000E000000
00000E000000
00000E000000
00000E000000
00000E000000
00000E000000
00000E000000
00000E000000
00000E000000
00000E000000
00000E000000
00000E000000
00000E000000
00000E000000
00000E000000
00000E000000
00000E000000
00000E000000
00000E000000
00000E000000
00000E000000
00000E000000
00000E000000
00001F000000
0001FFE00000
000000000000
000000000000
000000000000
000000000000
000000000000
000000000000
000000000000
ENDCHAR

STARTCHAR cns1_2423
ENCODING 9251
SWIDTH 960 0
DWIDTH 42 0
BBX 42 42 0 -6
BITMAP
000000000000
000000000000
000000000000
000000000000
000000000000
000000000000
00003F800000
0000F1E00000
000180700000
000300300000
000300180000
0007801C0000
0007801C0000
0007C0380000
000380380000
000000380000
000000780000
000000700000
000000E00000
000001C00000
000003800000
000007000000
00000E000000
00001C000000
000018000000
000030000000
000060000000
0000C0000000
0000C0040000
000180080000
000300080000
000300180000
000700180000
0007FFF80000
000FFFF80000
000000000000
000000000000
000000000000
000000000000
000000000000
000000000000
000000000000
ENDCHAR

STARTCHAR cns1_2424
ENCODING 9252
SWIDTH 960 0
DWIDTH 42 0
BBX 42 42 0 -6
BITMAP
000000000000
000000000000
000000000000
000000000000
000000000000
000000000000
00003F000000
0000FFC00000
000180E00000
000380700000
000380700000
000380700000
000380380000
000300380000
000000380000
000000300000
000000700000
000000E00000
000001000000
00003F000000
00007F800000
000003E00000
000000700000
000000780000
000000380000
0000003C0000
0000001C0000
0000001C0000
000F00180000
000F00380000
000F00380000
000F00380000
000700700000
000381E00000
0000FF800000
00003C000000
000000000000
000000000000
000000000000
000000000000
000000000000
000000000000
ENDCHAR

STARTCHAR cns1_2425
ENCODING 9253
SWIDTH 960 0
DWIDTH 42 0
BBX 42 42 0 -6
BITMAP
000000000000
000000000000
000000000000
000000000000
000000000000
000000000000
000001C00000
000003C00000
000003C00000
000007C00000
00000FC00000
00000DC00000
000019C00000
000039C00000
000031C00000
000071C00000
000061C00000
0000C1C00000
0000C1C00000
000181C00000
000181C00000
000301C00000
000301C00000
000601C00000
000601C00000
000C01C00000
000FFFFE0000
000FFFFE0000
000001C00000
000001C00000
000001C00000
000001C00000
000001C00000
000003C00000
00000FF00000
000000000000
000000000000
000000000000
000000000000
000000000000
000000000000
000000000000
ENDCHAR

STARTCHAR cns1_2426
ENCODING 9254
SWIDTH 960 0
DWIDTH 42 0
BBX 42 42 0 -6
BITMAP
000000000000
000000000000
000000000000
000000000000
000000000000
000000000000
0003FFF80000
0003FFF80000
0003FFF00000
000300000000
000300000000
000300000000
000300000000
000300000000
000300000000
000300000000
000300000000
00027F800000
0003E3C00000
000381E00000
000300F00000
000000780000
000000380000
000000380000
000000380000
000000380000
000000380000
000700380000
000F00380000
000F00780000
000F00700000
000700E00000
000781E00000
0001C7C00000
0000FF000000
000000000000
000000000000
000000000000
000000000000
000000000000
000000000000
000000000000
ENDCHAR

STARTCHAR cns1_2427
ENCODING 9255
SWIDTH 960 0
DWIDTH 42 0
BBX 42 42 0 -6
BITMAP
000000000000
000000000000
000000000000
000000000000
000000000000
000000000000
00000FC00000
00001FF00000
000030380000
000060380000
0000C03C0000
0001C0380000
000180100000
000380000000
000300000000
000700000000
000700000000
00071F800000
000663E00000
000FC0E00000
000F80700000
000F00300000
000F00380000
000E00380000
000E003C0000
000E003C0000
0006001C0000
0006001C0000
000600180000
000700380000
000700380000
000380700000
0001C0E00000
0000E1C00000
00007F800000
000004000000
000000000000
000000000000
000000000000
000000000000
000000000000
000000000000
ENDCHAR

STARTCHAR cns1_2428
ENCODING 9256
SWIDTH 960 0
DWIDTH 42 0
BBX 42 42 0 -6
BITMAP
000000000000
000000000000
000000000000
000000000000
000000000000
000000000000
0003FFF80000
0003FFDC0000
000700180000
000600100000
000600300000
000C00200000
000000600000
000000C00000
000000C00000
000001800000
000001800000
000003000000
000003000000
000006000000
000006000000
00000C000000
00000C000000
00001C000000
000018000000
000038000000
000038000000
000078000000
000070000000
000070000000
0000F0000000
0000F0000000
0000E0000000
0000E0000000
0000E0000000
000000000000
000000000000
000000000000
000000000000
000000000000
000000000000
000000000000
ENDCHAR

STARTCHAR cns1_2429
ENCODING 9257
SWIDTH 960 0
DWIDTH 42 0
BBX 42 42 0 -6
BITMAP
000000000000
000000000000
000000000000
000000000000
000000000000
000000000000
00003F800000
0000E3C00000
0001C0700000
000100380000
000300380000
000300180000
000300180000
000700180000
000300180000
000380380000
0003C0700000
0001F0E00000
00007F000000
00003F000000
00003F800000
0000E7E00000
0001C1F00000
000380F80000
0007007C0000
000E003C0000
000E001C0000
000E001C0000
000E001C0000
000E001C0000
000F00180000
000700180000
0007C0700000
0001E1E00000
0000FFC00000
000006000000
000000000000
000000000000
000000000000
000000000000
000000000000
000000000000
ENDCHAR

STARTCHAR cns1_242A
ENCODING 9258
SWIDTH 960 0
DWIDTH 42 0
BBX 42 42 0 -6
BITMAP
000000000000
000000000000
000000000000
000000000000
000000000000
000000000000
00003F000000
0000C7C00000
0001C0C00000
000380600000
000300600000
000700300000
000600300000
000E00380000
000E00380000
000E00180000
000E00180000
000E00180000
000600380000
000700380000
000380580000
000380980000
0001E3380000
00007E380000
000000380000
000000300000
000000300000
000000700000
000000700000
000600E00000
000700E00000
000701C00000
000781800000
000387000000
0000FE000000
000000000000
000000000000
000000000000
000000000000
000000000000
000000000000
000000000000
ENDCHAR

STARTCHAR cns1_242B
ENCODING 9259
SWIDTH 960 0
DWIDTH 42 0
BBX 42 42 0 -6
BITMAP
000000000000
000000000000
000000000000
000000000000
000FFFF80000
00003C000000
00003C000000
00003C000000
00003C000000
00003C000000
00003C000000
00003C000000
00003C000000
00003C000000
00003C000000
00003C000000
00003C000000
00003C000000
00003C000000
00003C000000
00003C000000
00003C000000
00003C000000
00003C000000
00003C000000
00003C000000
00003C000000
00003C000000
00003C000000
00003C000000
00003C000000
00003C000000
00003C000000
00003C000000
000FFFF80000
000000000000
000000000000
000000000000
000000000000
000000000000
000000000000
000000000000
ENDCHAR

STARTCHAR cns1_242C
ENCODING 9260
SWIDTH 960 0
DWIDTH 42 0
BBX 42 42 0 -6
BITMAP
000000000000
000000000000
000000000000
000000000000
003FFFFF8000
0003E0F80000
0003E0F80000
0003E0F80000
0003E0F80000
0003E0F80000
0003E0F80000
0003E0F80000
0003E0F80000
0003E0F80000
0003E0F80000
0003E0F80000
0003E0F80000
0003E0F80000
0003E0F80000
0003E0F80000
0003E0F80000
0003E0F80000
0003E0F80000
0003E0F80000
0003E0F80000
0003E0F80000
0003E0F80000
0003E0F80000
0003E0F80000
0003E0F80000
0003E0F80000
0003E0F80000
0003E0F80000
0003E0F80000
003FFFFF8000
000000000000
000000000000
000000000000
000000000000
000000000000
000000000000
000000000000
ENDCHAR

STARTCHAR cns1_242D
ENCODING 9261
SWIDTH 960 0
DWIDTH 42 0
BBX 42 42 0 -6
BITMAP
000000000000
000000000000
000000000000
000000000000
007FFFFF0000
001E3C3C0000
001E3C3C0000
001E3C3C0000
001E3C3C0000
001E3C3C0000
001E3C3C0000
001E3C3C0000
001E3C3C0000
001E3C3C0000
001E3C3C0000
001E3C3C0000
001E3C3C0000
001E3C3C0000
001E3C3C0000
001E3C3C0000
001E3C3C0000
001E3C3C0000
001E3C3C0000
001E3C3C0000
001E3C3C0000
001E3C3C0000
001E3C3C0000
001E3C3C0000
001E3C3C0000
001E3C3C0000
001E3C3C0000
001E3C3C0000
001E3C3C0000
001E3C3C0000
007FFFFF0000
000000000000
000000000000
000000000000
000000000000
000000000000
000000000000
000000000000
ENDCHAR

STARTCHAR cns1_242E
ENCODING 9262
SWIDTH 960 0
DWIDTH 42 0
BBX 42 42 0 -6
BITMAP
000000000000
000000000000
000000000000
000000000000
3FFFF800FE00
0780E0007800
078060007000
07806000F000
07807000F000
07803000F000
07803000E000
07803801E000
07803801E000
07801801C000
07801C01C000
07801C03C000
07800C038000
07800C038000
07800E038000
078006070000
078006070000
078007070000
078003060000
0780030E0000
0780038E0000
0780018E0000
0780018C0000
0780019C0000
0780019C0000
078000980000
078000F80000
078000F80000
078000700000
078000700000
3FF800700000
000000200000
000000000000
000000000000
000000000000
000000000000
000000000000
000000000000
ENDCHAR

STARTCHAR cns1_242F
ENCODING 9263
SWIDTH 960 0
DWIDTH 42 0
BBX 42 42 0 -6
BITMAP
000000000000
000000000000
000000000000
000000000000
0FFC0007FC00
00F00001C000
00700003C000
00780003C000
007800038000
003C00078000
003C00070000
003C00070000
001E000F0000
001E000E0000
000E001E0000
000F001E0000
000F001C0000
0007803C0000
000780380000
000780380000
0003C0780000
0003C0700000
0001C0F00000
0001E0F00000
0001E0E00000
0000F1E00000
0000F1C00000
0000F1C00000
000073C00000
000073800000
00003F800000
00003F800000
00003F000000
00001F000000
00001E000000
00001E000000
000000000000
000000000000
000000000000
000000000000
000000000000
000000000000
ENDCHAR

STARTCHAR cns1_2430
ENCODING 9264
SWIDTH 960 0
DWIDTH 42 0
BBX 42 42 0 -6
BITMAP
000000000000
000000000000
000000000000
000000000000
3FC007FFFF00
070003C1F000
07000381F000
07000781F000
03800781F000
03800781F000
03800701F000
01C00F01F000
01C00F01F000
01C00E01F000
00E00E01F000
00E01E01F000
00E01C01F000
00E01C01F000
00701C01F000
00703801F000
00703801F000
00383801F000
00383001F000
00387001F000
001C7001F000
001C7001F000
001C6001F000
000CE001F000
000CE001F000
000CC001F000
0007C001F000
0007C001F000
00078001F000
00078001F000
0003801FFF00
000300000000
000000000000
000000000000
000000000000
000000000000
000000000000
000000000000
ENDCHAR

STARTCHAR cns1_2431
ENCODING 9265
SWIDTH 960 0
DWIDTH 42 0
BBX 42 42 0 -6
BITMAP
000000000000
000000000000
000000000000
000000000000
3FC007FFFF00
0700038F1C00
0300078F1C00
0380078F1C00
0380078F1C00
0180078F1C00
01C00F0F1C00
01C00F0F1C00
01C00F0F1C00
00C00E0F1C00
00E01E0F1C00
00E01E0F1C00
00601C0F1C00
00701C0F1C00
00703C0F1C00
0030380F1C00
0038380F1C00
0038380F1C00
0018700F1C00
001C700F1C00
001C700F1C00
000C700F1C00
000CE00F1C00
000CE00F1C00
000CE00F1C00
0004C00F1C00
0007C00F1C00
0007C00F1C00
0003800F1C00
0003800F1C00
0003803FFF00
000100000000
000000000000
000000000000
000000000000
000000000000
000000000000
000000000000
ENDCHAR

STARTCHAR cns1_2432
ENCODING 9266
SWIDTH 960 0
DWIDTH 42 0
BBX 42 42 0 -6
BITMAP
000000000000
000000000000
000000000000
000000000000
3F801FFFFF00
3F000FF19C00
1F000FF19C00
0F000E719C00
0F800E719C00
0F801E719C00
07801C719C00
07801C719C00
07C01C719C00
03C03C719C00
03C03C719C00
03C03C719C00
01E03C719C00
01E078719C00
01E078719C00
01E078719C00
00F070719C00
00F0F0719C00
00F0F0719C00
0070E0719C00
0078E0719C00
0071E0719C00
0031C0719C00
0031C0719C00
0039C0719C00
001FC0719C00
001F80719C00
001F80719C00
000F80719C00
000F00FFFF00
000000000000
000000000000
000000000000
000000000000
000000000000
000000000000
000000000000
000000000000
ENDCHAR

STARTCHAR cns1_2433
ENCODING 9267
SWIDTH 960 0
DWIDTH 42 0
BBX 42 42 0 -6
BITMAP
000000000000
000000000000
000000000000
000000000000
3FF000000000
0787F801FE00
0781F000F800
0781F001F800
0780F801F000
07807C03E000
07803C07E000
07803E07C000
07801F0F8000
07800F1F8000
07800F1F0000
078007FE0000
078003FE0000
078001F80000
078001F80000
078001F80000
078003FC0000
078003FE0000
078007FE0000
07800F1F0000
07800F0F8000
07801F0F8000
07803E07C000
07807C07E000
07807C03E000
0780F801F000
0781F000F800
0781E0007800
0783E0007C00
0787F801FF00
3FF000000000
000000000000
000000000000
000000000000
000000000000
000000000000
000000000000
000000000000
ENDCHAR

STARTCHAR cns1_2434
ENCODING 9268
SWIDTH 960 0
DWIDTH 42 0
BBX 42 42 0 -6
BITMAP
000000000000
000000000000
000000000000
000000000000
3FE00007FC00
3F800003F000
07800007E000
03C00007C000
01E0000F8000
00F0001F0000
0078003E0000
007C007C0000
003E00F80000
001F01F00000
000F83E00000
0007C7C00000
0003CF800000
0001FF800000
00007E000000
00007E000000
0000FF000000
0001FF800000
0003E7C00000
0007E3E00000
000FC1F00000
001F80F80000
003F007C0000
007E003E0000
00F8001F0000
01F0000F8000
03C00003C000
07800001E000
0F800001F000
3FE00007FE00
3FE000000000
000000000000
000000000000
000000000000
000000000000
000000000000
000000000000
000000000000
ENDCHAR

STARTCHAR cns1_2435
ENCODING 9269
SWIDTH 960 0
DWIDTH 42 0
BBX 42 42 0 -6
BITMAP
000000000000
000000000000
000000000000
000000000000
000078000000
000078000000
000078000000
000078000000
000078000000
000078000000
000078000000
000078000000
000078000000
000078000000
000078000000
000078000000
000078000000
000078000000
000078000000
000078000000
000078000000
000078000000
000078000000
000078000000
000078000000
000078000000
000078000000
000078000000
000078000000
000078000000
000078000000
000078000000
000078000000
000078000000
000078000000
000078000000
000000000000
000000000000
000000000000
000000000000
000000000000
000000000000
ENDCHAR

STARTCHAR cns1_2436
ENCODING 9270
SWIDTH 960 0
DWIDTH 42 0
BBX 42 42 0 -6
BITMAP
000000000000
000000000000
000000000000
000000000000
000000E00000
000001E00000
000003C00000
000003C00000
000003C00000
000383C00000
000703C00000
000F03C00000
000F03C00000
000F03C00000
000F03C00000
000F03C00000
000F03C00000
000F03C00000
000F03C00000
000F03C00000
000F03C00000
000F03C00000
000F03C00000
000F03C00000
000F03C00000
000F03C00000
000F03C00000
000F03C00000
000F03C00000
000F03C00000
000F03C00000
000603C00000
000003C00000
000003C00000
000003C00000
000001C00000
000000800000
000000000000
000000000000
000000000000
000000000000
000000000000
ENDCHAR

STARTCHAR cns1_2437
ENCODING 9271
SWIDTH 960 0
DWIDTH 42 0
BBX 42 42 0 -6
BITMAP
000000000000
000000000000
000000000000
000000000000
000000000000
000000000000
000000000000
0000001C0000
0008001C0000
003C001C0000
003C001C0000
003C001C0000
003C1C1C0000
003C1C1C0000
003C1C1C0000
003C1C1C0000
003C1C1C0000
003C1C1C0000
003C1C1C0000
003C1C1C0000
003C1C1C0000
003C1C1C0000
003C1C1C0000
003C1C1C0000
003C1C1C0000
003C1C1C0000
003C1C1C0000
003C1C1C0000
003C0C1C0000
003C001C0000
001C001C0000
0008001C0000
0000001C0000
0000001C0000
0000001C0000
0000001C0000
000000080000
000000000000
000000000000
000000000000
000000000000
000000000000
ENDCHAR

STARTCHAR cns1_2438
ENCODING 9272
SWIDTH 960 0
DWIDTH 42 0
BBX 42 42 0 -6
BITMAP
000000000000
000000000000
000000000000
000000000000
000000000000
000000000000
000000000000
030000003000
078000007800
03C00000F800
01E00001F000
00F00003E000
00780007C000
003C000F8000
001E001F0000
000F003E0000
0007807C0000
0003C0F80000
0001E1F00000
0000E3E00000
00003FC00000
00003F000000
00003F000000
00007F800000
0000F3C00000
0001F1E00000
0003E1F00000
0007C0F80000
000F807C0000
001F003E0000
003E001F0000
007C000F8000
00F80007C000
01F00003E000
03E00001F000
01C00000F000
008000006000
000000000000
000000000000
000000000000
000000000000
000000000000
ENDCHAR

STARTCHAR cns1_2439
ENCODING 9273
SWIDTH 960 0
DWIDTH 42 0
BBX 42 42 0 -6
BITMAP
000000000000
000000000000
000000000000
000000000000
000000000000
00000C080000
00001E1C0000
00003E1C0000
00003C3C0000
000078380000
0000F0780000
0000E0700000
0000E0E00000
0000E1E00000
0000E3C00000
0000C7800000
0000FF800000
00001F800000
00001FC00000
000073E00000
000060E00000
0000E0F00000
0001C0700000
000380700000
000380700000
000700700000
000700700000
000700700000
000700700000
000700700000
000700700000
000700F00000
000700F00000
000701E00000
000701C00000
000783C00000
0003FF800000
0001FF000000
00007C000000
000000000000
000000000000
000000000000
ENDCHAR

STARTCHAR cns1_243A
ENCODING 9274
SWIDTH 960 0
DWIDTH 42 0
BBX 42 42 0 -6
BITMAP
000000000000
000000000000
000000000000
000000000000
000000000000
000000000000
000000000000
000000000000
000000000000
000000000000
000060000000
000078000000
000078000000
000078000000
000078000000
000078000000
000078000000
000078000000
000078030000
000078038000
00007807C000
03FFFFFFE000
03FFFFFFE000
03FFFFFFE000
000000000000
000000000000
000000000000
000000000000
000000000000
000000000000
000000000000
000000000000
000000000000
000000000000
000000000000
000000000000
000000000000
000000000000
000000000000
000000000000
000000000000
000000000000
ENDCHAR

STARTCHAR cns1_243B
ENCODING 9275
SWIDTH 960 0
DWIDTH 42 0
BBX 42 42 0 -6
BITMAP
000000000000
000000000000
000000000000
000000000000
000000000000
000000000000
000000000000
000040000000
000078000000
000078000000
000078000000
000078000000
000078000000
000078000000
000078000000
000078060000
0000780F0000
0000781F0000
0FFFFFFF8000
0FFFFFFFC000
07FFFFE7C000
000000000000
000000000000
000000180000
0000003C0000
0000003E0000
00FFFFFF0000
00FFFFFF0000
000000000000
000000000000
000000000000
000000000000
000000000000
000000000000
000000000000
000000000000
000000000000
000000000000
000000000000
000000000000
000000000000
000000000000
ENDCHAR

STARTCHAR cns1_243C
ENCODING 9276
SWIDTH 960 0
DWIDTH 42 0
BBX 42 42 0 -6
BITMAP
000000000000
000000000000
000000000000
000000000000
000000000000
000060000000
000078000000
000078000000
000078000000
000078000000
000078000000
000078000000
000078000000
000078060000
0000780F0000
0000781F8000
03FFFFFFC000
03FFFFFFC000
000000000000
000000000000
000000000000
000000000000
000000600000
000000F00000
000001F80000
001FFFFC0000
001FFFFC0000
000000000000
000000000000
000000018000
00000003C000
00000003E000
0FFFFFFFF000
0FFFFFFFF000
07FFFFFFF000
000000000000
000000000000
000000000000
000000000000
000000000000
000000000000
000000000000
ENDCHAR

STARTCHAR cns1_243D
ENCODING 9277
SWIDTH 960 0
DWIDTH 42 0
BBX 42 42 0 -6
BITMAP
000000000000
000000000000
000000000000
000000000000
000070000000
0000F0000000
0001F0000000
0003E0000000
0007C0000000
000F00000000
001E00000000
003E00000000
003FFFFF8000
004FFFF7C000
000000078000
0020000F8000
0070000F0000
0070001E0000
0038003E0000
001C003C0000
001E00780000
000E00F00000
000F01E00000
000783C00000
0003C3800000
0001C7000000
00007C000000
00007C000000
00007C000000
0000FF000000
0001CF800000
0007C7E00000
001F81F00000
007E00FF0000
01F8007FF000
07E0001FE000
03800007C000
000000008000
000000000000
000000000000
000000000000
000000000000
ENDCHAR

STARTCHAR cns1_243E
ENCODING 9278
SWIDTH 960 0
DWIDTH 42 0
BBX 42 42 0 -6
BITMAP
000000000000
000000000000
000000000000
000000000000
00001C000000
00001C000000
00001C000000
00001C000000
00001C000000
00001C000000
00001C000000
00001C000000
00001C000000
00001C000000
00001C000000
00001C00C000
00001C00E000
00001C01E000
07FFFFFFF000
07FFFFFFF000
00001C000000
00001C000000
00001C000000
00001C000000
00001C000000
00001C000000
00001C000000
00001C000000
00001C000000
00001C000000
00001C000000
00001C000000
00001C000000
00001C000000
00001C000000
00001C000000
00001C000000
000000000000
000000000000
000000000000
000000000000
000000000000
ENDCHAR

STARTCHAR cns1_243F
ENCODING 9279
SWIDTH 960 0
DWIDTH 42 0
BBX 42 42 0 -6
BITMAP
000000000000
000000000000
000000000000
000100C00000
0003C0F00000
0003C0F00000
000380E00000
000380E00000
000380E00000
000380E00000
000380E00000
000380E00000
000380E00000
000380E00000
000380E00000
000380E18000
000380E3C000
000380E3E000
07FFFFFFF000
07FFFFFFF000
000380E00000
000380E00000
000380E00000
000380E00000
000380E00000
000380E00000
000380E00000
000380E00000
000380E00000
000380E00000
000380E00000
000380E00000
000000000000
000000000000
000000000000
000000000000
000000000000
000000000000
000000000000
000000000000
000000000000
000000000000
ENDCHAR

STARTCHAR cns1_2440
ENCODING 9280
SWIDTH 960 0
DWIDTH 42 0
BBX 42 42 0 -6
BITMAP
000000000000
000000000000
000000000000
000000000000
000000000000
000000000000
001038180000
003C3C1E0000
00383C1C0000
00383C1C0000
00383C1C0000
00383C1C0000
00383C1C0000
00383C1C0000
00383C1C0000
00383C1C6000
00383C18F000
003FFC18F800
07FFFFFFFC00
07FFFFFFFC00
00383C1C0000
00383C1C0000
00383C1C0000
00383C1C0000
00383C1C0000
00383C1C0000
00383C1C0000
00383C1C0000
00383C1C0000
00383C1C0000
00383C1C0000
00383C1C0000
00383C1C0000
00383C1C0000
00383C1C0000
000000000000
000000000000
000000000000
000000000000
000000000000
000000000000
000000000000
ENDCHAR

STARTCHAR cns1_2441
ENCODING 9281
SWIDTH 960 0
DWIDTH 42 0
BBX 42 42 0 -6
BITMAP
000000000000
000000000000
000000000000
000000000000
000000000000
000001000000
00003F000000
00003F000000
00003F800000
00007F800000
000067800000
000063C00000
0000E3C00000
0000E3C00000
0000C1C00000
0000C1E00000
0001C1E00000
000181E00000
000180F00000
000380F00000
000300F00000
000300780000
000600780000
000600780000
0007FFFC0000
000C003C0000
000C001C0000
000C001E0000
0018001E0000
0018000E0000
0010000E0000
0030000F0000
0070000F0000
00F8000F8000
03FF007FE000
000000001000
000000000000
000000000000
000000000000
000000000000
000000000000
000000000000
ENDCHAR

STARTCHAR cns1_2442
ENCODING 9282
SWIDTH 960 0
DWIDTH 42 0
BBX 42 42 0 -6
BITMAP
000000000000
000000000000
000000000000
000000000000
000000000000
000000000000
003FFFE00000
000F807C0000
0007003E0000
0007000F0000
0007000F0000
0007000F8000
0007000F8000
0007000F0000
0007000F0000
0007000F0000
0007001E0000
0007003C0000
000700400000
0007FFC00000
0007FFE00000
000700780000
0007001C0000
0007000F0000
000700078000
000700078000
00070003C000
00070003C000
00070003C000
000700078000
000700078000
000700078000
0007000F0000
000F801E0000
007FFFF80000
000000000000
000000000000
000000000000
000000000000
000000000000
000000000000
000000000000
ENDCHAR

STARTCHAR cns1_2443
ENCODING 9283
SWIDTH 960 0
DWIDTH 42 0
BBX 42 42 0 -6
BITMAP
000000000000
000000000000
000000000000
000000000000
000000000000
000000000000
00003FC10000
0000F1FF0000
0001C01F0000
0003800F0000
000700070000
000E00030000
001E00018000
001C00018000
003C00008000
003800000000
007800000000
007800000000
007800000000
007800000000
007800000000
007800000000
007800000000
007800000000
007800000000
007800000000
007C00000000
003C00008000
003E00018000
001E00030000
001F00070000
000F800E0000
0007E03C0000
0001FFF00000
0000FFC00000
000000000000
000000000000
000000000000
000000000000
000000000000
000000000000
000000000000
ENDCHAR

STARTCHAR cns1_2444
ENCODING 9284
SWIDTH 960 0
DWIDTH 42 0
BBX 42 42 0 -6
BITMAP
000000000000
000000000000
000000000000
000000000000
000000000000
010000000000
00FFFFC00000
001F01F00000
000E003C0000
000E001E0000
000E000F0000
000E00078000
000E00078000
000E0007C000
000E0003C000
000E0003E000
000E0001E000
000E0001E000
000E0001E000
000E0001E000
000E0001E000
000E0001E000
000E0001E000
000E0001E000
000E0003E000
000E0003C000
000E0003C000
000E0003C000
000E0003C000
000E00078000
000E00078000
000E000F0000
000E003E0000
001F007C0000
00FFFFF00000
000000000000
000000000000
000000000000
000000000000
000000000000
000000000000
000000000000
ENDCHAR

STARTCHAR cns1_2445
ENCODING 9285
SWIDTH 960 0
DWIDTH 42 0
BBX 42 42 0 -6
BITMAP
000000000000
000000000000
000000000000
000000000000
000000000000
000000000000
007FFFFF0000
000F803F0000
000F000F8000
000700038000
000700038000
00070001C000
00070000C000
000700000000
000700000000
000700200000
000700600000
000700600000
000700E00000
000701E00000
0007FFE00000
0007FFE00000
000701E00000
000700E00000
000700600000
000700600000
000700600000
000700000000
000700004000
00070000C000
00070001C000
000700038000
000F00078000
001F801F0000
00FFFFFF0000
000000000000
000000000000
000000000000
000000000000
000000000000
000000000000
000000000000
ENDCHAR

STARTCHAR cns1_2446
ENCODING 9286
SWIDTH 960 0
DWIDTH 42 0
BBX 42 42 0 -6
BITMAP
000000000000
000000000000
000000000000
000000000000
000000000000
000000000000
007FFFFE0000
000FC03F0000
0007800F0000
000780078000
000780038000
000780018000
00078000C000
000780008000
000780000000
000780200000
000780200000
000780600000
000780600000
000780E00000
0007FFE00000
000780E00000
000780E00000
000780600000
000780600000
000780600000
000780000000
000780000000
000780000000
000780000000
000780000000
000780000000
000FC0000000
001FF0000000
007FF8000000
000004000000
000000000000
000000000000
000000000000
000000000000
000000000000
000000000000
ENDCHAR

STARTCHAR cns1_2447
ENCODING 9287
SWIDTH 960 0
DWIDTH 42 0
BBX 42 42 0 -6
BITMAP
000000000000
000000000000
000000000000
000000000000
000000000000
000000000000
0000FF180000
0003E1FC0000
0007803C0000
000E001E0000
001C000E0000
003C00060000
007800020000
007800000000
00F000000000
00F000000000
00F000000000
01F000000000
01F000000000
01F000000000
01F000000000
01F001FFE000
01F000FFE000
01F0001F0000
00F0000E0000
00F0000E0000
00F0000E0000
0078000E0000
0078000E0000
003C000E0000
001E000E0000
000F001E0000
0007803E0000
0003FFF00000
00007FC00000
000000000000
000000000000
000000000000
000000000000
000000000000
000000000000
000000000000
ENDCHAR

STARTCHAR cns1_2448
ENCODING 9288
SWIDTH 960 0
DWIDTH 42 0
BBX 42 42 0 -6
BITMAP
000000000000
000000000000
000000000000
000000000000
000000000000
000000000000
03FFE0FFF000
007E001F0000
003C000F0000
003C000F0000
003C000F0000
003C000F0000
003C000F0000
003C000F0000
003C000F0000
003C000F0000
003C000F0000
003C000F0000
003C000F0000
003C000F0000
003FFFFF0000
003C000F0000
003C000F0000
003C000F0000
003C000F0000
003C000F0000
003C000F0000
003C000F0000
003C000F0000
003C000F0000
003C000F0000
003C000F0000
003C000F0000
007E001F8000
03FFC0FFF000
000000000000
000000000000
000000000000
000000000000
000000000000
000000000000
000000000000
ENDCHAR

STARTCHAR cns1_2449
ENCODING 9289
SWIDTH 960 0
DWIDTH 42 0
BBX 42 42 0 -6
BITMAP
000000000000
000000000000
000000000000
000000000000
000000000000
000000000000
0001FFE00000
00003F000000
00001E000000
00001E000000
00001E000000
00001E000000
00001E000000
00001E000000
00001E000000
00001E000000
00001E000000
00001E000000
00001E000000
00001E000000
00001E000000
00001E000000
00001E000000
00001E000000
00001E000000
00001E000000
00001E000000
00001E000000
00001E000000
00001E000000
00001E000000
00001E000000
00001E000000
00003F000000
0003FFE00000
000000000000
000000000000
000000000000
000000000000
000000000000
000000000000
000000000000
ENDCHAR

STARTCHAR cns1_244A
ENCODING 9290
SWIDTH 960 0
DWIDTH 42 0
BBX 42 42 0 -6
BITMAP
000000000000
000000000000
000000000000
000000000000
000000000000
000000000000
00007FF80000
00000FC00000
000007800000
000007800000
000007800000
000007800000
000007800000
000007800000
000007800000
000007800000
000007800000
000007800000
000007800000
000007800000
000007800000
000007800000
000007800000
000007800000
000007800000
000007800000
000007800000
000007800000
000007800000
000007000000
000707000000
000F07000000
000F8F000000
000FFE000000
0003F8000000
000040000000
000000000000
000000000000
000000000000
000000000000
000000000000
000000000000
ENDCHAR

STARTCHAR cns1_244B
ENCODING 9291
SWIDTH 960 0
DWIDTH 42 0
BBX 42 42 0 -6
BITMAP
000000000000
000000000000
000000000000
000000000000
000000000000
000000000000
03FFC1FFC000
007E001E0000
003C00180000
003C00700000
003C00600000
003C00C00000
003C01800000
003C03800000
003C07000000
003C0E000000
003C18000000
003C38000000
003C3C000000
003C7E000000
00388E000000
00398F000000
003F07800000
003E03800000
003C03C00000
003C01E00000
003C01E00000
003C00F00000
003C00780000
003C00780000
003C003C0000
003C001E0000
003C001F0000
007E001F8000
03FFC0FFF000
000000000000
000000000000
000000000000
000000000000
000000000000
000000000000
000000000000
ENDCHAR

STARTCHAR cns1_244C
ENCODING 9292
SWIDTH 960 0
DWIDTH 42 0
BBX 42 42 0 -6
BITMAP
000000000000
000000000000
000000000000
000000000000
000000000000
000000000000
007FFC000000
000FC0000000
000780000000
000780000000
000780000000
000780000000
000780000000
000780000000
000780000000
000780000000
000780000000
000780000000
000780000000
000780000000
000780000000
000780000000
000780000000
000780000000
000780000000
000780000000
000780000000
000780000000
000780004000
00078000C000
000780018000
000780038000
0007800F0000
000FC03F0000
007FFFFF0000
000000000000
000000000000
000000000000
000000000000
000000000000
000000000000
000000000000
ENDCHAR

STARTCHAR cns1_244D
ENCODING 9293
SWIDTH 960 0
DWIDTH 42 0
BBX 42 42 0 -6
BITMAP
000000000000
000000000000
000000000000
000000000000
000000000000
000000000000
1FF80007FE00
03F8000FF000
01F80008E000
013C0008E000
013C0008E000
011C0010E000
011E0010E000
010E0010E000
010F0020E000
010F0020E000
01070020E000
01078040E000
01078040E000
01038040E000
0103C080E000
0101C080E000
0101E080E000
0101E180E000
0100E100E000
0100F100E000
0100F100E000
01006200E000
01007200E000
01003E00E000
01003C00E000
01003C00E000
03001C00E000
03801801F000
1FF0180FFE00
000000000000
000000000000
000000000000
000000000000
000000000000
000000000000
000000000000
ENDCHAR

STARTCHAR cns1_244E
ENCODING 9294
SWIDTH 960 0
DWIDTH 42 0
BBX 42 42 0 -6
BITMAP
000000000000
000000000000
000000000000
000000000000
000000000000
000000000000
03FC001FF000
00FE00038000
003E00038000
003F00010000
003F80010000
0023C0010000
0023C0010000
0031E0010000
0030F0010000
003078010000
003078010000
00303C010000
00301E010000
00300F010000
00300F010000
003007810000
003003C10000
003001E10000
003001E10000
003000F10000
003000710000
003000390000
0030003F0000
0030001F0000
0030000F0000
003000070000
007000070000
00F800030000
03FF00010000
000000000000
000000000000
000000000000
000000000000
000000000000
000000000000
000000000000
ENDCHAR

STARTCHAR cns1_244F
ENCODING 9295
SWIDTH 960 0
DWIDTH 42 0
BBX 42 42 0 -6
BITMAP
000000000000
000000000000
000000000000
000000000000
000000000000
000000000000
0000FF800000
0003C1E00000
000780780000
000E003C0000
001E001E0000
003C000F0000
0078000F0000
007800078000
00F80007C000
00F00003C000
00F00003C000
01F00003C000
01F00003C000
01F00003E000
01F00003E000
01F00003E000
01F00003E000
01F00003C000
00F00003C000
00F00003C000
00F80007C000
007800078000
0078000F8000
003C000F0000
001E001E0000
001F003C0000
000F80780000
0003E1F00000
0000FFC00000
00001E000000
000000000000
000000000000
000000000000
000000000000
000000000000
000000000000
ENDCHAR

STARTCHAR cns1_2450
ENCODING 9296
SWIDTH 960 0
DWIDTH 42 0
BBX 42 42 0 -6
BITMAP
000000000000
000000000000
000000000000
000000000000
000000000000
000000000000
007FFFE00000
000FC0780000
0007803E0000
0007800F0000
0007800F0000
000780078000
000780078000
000780078000
000780078000
000780078000
000780070000
0007800F0000
0007801E0000
0007807C0000
0007FFF00000
000780000000
000780000000
000780000000
000780000000
000780000000
000780000000
000780000000
000780000000
000780000000
000780000000
000780000000
000780000000
000FC0000000
007FF8000000
000000000000
000000000000
000000000000
000000000000
000000000000
000000000000
000000000000
ENDCHAR

STARTCHAR cns1_2451
ENCODING 9297
SWIDTH 960 0
DWIDTH 42 0
BBX 42 42 0 -6
BITMAP
000000000000
000000000000
000000000000
000000000000
000000000000
000000000000
00007F800000
0001FFE00000
000380780000
000F003C0000
001E001E0000
003C000F0000
0038000F0000
007800078000
007000078000
00F00007C000
00F00003C000
00E00003C000
01E00003E000
01E00003E000
01E00003E000
01E00003E000
01E00003C000
01E00003C000
01E00003C000
00E00003C000
00F00007C000
00F0F8078000
0071FE078000
007E07070000
003C038E0000
001C018E0000
000E009C0000
000380E00000
0001FFE00000
000018F00000
0000007C0000
0000007FE000
0000003FC000
0000000E0000
000000000000
000000000000
ENDCHAR

STARTCHAR cns1_2452
ENCODING 9298
SWIDTH 960 0
DWIDTH 42 0
BBX 42 42 0 -6
BITMAP
000000000000
000000000000
000000000000
000000000000
000000000000
000000000000
00FFFF800000
001F81F00000
001E00780000
000E001C0000
000E001E0000
000E001E0000
000E001E0000
000E001E0000
000E001E0000
000E001E0000
000E001C0000
000E00380000
000E00F00000
000FFFC00000
000E0E000000
000E07000000
000E07000000
000E03800000
000E03C00000
000E01C00000
000E01E00000
000E00E00000
000E00F00000
000E00700000
000E00780000
000E003C0000
000E003C0000
001F001E0000
00FFE01FC000
000000000000
000000000000
000000000000
000000000000
000000000000
000000000000
000000000000
ENDCHAR

STARTCHAR cns1_2453
ENCODING 9299
SWIDTH 960 0
DWIDTH 42 0
BBX 42 42 0 -6
BITMAP
000000000000
000000000000
000000000000
000000000000
000000000000
000000000000
0000FE100000
000383F00000
000700780000
000E00380000
000C001C0000
001C000C0000
001C00060000
001C00000000
001C00000000
001E00000000
000F00000000
000FE0000000
0007FC000000
0001FFC00000
00007FF00000
00001FF80000
000003FE0000
0000003E0000
0000001F0000
0000000F0000
000000070000
001000070000
003000070000
001800070000
001C00070000
001E000E0000
000F801C0000
000FE0780000
00043FE00000
000000000000
000000000000
000000000000
000000000000
000000000000
000000000000
000000000000
ENDCHAR

STARTCHAR cns1_2454
ENCODING 9300
SWIDTH 960 0
DWIDTH 42 0
BBX 42 42 0 -6
BITMAP
000000000000
000000000000
000000000000
000000000000
000000000000
000000000000
00FFFFFFC000
00F83F0FC000
00F01E03C000
01E01E01E000
01801E00E000
03001E007000
03001E003000
00001E001000
00001E000000
00001E000000
00001E000000
00001E000000
00001E000000
00001E000000
00001E000000
00001E000000
00001E000000
00001E000000
00001E000000
00001E000000
00001E000000
00001E000000
00001E000000
00001E000000
00001E000000
00001E000000
00001E000000
00003F000000
0003FFF00000
000000000000
000000000000
000000000000
000000000000
000000000000
000000000000
000000000000
ENDCHAR

STARTCHAR cns1_2455
ENCODING 9301
SWIDTH 960 0
DWIDTH 42 0
BBX 42 42 0 -6
BITMAP
000000000000
000000000000
000000000000
000000000000
000000000000
000000400000
03FFC03FF000
007E00078000
003C00070000
003C00030000
003C00030000
003C00030000
003C00030000
003C00030000
003C00030000
003C00030000
003C00030000
003C00030000
003C00030000
003C00030000
003C00030000
003C00030000
003C00030000
003C00030000
003C00030000
003C00030000
003C00030000
003C00030000
003C00030000
003E00060000
001E000E0000
000F001C0000
000F80380000
0003FFF80000
0000FFE00000
000000000000
000000000000
000000000000
000000000000
000000000000
000000000000
000000000000
ENDCHAR

STARTCHAR cns1_2456
ENCODING 9302
SWIDTH 960 0
DWIDTH 42 0
BBX 42 42 0 -6
BITMAP
000000000000
000000000000
000000000000
000000000000
000000000000
000000000000
01FFC07FE000
003C00078000
003C00070000
001E000E0000
000F000C0000
0007000C0000
0007001C0000
000700180000
000380180000
000380380000
000380300000
0003C0300000
0001C0600000
0001C0600000
0001E0600000
0000E0C00000
0000E0C00000
0000F0C00000
000070800000
000071800000
000071000000
000031000000
00003F000000
00003E000000
00001E000000
00001E000000
00001C000000
00001C000000
000008000000
000000000000
000000000000
000000000000
000000000000
000000000000
000000000000
000000000000
ENDCHAR

STARTCHAR cns1_2457
ENCODING 9303
SWIDTH 960 0
DWIDTH 42 0
BBX 42 42 0 -6
BITMAP
000000000000
000000000000
000000000000
000000000000
000000000000
000000000000
3FF1FFC1FE00
0F803E003C00
07801E003800
03800E001000
03800F000000
01C00F004000
01C00F004000
01C003004000
01C003800000
00E003808000
00E003808000
00E001808000
00E001C00000
007041C10000
007041C10000
007000C10000
007080E00000
003880E20000
003880E20000
003100620000
003100700000
001900640000
001F007C0000
001E003C0000
001E00380000
000E00380000
000E00380000
000C00180000
000C00100000
000000000000
000000000000
000000000000
000000000000
000000000000
000000000000
000000000000
ENDCHAR

STARTCHAR cns1_2458
ENCODING 9304
SWIDTH 960 0
DWIDTH 42 0
BBX 42 42 0 -6
BITMAP
000000000000
000000000000
000000000000
000000000000
000000000000
000000000000
007FC0FFC000
000F003E0000
0007003C0000
000300380000
000380780000
000180700000
0000C0F00000
0000C0E00000
000061E00000
000021C00000
000023C00000
000013800000
00000F800000
00000F000000
00000E000000
00001E000000
00003F000000
000031800000
000078800000
0000F0C00000
0000E0600000
0001E0600000
0001C0300000
0003C0180000
000780180000
0007000C0000
000F000E0000
001F000F0000
01FFE07FE000
000000000000
000000000000
000000000000
000000000000
000000000000
000000000000
000000000000
ENDCHAR

STARTCHAR cns1_2459
ENCODING 9305
SWIDTH 960 0
DWIDTH 42 0
BBX 42 42 0 -6
BITMAP
000000000000
000000000000
000000000000
000000000000
000000000000
000000000000
03FFC03FF000
007E00038000
001E00030000
000E00060000
000700060000
0007800C0000
0003800C0000
0003C0180000
0001E0180000
0001E0300000
0000F0200000
0000F0600000
000078400000
000038C00000
000039800000
00001F800000
00001F000000
00000F000000
00000F000000
00000F000000
00000F000000
00000F000000
00000F000000
00000F000000
00000F000000
00000F000000
00000F000000
00001F800000
0001FFF80000
000000000000
000000000000
000000000000
000000000000
000000000000
000000000000
000000000000
ENDCHAR

STARTCHAR cns1_245A
ENCODING 9306
SWIDTH 960 0
DWIDTH 42 0
BBX 42 42 0 -6
BITMAP
000000000000
000000000000
000000000000
000000000000
000000000000
000000000000
0007FFFF0000
000FC00E0000
000F001C0000
000E00380000
001C00380000
001800700000
003000F00000
000000E00000
000001C00000
000003C00000
000003800000
000007000000
00000F000000
00001E000000
00001E000000
00003C000000
000078000000
000078000000
0000F0000000
0001E0000000
0001E0000000
0003C0000000
0007C0018000
000780030000
000F00070000
001E00060000
001C001E0000
003C003E0000
007FFFFC0000
000000000000
000000000000
000000000000
000000000000
000000000000
000000000000
000000000000
ENDCHAR

STARTCHAR cns1_245B
ENCODING 9307
SWIDTH 960 0
DWIDTH 42 0
BBX 42 42 0 -6
BITMAP
000000000000
000000000000
000000000000
000000000000
000000000000
000000000000
000000000000
000000000000
000000000000
000000000000
000000000000
000000000000
000000000000
000000000000
000000000000
000000000000
000000000000
000000000000
00007F000000
0003E1E00000
000780E00000
000780E00000
000700600000
000000600000
000000600000
00000FE00000
00007CE00000
0001E0E00000
000780E00000
000F00E00000
000E00E00000
000E00E00000
000E01E00000
000F87F20000
0007F87C0000
000000100000
000000000000
000000000000
000000000000
000000000000
000000000000
000000000000
ENDCHAR

STARTCHAR cns1_245C
ENCODING 9308
SWIDTH 960 0
DWIDTH 42 0
BBX 42 42 0 -6
BITMAP
000000000000
000000000000
000000000000
000000000000
000000000000
000040000000
0003C0000000
0007C0000000
0003C0000000
0001C0000000
0001C0000000
0001C0000000
0001C0000000
0001C0000000
0001C0000000
0001C0000000
0001C0000000
0001C0000000
0001C7800000
00019FE00000
0001F0F00000
0001C0780000
0001C0380000
0001C0380000
0001C01C0000
0001C01C0000
0001C01C0000
0001C01C0000
0001C01C0000
0001C01C0000
0001C03C0000
0001C0380000
0001C0700000
000130E00000
00011FC00000
000000000000
000000000000
000000000000
000000000000
000000000000
000000000000
000000000000
ENDCHAR

STARTCHAR cns1_245D
ENCODING 9309
SWIDTH 960 0
DWIDTH 42 0
BBX 42 42 0 -6
BITMAP
000000000000
000000000000
000000000000
000000000000
000000000000
000000000000
000000000000
000000000000
000000000000
000000000000
000000000000
000000000000
000000000000
000000000000
000000000000
000000000000
000000000000
000000000000
00000FC00000
000078F00000
0000E0780000
0001C0780000
000380380000
000380100000
000700000000
000700000000
000F00000000
000F00000000
000F00000000
000F00000000
000780000000
000780080000
0003C0180000
0001F0700000
00007FC00000
00001E000000
000000000000
000000000000
000000000000
000000000000
000000000000
000000000000
ENDCHAR

STARTCHAR cns1_245E
ENCODING 9310
SWIDTH 960 0
DWIDTH 42 0
BBX 42 42 0 -6
BITMAP
000000000000
000000000000
000000000000
000000000000
000000000000
000000080000
000000F80000
000001F80000
000000780000
000000380000
000000380000
000000380000
000000380000
000000380000
000000380000
000000380000
000000380000
000000380000
0000FE380000
0001E0F80000
000380380000
000700380000
000700380000
000E00380000
000E00380000
000E00380000
000E00380000
000E00380000
000E00380000
000E00380000
000700380000
000780380000
0003C0F80000
0001FF380000
00007E3E0000
000000020000
000000000000
000000000000
000000000000
000000000000
000000000000
000000000000
ENDCHAR

STARTCHAR cns1_245F
ENCODING 9311
SWIDTH 960 0
DWIDTH 42 0
BBX 42 42 0 -6
BITMAP
000000000000
000000000000
000000000000
000000000000
000000000000
000000000000
000000000000
000000000000
000000000000
000000000000
000000000000
000000000000
000000000000
000000000000
000000000000
000000000000
000000000000
000000000000
00001F000000
0000F3C00000
0001C0E00000
000380700000
000300380000
000700380000
0007003C0000
000FFFFC0000
000F00000000
000F00000000
000F00000000
000F00000000
000700000000
0007800C0000
0003C0180000
0001F0700000
00007FC00000
000000000000
000000000000
000000000000
000000000000
000000000000
000000000000
000000000000
ENDCHAR

STARTCHAR cns1_2460
ENCODING 9312
SWIDTH 960 0
DWIDTH 42 0
BBX 42 42 0 -6
BITMAP
000000000000
000000000000
000000000000
000000000000
000000000000
000000000000
000003F00000
00000FF80000
00000E380000
00001C000000
00001C000000
00001C000000
00001C000000
00001C000000
00001C000000
00001C000000
00001C000000
00001C000000
0003FFE00000
00001C000000
00001C000000
00001C000000
00001C000000
00001C000000
00001C000000
00001C000000
00001C000000
00001C000000
00001C000000
00001C000000
00001C000000
00001C000000
00001C000000
00001E000000
0001FFC00000
000000000000
000000000000
000000000000
000000000000
000000000000
000000000000
000000000000
ENDCHAR

STARTCHAR cns1_2461
ENCODING 9313
SWIDTH 960 0
DWIDTH 42 0
BBX 42 42 0 -6
BITMAP
000000000000
000000000000
000000000000
000000000000
000000000000
000000000000
000000000000
000000000000
000000000000
000000000000
000000000000
000000000000
000000000000
000000000000
000000000000
000000000000
000000000000
000010000000
0000FF1E0000
0001C3FE0000
000381C40000
000700E00000
000700E00000
000700E00000
000700E00000
000700E00000
000181C00000
0000C7800000
000018000000
000700000000
000FE0000000
0001FE000000
0001FFE00000
000303F80000
000C00380000
001C00380000
001C00380000
001E00700000
000FFFC00000
0000FE000000
000000000000
000000000000
ENDCHAR

STARTCHAR cns1_2462
ENCODING 9314
SWIDTH 960 0
DWIDTH 42 0
BBX 42 42 0 -6
BITMAP
000000000000
000000000000
000000000000
000000000000
000000000000
000000000000
000380000000
000F80000000
001F80000000
000780000000
000380000000
000380000000
000380000000
000380000000
000380000000
000380000000
000380000000
000380000000
000387C00000
00031FE00000
000330F00000
0003C0780000
000380380000
000380380000
000380380000
000380380000
000380380000
000380380000
000380380000
000380380000
000380380000
000380380000
000380380000
0007807C0000
001FF1FF0000
000000000000
000000000000
000000000000
000000000000
000000000000
000000000000
000000000000
ENDCHAR

STARTCHAR cns1_2463
ENCODING 9315
SWIDTH 960 0
DWIDTH 42 0
BBX 42 42 0 -6
BITMAP
000000000000
000000000000
000000000000
000000000000
000000000000
000000000000
000000000000
000000000000
000000000000
000000000000
00001E000000
00001E000000
00001E000000
000000000000
000000000000
000000000000
000000000000
000000000000
00003E000000
00007E000000
00001E000000
00000E000000
00000E000000
00000E000000
00000E000000
00000E000000
00000E000000
00000E000000
00000E000000
00000E000000
00000E000000
00000E000000
00000E000000
00001F000000
00007FC00000
000000000000
000000000000
000000000000
000000000000
000000000000
000000000000
000000000000
ENDCHAR

STARTCHAR cns1_2464
ENCODING 9316
SWIDTH 960 0
DWIDTH 42 0
BBX 42 42 0 -6
BITMAP
000000000000
000000000000
000000000000
000000000000
000000000000
000000000000
000000000000
000000000000
000000000000
000003800000
000007800000
000007C00000
000007800000
000000000000
000000000000
000000000000
000000000000
000000000000
000000C00000
00000FC00000
00001FC00000
000003C00000
000001C00000
000001C00000
000001C00000
000001C00000
000001C00000
000001C00000
000001C00000
000001C00000
000001C00000
000001C00000
000001C00000
000001C00000
000001C00000
000001C00000
000001C00000
000073800000
00007F800000
00003E000000
000000000000
000000000000
ENDCHAR

STARTCHAR cns1_2465
ENCODING 9317
SWIDTH 960 0
DWIDTH 42 0
BBX 42 42 0 -6
BITMAP
000000000000
000000000000
000000000000
000000000000
000000000000
000080000000
000380000000
000F80000000
000380000000
000380000000
000380000000
000380000000
000380000000
000380000000
000380000000
000380000000
000380000000
000380000000
000383FC0000
000380C00000
000381800000
000383000000
000384000000
00038C000000
00031C000000
00033E000000
0003C6000000
000383000000
000383800000
000381C00000
000380C00000
000380600000
000380700000
000780780000
001FF1FF0000
000000000000
000000000000
000000000000
000000000000
000000000000
000000000000
000000000000
ENDCHAR

STARTCHAR cns1_2466
ENCODING 9318
SWIDTH 960 0
DWIDTH 42 0
BBX 42 42 0 -6
BITMAP
000000000000
000000000000
000000000000
000000000000
000000000000
000006000000
00017E000000
0000FE000000
00003E000000
00001E000000
00001E000000
00001E000000
00001E000000
00001E000000
00001E000000
00001E000000
00001E000000
00001E000000
00001E000000
00001E000000
00001E000000
00001E000000
00001E000000
00001E000000
00001E000000
00001E000000
00001E000000
00001E000000
00001E000000
00001E000000
00001E000000
00001E000000
00001E000000
00003F000000
0000FFE00000
000000000000
000000000000
000000000000
000000000000
000000000000
000000000000
000000000000
ENDCHAR

STARTCHAR cns1_2467
ENCODING 9319
SWIDTH 960 0
DWIDTH 42 0
BBX 42 42 0 -6
BITMAP
000000000000
000000000000
000000000000
000000000000
000000000000
000000000000
000000000000
000000000000
000000000000
000000000000
000000000000
000000000000
000000000000
000000000000
000000000000
000000000000
000000000000
000000000000
0000E0380000
00F1F8FE0000
0073198F0000
003C1F070000
00180E030000
00180C030000
00180C030000
00180C030000
00180C030000
00180C030000
00180C030000
00180C030000
00180C030000
00180C030000
00180C030000
00180C030000
003C0E078000
007E3F0FC000
000000000000
000000000000
000000000000
000000000000
000000000000
000000000000
ENDCHAR

STARTCHAR cns1_2468
ENCODING 9320
SWIDTH 960 0
DWIDTH 42 0
BBX 42 42 0 -6
BITMAP
000000000000
000000000000
000000000000
000000000000
000000000000
000000000000
000000000000
000000000000
000000000000
000000000000
000000000000
000000000000
000000000000
000000000000
000000000000
000000000000
000000000000
000000000000
000003000000
00038FC00000
000F98E00000
0003E0F00000
0001C0700000
0001C0700000
0001C0700000
0001C0700000
0001C0700000
0001C0700000
0001C0700000
0001C0700000
0001C0700000
0001C0700000
0001C0700000
0003E0700000
000FF1FC0000
000000000000
000000000000
000000000000
000000000000
000000000000
000000000000
000000000000
ENDCHAR

STARTCHAR cns1_2469
ENCODING 9321
SWIDTH 960 0
DWIDTH 42 0
BBX 42 42 0 -6
BITMAP
000000000000
000000000000
000000000000
000000000000
000000000000
000000000000
000000000000
000000000000
000000000000
000000000000
000000000000
000000000000
000000000000
000000000000
000000000000
000000000000
000000000000
000000000000
00003F000000
000071800000
0000E0E00000
0001C0600000
000180700000
000380300000
000380380000
000380380000
000380380000
000380380000
000380380000
000380380000
000380700000
0001C0700000
0000C0600000
0000E1C00000
00003F800000
00000C000000
000000000000
000000000000
000000000000
000000000000
000000000000
000000000000
ENDCHAR

STARTCHAR cns1_246A
ENCODING 9322
SWIDTH 960 0
DWIDTH 42 0
BBX 42 42 0 -6
BITMAP
000000000000
000000000000
000000000000
000000000000
000000000000
000000000000
000000000000
000000000000
000000000000
000000000000
000000000000
000000000000
000000000000
000000000000
000000000000
000000000000
000000000000
000000000000
000047C00000
0007C8E00000
0001F0300000
0000E0380000
0000E0180000
0000E01C0000
0000E01C0000
0000E01C0000
0000E01C0000
0000E01C0000
0000E01C0000
0000E01C0000
0000E0180000
0000E0180000
0000E0380000
0000F0700000
0000C8E00000
0000C7800000
0000E0000000
0000E0000000
0000E0000000
0007F8000000
000000000000
000000000000
ENDCHAR

STARTCHAR cns1_246B
ENCODING 9323
SWIDTH 960 0
DWIDTH 42 0
BBX 42 42 0 -6
BITMAP
000000000000
000000000000
000000000000
000000000000
000000000000
000000000000
000000000000
000000000000
000000000000
000000000000
000000000000
000000000000
000000000000
000000000000
000000000000
000000000000
000000000000
000000000000
00003C000000
0000E2200000
000180E00000
000380600000
000300600000
000700600000
000700600000
000700600000
000700600000
000600600000
000600600000
000600600000
000700600000
000700600000
000380600000
0001C0E00000
0000E2600000
00003C600000
000000600000
000000600000
000000E00000
000003F80000
000000000000
000000000000
ENDCHAR

STARTCHAR cns1_246C
ENCODING 9324
SWIDTH 960 0
DWIDTH 42 0
BBX 42 42 0 -6
BITMAP
000000000000
000000000000
000000000000
000000000000
000000000000
000000000000
000000000000
000000000000
000000000000
000000000000
000000000000
000000000000
000000000000
000000000000
000000000000
000000000000
000000000000
000000000000
000000600000
000078F00000
0001F1F00000
00007E300000
00003C000000
000038000000
000038000000
000038000000
000038000000
000038000000
000038000000
000038000000
000038000000
000038000000
000038000000
000078000000
0001FE000000
000000000000
000000000000
000000000000
000000000000
000000000000
000000000000
000000000000
ENDCHAR

STARTCHAR cns1_246D
ENCODING 9325
SWIDTH 960 0
DWIDTH 42 0
BBX 42 42 0 -6
BITMAP
000000000000
000000000000
000000000000
000000000000
000000000000
000000000000
000000000000
000000000000
000000000000
000000000000
000000000000
000000000000
000000000000
000000000000
000000000000
000000000000
000000000000
000000000000
000078800000
0000CF800000
000100C00000
000100400000
000180600000
000180000000
0001E0000000
0000FE000000
00007FC00000
00000FE00000
000000E00000
000000700000
000200300000
000100300000
000180600000
0001E0E00000
0000FF800000
000000000000
000000000000
000000000000
000000000000
000000000000
000000000000
000000000000
ENDCHAR

STARTCHAR cns1_246E
ENCODING 9326
SWIDTH 960 0
DWIDTH 42 0
BBX 42 42 0 -6
BITMAP
000000000000
000000000000
000000000000
000000000000
000000000000
000000000000
000000000000
000000000000
000000000000
000000000000
000000000000
000000000000
000008000000
000018000000
000018000000
000018000000
000038000000
000038000000
0001FFC00000
000018000000
000038000000
000038000000
000038000000
000038000000
000038000000
000038000000
000038000000
000038000000
000038000000
000038000000
000038000000
000038000000
000038200000
000038E00000
00001F800000
000000000000
000000000000
000000000000
000000000000
000000000000
000000000000
000000000000
ENDCHAR

ENDFONT
